<?xml version="1.0" encoding="UTF-8" standalone="no"?>
<!DOCTYPE svg PUBLIC "-//W3C//DTD SVG 1.1//EN"
 "http://www.w3.org/Graphics/SVG/1.1/DTD/svg11.dtd">
<!-- Generated by graphviz version 3.0.0 (20220226.1711)
 -->
<!-- Pages: 1 -->
<svg width="234pt" height="188pt"
 viewBox="0.00 0.00 233.99 188.00" xmlns="http://www.w3.org/2000/svg" xmlns:xlink="http://www.w3.org/1999/xlink">
<g id="graph0" class="graph" transform="scale(1 1) rotate(0) translate(4 184)">
<polygon fill="white" stroke="transparent" points="-4,4 -4,-184 229.99,-184 229.99,4 -4,4"/>
<!-- {NONZERO, ZERO} -->
<g id="node1" class="node">
<title>{NONZERO, ZERO}</title>
<ellipse fill="none" stroke="black" cx="103.25" cy="-18" rx="89.08" ry="18"/>
<text text-anchor="middle" x="103.25" y="-14.3" font-family="Times,serif" font-size="14.00">{NONZERO, ZERO}</text>
</g>
<!-- set() -->
<g id="node2" class="node">
<title>set()</title>
<ellipse fill="none" stroke="black" cx="103.25" cy="-162" rx="27" ry="18"/>
<text text-anchor="middle" x="103.25" y="-158.3" font-family="Times,serif" font-size="14.00">set()</text>
</g>
<!-- {ZERO} -->
<g id="node3" class="node">
<title>{ZERO}</title>
<ellipse fill="none" stroke="black" cx="42.25" cy="-90" rx="42.49" ry="18"/>
<text text-anchor="middle" x="42.25" y="-86.3" font-family="Times,serif" font-size="14.00">{ZERO}</text>
</g>
<!-- set()&#45;&gt;{ZERO} -->
<g id="edge1" class="edge">
<title>set()&#45;&gt;{ZERO}</title>
<path fill="none" stroke="black" d="M90.31,-146.15C82.39,-137.07 72.09,-125.24 63.05,-114.87"/>
<polygon fill="black" stroke="black" points="65.65,-112.53 56.44,-107.29 60.37,-117.13 65.65,-112.53"/>
</g>
<!-- {NONZERO} -->
<g id="node4" class="node">
<title>{NONZERO}</title>
<ellipse fill="none" stroke="black" cx="164.25" cy="-90" rx="61.99" ry="18"/>
<text text-anchor="middle" x="164.25" y="-86.3" font-family="Times,serif" font-size="14.00">{NONZERO}</text>
</g>
<!-- set()&#45;&gt;{NONZERO} -->
<g id="edge2" class="edge">
<title>set()&#45;&gt;{NONZERO}</title>
<path fill="none" stroke="black" d="M116.18,-146.15C123.91,-137.29 133.92,-125.8 142.8,-115.61"/>
<polygon fill="black" stroke="black" points="145.68,-117.63 149.62,-107.79 140.41,-113.03 145.68,-117.63"/>
</g>
<!-- {ZERO}&#45;&gt;{NONZERO, ZERO} -->
<g id="edge3" class="edge">
<title>{ZERO}&#45;&gt;{NONZERO, ZERO}</title>
<path fill="none" stroke="black" d="M56.39,-72.76C63.87,-64.18 73.21,-53.46 81.58,-43.86"/>
<polygon fill="black" stroke="black" points="84.39,-45.96 88.32,-36.12 79.12,-41.36 84.39,-45.96"/>
</g>
<!-- {NONZERO}&#45;&gt;{NONZERO, ZERO} -->
<g id="edge4" class="edge">
<title>{NONZERO}&#45;&gt;{NONZERO, ZERO}</title>
<path fill="none" stroke="black" d="M149.79,-72.41C142.3,-63.82 133.01,-53.16 124.71,-43.63"/>
<polygon fill="black" stroke="black" points="127.23,-41.2 118.02,-35.96 121.95,-45.79 127.23,-41.2"/>
</g>
</g>
</svg>
