<?xml version="1.0" encoding="UTF-8" standalone="no"?>
<!DOCTYPE svg PUBLIC "-//W3C//DTD SVG 1.1//EN"
 "http://www.w3.org/Graphics/SVG/1.1/DTD/svg11.dtd">
<!-- Generated by graphviz version 3.0.0 (20220226.1711)
 -->
<!-- Pages: 1 -->
<svg width="275pt" height="260pt"
 viewBox="0.00 0.00 275.34 260.00" xmlns="http://www.w3.org/2000/svg" xmlns:xlink="http://www.w3.org/1999/xlink">
<g id="graph0" class="graph" transform="scale(1 1) rotate(0) translate(4 256)">
<polygon fill="white" stroke="transparent" points="-4,4 -4,-256 271.34,-256 271.34,4 -4,4"/>
<!-- {&#39;x&#39;, &#39;y&#39;, &#39;z&#39;} -->
<g id="node1" class="node">
<title>{&#39;x&#39;, &#39;y&#39;, &#39;z&#39;}</title>
<ellipse fill="none" stroke="black" cx="134" cy="-18" rx="50.89" ry="18"/>
<text text-anchor="middle" x="134" y="-14.3" font-family="Times,serif" font-size="14.00">{&#39;x&#39;, &#39;y&#39;, &#39;z&#39;}</text>
</g>
<!-- set() -->
<g id="node2" class="node">
<title>set()</title>
<ellipse fill="none" stroke="black" cx="134" cy="-234" rx="27" ry="18"/>
<text text-anchor="middle" x="134" y="-230.3" font-family="Times,serif" font-size="14.00">set()</text>
</g>
<!-- {&#39;x&#39;} -->
<g id="node3" class="node">
<title>{&#39;x&#39;}</title>
<ellipse fill="none" stroke="black" cx="62" cy="-162" rx="27" ry="18"/>
<text text-anchor="middle" x="62" y="-158.3" font-family="Times,serif" font-size="14.00">{&#39;x&#39;}</text>
</g>
<!-- set()&#45;&gt;{&#39;x&#39;} -->
<g id="edge1" class="edge">
<title>set()&#45;&gt;{&#39;x&#39;}</title>
<path fill="none" stroke="black" d="M119.43,-218.83C109.25,-208.94 95.47,-195.55 83.97,-184.36"/>
<polygon fill="black" stroke="black" points="86.4,-181.85 76.79,-177.38 81.52,-186.87 86.4,-181.85"/>
</g>
<!-- {&#39;y&#39;} -->
<g id="node4" class="node">
<title>{&#39;y&#39;}</title>
<ellipse fill="none" stroke="black" cx="134" cy="-162" rx="27" ry="18"/>
<text text-anchor="middle" x="134" y="-158.3" font-family="Times,serif" font-size="14.00">{&#39;y&#39;}</text>
</g>
<!-- set()&#45;&gt;{&#39;y&#39;} -->
<g id="edge2" class="edge">
<title>set()&#45;&gt;{&#39;y&#39;}</title>
<path fill="none" stroke="black" d="M134,-215.7C134,-207.98 134,-198.71 134,-190.11"/>
<polygon fill="black" stroke="black" points="137.5,-190.1 134,-180.1 130.5,-190.1 137.5,-190.1"/>
</g>
<!-- {&#39;z&#39;} -->
<g id="node5" class="node">
<title>{&#39;z&#39;}</title>
<ellipse fill="none" stroke="black" cx="206" cy="-162" rx="27" ry="18"/>
<text text-anchor="middle" x="206" y="-158.3" font-family="Times,serif" font-size="14.00">{&#39;z&#39;}</text>
</g>
<!-- set()&#45;&gt;{&#39;z&#39;} -->
<g id="edge3" class="edge">
<title>set()&#45;&gt;{&#39;z&#39;}</title>
<path fill="none" stroke="black" d="M148.57,-218.83C158.75,-208.94 172.52,-195.55 184.03,-184.36"/>
<polygon fill="black" stroke="black" points="186.47,-186.87 191.2,-177.38 181.59,-181.85 186.47,-186.87"/>
</g>
<!-- {&#39;x&#39;, &#39;y&#39;} -->
<g id="node6" class="node">
<title>{&#39;x&#39;, &#39;y&#39;}</title>
<ellipse fill="none" stroke="black" cx="39" cy="-90" rx="38.99" ry="18"/>
<text text-anchor="middle" x="39" y="-86.3" font-family="Times,serif" font-size="14.00">{&#39;x&#39;, &#39;y&#39;}</text>
</g>
<!-- {&#39;x&#39;}&#45;&gt;{&#39;x&#39;, &#39;y&#39;} -->
<g id="edge4" class="edge">
<title>{&#39;x&#39;}&#45;&gt;{&#39;x&#39;, &#39;y&#39;}</title>
<path fill="none" stroke="black" d="M56.43,-144.05C53.84,-136.18 50.7,-126.62 47.8,-117.79"/>
<polygon fill="black" stroke="black" points="51.12,-116.68 44.67,-108.28 44.47,-118.87 51.12,-116.68"/>
</g>
<!-- {&#39;x&#39;, &#39;z&#39;} -->
<g id="node7" class="node">
<title>{&#39;x&#39;, &#39;z&#39;}</title>
<ellipse fill="none" stroke="black" cx="134" cy="-90" rx="38.19" ry="18"/>
<text text-anchor="middle" x="134" y="-86.3" font-family="Times,serif" font-size="14.00">{&#39;x&#39;, &#39;z&#39;}</text>
</g>
<!-- {&#39;x&#39;}&#45;&gt;{&#39;x&#39;, &#39;z&#39;} -->
<g id="edge5" class="edge">
<title>{&#39;x&#39;}&#45;&gt;{&#39;x&#39;, &#39;z&#39;}</title>
<path fill="none" stroke="black" d="M76.57,-146.83C86.32,-137.36 99.36,-124.67 110.55,-113.79"/>
<polygon fill="black" stroke="black" points="113.21,-116.09 117.94,-106.61 108.33,-111.07 113.21,-116.09"/>
</g>
<!-- {&#39;y&#39;}&#45;&gt;{&#39;x&#39;, &#39;y&#39;} -->
<g id="edge6" class="edge">
<title>{&#39;y&#39;}&#45;&gt;{&#39;x&#39;, &#39;y&#39;}</title>
<path fill="none" stroke="black" d="M116.57,-148.16C102.83,-138.04 83.39,-123.71 67.41,-111.93"/>
<polygon fill="black" stroke="black" points="69.07,-108.81 58.94,-105.7 64.91,-114.45 69.07,-108.81"/>
</g>
<!-- {&#39;y&#39;, &#39;z&#39;} -->
<g id="node8" class="node">
<title>{&#39;y&#39;, &#39;z&#39;}</title>
<ellipse fill="none" stroke="black" cx="229" cy="-90" rx="38.19" ry="18"/>
<text text-anchor="middle" x="229" y="-86.3" font-family="Times,serif" font-size="14.00">{&#39;y&#39;, &#39;z&#39;}</text>
</g>
<!-- {&#39;y&#39;}&#45;&gt;{&#39;y&#39;, &#39;z&#39;} -->
<g id="edge7" class="edge">
<title>{&#39;y&#39;}&#45;&gt;{&#39;y&#39;, &#39;z&#39;}</title>
<path fill="none" stroke="black" d="M151.42,-148.16C165.16,-138.04 184.6,-123.71 200.59,-111.93"/>
<polygon fill="black" stroke="black" points="203.08,-114.45 209.05,-105.7 198.93,-108.81 203.08,-114.45"/>
</g>
<!-- {&#39;z&#39;}&#45;&gt;{&#39;x&#39;, &#39;z&#39;} -->
<g id="edge8" class="edge">
<title>{&#39;z&#39;}&#45;&gt;{&#39;x&#39;, &#39;z&#39;}</title>
<path fill="none" stroke="black" d="M191.43,-146.83C181.68,-137.36 168.63,-124.67 157.44,-113.79"/>
<polygon fill="black" stroke="black" points="159.66,-111.07 150.05,-106.61 154.78,-116.09 159.66,-111.07"/>
</g>
<!-- {&#39;z&#39;}&#45;&gt;{&#39;y&#39;, &#39;z&#39;} -->
<g id="edge9" class="edge">
<title>{&#39;z&#39;}&#45;&gt;{&#39;y&#39;, &#39;z&#39;}</title>
<path fill="none" stroke="black" d="M211.56,-144.05C214.15,-136.18 217.29,-126.62 220.19,-117.79"/>
<polygon fill="black" stroke="black" points="223.52,-118.87 223.32,-108.28 216.87,-116.68 223.52,-118.87"/>
</g>
<!-- {&#39;x&#39;, &#39;y&#39;}&#45;&gt;{&#39;x&#39;, &#39;y&#39;, &#39;z&#39;} -->
<g id="edge10" class="edge">
<title>{&#39;x&#39;, &#39;y&#39;}&#45;&gt;{&#39;x&#39;, &#39;y&#39;, &#39;z&#39;}</title>
<path fill="none" stroke="black" d="M59.14,-74.15C72.35,-64.43 89.83,-51.54 104.58,-40.68"/>
<polygon fill="black" stroke="black" points="106.92,-43.3 112.89,-34.55 102.76,-37.67 106.92,-43.3"/>
</g>
<!-- {&#39;x&#39;, &#39;z&#39;}&#45;&gt;{&#39;x&#39;, &#39;y&#39;, &#39;z&#39;} -->
<g id="edge11" class="edge">
<title>{&#39;x&#39;, &#39;z&#39;}&#45;&gt;{&#39;x&#39;, &#39;y&#39;, &#39;z&#39;}</title>
<path fill="none" stroke="black" d="M134,-71.7C134,-63.98 134,-54.71 134,-46.11"/>
<polygon fill="black" stroke="black" points="137.5,-46.1 134,-36.1 130.5,-46.1 137.5,-46.1"/>
</g>
<!-- {&#39;y&#39;, &#39;z&#39;}&#45;&gt;{&#39;x&#39;, &#39;y&#39;, &#39;z&#39;} -->
<g id="edge12" class="edge">
<title>{&#39;y&#39;, &#39;z&#39;}&#45;&gt;{&#39;x&#39;, &#39;y&#39;, &#39;z&#39;}</title>
<path fill="none" stroke="black" d="M209.31,-74.5C196.05,-64.72 178.31,-51.65 163.38,-40.65"/>
<polygon fill="black" stroke="black" points="165.1,-37.57 154.97,-34.46 160.95,-43.21 165.1,-37.57"/>
</g>
</g>
</svg>
