<?xml version="1.0" encoding="UTF-8" standalone="no"?>
<!DOCTYPE svg PUBLIC "-//W3C//DTD SVG 1.1//EN"
 "http://www.w3.org/Graphics/SVG/1.1/DTD/svg11.dtd">
<!-- Generated by graphviz version 3.0.0 (20220226.1711)
 -->
<!-- Pages: 1 -->
<svg width="210pt" height="188pt"
 viewBox="0.00 0.00 210.29 188.00" xmlns="http://www.w3.org/2000/svg" xmlns:xlink="http://www.w3.org/1999/xlink">
<g id="graph0" class="graph" transform="scale(1 1) rotate(0) translate(4 184)">
<polygon fill="white" stroke="transparent" points="-4,4 -4,-184 206.29,-184 206.29,4 -4,4"/>
<!-- foo -->
<g id="node1" class="node">
<title>foo</title>
<ellipse fill="none" stroke="black" cx="101.15" cy="-162" rx="27" ry="18"/>
<text text-anchor="middle" x="101.15" y="-158.3" font-family="Times,serif" font-size="14.00">foo</text>
</g>
<!-- method_a -->
<g id="node2" class="node">
<title>method_a</title>
<ellipse fill="none" stroke="black" cx="46.15" cy="-90" rx="46.29" ry="18"/>
<text text-anchor="middle" x="46.15" y="-86.3" font-family="Times,serif" font-size="14.00">method_a</text>
</g>
<!-- foo&#45;&gt;method_a -->
<g id="edge1" class="edge">
<title>foo&#45;&gt;method_a</title>
<path fill="none" stroke="black" d="M89.21,-145.81C82.3,-137.02 73.43,-125.73 65.54,-115.69"/>
<polygon fill="black" stroke="black" points="68.14,-113.33 59.21,-107.63 62.64,-117.65 68.14,-113.33"/>
</g>
<!-- method_d -->
<g id="node5" class="node">
<title>method_d</title>
<ellipse fill="none" stroke="black" cx="156.15" cy="-90" rx="46.29" ry="18"/>
<text text-anchor="middle" x="156.15" y="-86.3" font-family="Times,serif" font-size="14.00">method_d</text>
</g>
<!-- foo&#45;&gt;method_d -->
<g id="edge4" class="edge">
<title>foo&#45;&gt;method_d</title>
<path fill="none" stroke="black" d="M113.08,-145.81C119.99,-137.02 128.86,-125.73 136.75,-115.69"/>
<polygon fill="black" stroke="black" points="139.66,-117.65 143.08,-107.63 134.15,-113.33 139.66,-117.65"/>
</g>
<!-- method_b -->
<g id="node3" class="node">
<title>method_b</title>
<ellipse fill="none" stroke="black" cx="46.15" cy="-18" rx="46.29" ry="18"/>
<text text-anchor="middle" x="46.15" y="-14.3" font-family="Times,serif" font-size="14.00">method_b</text>
</g>
<!-- method_a&#45;&gt;method_b -->
<g id="edge2" class="edge">
<title>method_a&#45;&gt;method_b</title>
<path fill="none" stroke="black" d="M46.15,-71.7C46.15,-63.98 46.15,-54.71 46.15,-46.11"/>
<polygon fill="black" stroke="black" points="49.65,-46.1 46.15,-36.1 42.65,-46.1 49.65,-46.1"/>
</g>
<!-- method_c -->
<g id="node4" class="node">
<title>method_c</title>
<ellipse fill="none" stroke="black" cx="156.15" cy="-18" rx="46.29" ry="18"/>
<text text-anchor="middle" x="156.15" y="-14.3" font-family="Times,serif" font-size="14.00">method_c</text>
</g>
<!-- method_a&#45;&gt;method_c -->
<g id="edge3" class="edge">
<title>method_a&#45;&gt;method_c</title>
<path fill="none" stroke="black" d="M69.21,-74.33C85.19,-64.15 106.69,-50.47 124.31,-39.26"/>
<polygon fill="black" stroke="black" points="126.56,-41.98 133.12,-33.65 122.8,-36.07 126.56,-41.98"/>
</g>
<!-- method_d&#45;&gt;method_c -->
<g id="edge5" class="edge">
<title>method_d&#45;&gt;method_c</title>
<path fill="none" stroke="black" d="M156.15,-71.7C156.15,-63.98 156.15,-54.71 156.15,-46.11"/>
<polygon fill="black" stroke="black" points="159.65,-46.1 156.15,-36.1 152.65,-46.1 159.65,-46.1"/>
</g>
</g>
</svg>
