<?xml version="1.0" encoding="UTF-8" standalone="no"?>
<!DOCTYPE svg PUBLIC "-//W3C//DTD SVG 1.1//EN"
 "http://www.w3.org/Graphics/SVG/1.1/DTD/svg11.dtd">
<!-- Generated by graphviz version 3.0.0 (20220226.1711)
 -->
<!-- Pages: 1 -->
<svg width="543pt" height="332pt"
 viewBox="0.00 0.00 542.89 332.00" xmlns="http://www.w3.org/2000/svg" xmlns:xlink="http://www.w3.org/1999/xlink">
<g id="graph0" class="graph" transform="scale(1 1) rotate(0) translate(4 328)">
<polygon fill="white" stroke="transparent" points="-4,4 -4,-328 538.89,-328 538.89,4 -4,4"/>
<!-- 4407682144 -->
<g id="node1" class="node">
<title>4407682144</title>
<ellipse fill="none" stroke="black" cx="245.54" cy="-306" rx="73.39" ry="18"/>
<text text-anchor="start" x="197.04" y="-302.3" font-family="Times,serif" font-size="14.00">class &#39;ast.Module&#39;</text>
</g>
<!-- 4407683152 -->
<g id="node2" class="node">
<title>4407683152</title>
<ellipse fill="none" stroke="black" cx="245.54" cy="-234" rx="64.19" ry="18"/>
<text text-anchor="middle" x="245.54" y="-230.3" font-family="Times,serif" font-size="14.00">0: FunctionDef</text>
</g>
<!-- 4407682144&#45;&gt;4407683152 -->
<g id="edge1" class="edge">
<title>4407682144&#45;&gt;4407683152</title>
<path fill="none" stroke="black" d="M245.54,-287.7C245.54,-279.98 245.54,-270.71 245.54,-262.11"/>
<polygon fill="black" stroke="black" points="249.04,-262.1 245.54,-252.1 242.04,-262.1 249.04,-262.1"/>
</g>
<!-- 4407683104 -->
<g id="node3" class="node">
<title>4407683104</title>
<ellipse fill="none" stroke="black" cx="82.54" cy="-162" rx="82.59" ry="18"/>
<text text-anchor="start" x="27.04" y="-158.3" font-family="Times,serif" font-size="14.00">class &#39;ast.arguments&#39;</text>
</g>
<!-- 4407683152&#45;&gt;4407683104 -->
<g id="edge2" class="edge">
<title>4407683152&#45;&gt;4407683104</title>
<path fill="none" stroke="black" d="M211.77,-218.5C187.44,-208.05 154.34,-193.83 127.73,-182.41"/>
<polygon fill="black" stroke="black" points="128.82,-179.06 118.25,-178.33 126.06,-185.5 128.82,-179.06"/>
</g>
<!-- 4407510592 -->
<g id="node4" class="node">
<title>4407510592</title>
<ellipse fill="none" stroke="black" cx="245.54" cy="-162" rx="62.29" ry="18"/>
<text text-anchor="start" x="205.54" y="-158.3" font-family="Times,serif" font-size="14.00">class &#39;ast.Expr&#39;</text>
</g>
<!-- 4407683152&#45;&gt;4407510592 -->
<g id="edge3" class="edge">
<title>4407683152&#45;&gt;4407510592</title>
<path fill="none" stroke="black" d="M245.54,-215.7C245.54,-207.98 245.54,-198.71 245.54,-190.11"/>
<polygon fill="black" stroke="black" points="249.04,-190.1 245.54,-180.1 242.04,-190.1 249.04,-190.1"/>
</g>
<!-- 4407681328 -->
<g id="node8" class="node">
<title>4407681328</title>
<ellipse fill="none" stroke="black" cx="367.54" cy="-162" rx="37.09" ry="18"/>
<text text-anchor="middle" x="367.54" y="-158.3" font-family="Times,serif" font-size="14.00">1: Expr</text>
</g>
<!-- 4407683152&#45;&gt;4407681328 -->
<g id="edge7" class="edge">
<title>4407683152&#45;&gt;4407681328</title>
<path fill="none" stroke="black" d="M272.62,-217.46C291.16,-206.82 315.84,-192.67 335.39,-181.45"/>
<polygon fill="black" stroke="black" points="337.31,-184.38 344.24,-176.37 333.83,-178.31 337.31,-184.38"/>
</g>
<!-- 4407510208 -->
<g id="node5" class="node">
<title>4407510208</title>
<ellipse fill="none" stroke="black" cx="236.54" cy="-90" rx="59.59" ry="18"/>
<text text-anchor="start" x="198.54" y="-86.3" font-family="Times,serif" font-size="14.00">class &#39;ast.Call&#39;</text>
</g>
<!-- 4407510592&#45;&gt;4407510208 -->
<g id="edge4" class="edge">
<title>4407510592&#45;&gt;4407510208</title>
<path fill="none" stroke="black" d="M243.32,-143.7C242.33,-135.98 241.13,-126.71 240.03,-118.11"/>
<polygon fill="black" stroke="black" points="243.49,-117.58 238.74,-108.1 236.55,-118.47 243.49,-117.58"/>
</g>
<!-- 4407509392 -->
<g id="node6" class="node">
<title>4407509392</title>
<ellipse fill="none" stroke="black" cx="74.54" cy="-18" rx="66.89" ry="18"/>
<text text-anchor="start" x="31.04" y="-14.3" font-family="Times,serif" font-size="14.00">class &#39;ast.Name&#39;</text>
</g>
<!-- 4407510208&#45;&gt;4407509392 -->
<g id="edge5" class="edge">
<title>4407510208&#45;&gt;4407509392</title>
<path fill="none" stroke="black" d="M203.76,-74.83C178.95,-64.11 144.65,-49.29 117.62,-37.61"/>
<polygon fill="black" stroke="black" points="118.96,-34.38 108.39,-33.63 116.18,-40.81 118.96,-34.38"/>
</g>
<!-- 4407510400 -->
<g id="node7" class="node">
<title>4407510400</title>
<ellipse fill="none" stroke="black" cx="236.54" cy="-18" rx="76.89" ry="18"/>
<text text-anchor="start" x="185.54" y="-14.3" font-family="Times,serif" font-size="14.00">class &#39;ast.Constant&#39;</text>
</g>
<!-- 4407510208&#45;&gt;4407510400 -->
<g id="edge6" class="edge">
<title>4407510208&#45;&gt;4407510400</title>
<path fill="none" stroke="black" d="M236.54,-71.7C236.54,-63.98 236.54,-54.71 236.54,-46.11"/>
<polygon fill="black" stroke="black" points="240.04,-46.1 236.54,-36.1 233.04,-46.1 240.04,-46.1"/>
</g>
<!-- 4407681376 -->
<g id="node9" class="node">
<title>4407681376</title>
<ellipse fill="none" stroke="black" cx="372.54" cy="-90" rx="34.39" ry="18"/>
<text text-anchor="middle" x="372.54" y="-86.3" font-family="Times,serif" font-size="14.00">1: Call</text>
</g>
<!-- 4407681328&#45;&gt;4407681376 -->
<g id="edge8" class="edge">
<title>4407681328&#45;&gt;4407681376</title>
<path fill="none" stroke="black" d="M368.78,-143.7C369.33,-135.98 369.99,-126.71 370.61,-118.11"/>
<polygon fill="black" stroke="black" points="374.1,-118.33 371.32,-108.1 367.12,-117.83 374.1,-118.33"/>
</g>
<!-- 4407681808 -->
<g id="node10" class="node">
<title>4407681808</title>
<ellipse fill="none" stroke="black" cx="372.54" cy="-18" rx="41.69" ry="18"/>
<text text-anchor="middle" x="372.54" y="-14.3" font-family="Times,serif" font-size="14.00">1: Name</text>
</g>
<!-- 4407681376&#45;&gt;4407681808 -->
<g id="edge9" class="edge">
<title>4407681376&#45;&gt;4407681808</title>
<path fill="none" stroke="black" d="M372.54,-71.7C372.54,-63.98 372.54,-54.71 372.54,-46.11"/>
<polygon fill="black" stroke="black" points="376.04,-46.1 372.54,-36.1 369.04,-46.1 376.04,-46.1"/>
</g>
<!-- 4407681904 -->
<g id="node11" class="node">
<title>4407681904</title>
<ellipse fill="none" stroke="black" cx="483.54" cy="-18" rx="51.19" ry="18"/>
<text text-anchor="middle" x="483.54" y="-14.3" font-family="Times,serif" font-size="14.00">1: Constant</text>
</g>
<!-- 4407681376&#45;&gt;4407681904 -->
<g id="edge10" class="edge">
<title>4407681376&#45;&gt;4407681904</title>
<path fill="none" stroke="black" d="M393.68,-75.67C409.9,-65.44 432.57,-51.15 451.08,-39.47"/>
<polygon fill="black" stroke="black" points="453.2,-42.28 459.79,-33.98 449.46,-36.35 453.2,-42.28"/>
</g>
</g>
</svg>
