<?xml version="1.0" encoding="UTF-8" standalone="no"?>
<!DOCTYPE svg PUBLIC "-//W3C//DTD SVG 1.1//EN"
 "http://www.w3.org/Graphics/SVG/1.1/DTD/svg11.dtd">
<!-- Generated by graphviz version 3.0.0 (20220226.1711)
 -->
<!-- Pages: 1 -->
<svg width="765pt" height="404pt"
 viewBox="0.00 0.00 765.14 404.00" xmlns="http://www.w3.org/2000/svg" xmlns:xlink="http://www.w3.org/1999/xlink">
<g id="graph0" class="graph" transform="scale(1 1) rotate(0) translate(4 400)">
<polygon fill="white" stroke="transparent" points="-4,4 -4,-400 761.14,-400 761.14,4 -4,4"/>
<!-- 4407512320 -->
<g id="node1" class="node">
<title>4407512320</title>
<ellipse fill="none" stroke="black" cx="232.54" cy="-378" rx="73.39" ry="18"/>
<text text-anchor="start" x="184.04" y="-374.3" font-family="Times,serif" font-size="14.00">class &#39;ast.Module&#39;</text>
</g>
<!-- 4407512272 -->
<g id="node2" class="node">
<title>4407512272</title>
<ellipse fill="none" stroke="black" cx="232.54" cy="-306" rx="64.19" ry="18"/>
<text text-anchor="middle" x="232.54" y="-302.3" font-family="Times,serif" font-size="14.00">0: FunctionDef</text>
</g>
<!-- 4407512320&#45;&gt;4407512272 -->
<g id="edge1" class="edge">
<title>4407512320&#45;&gt;4407512272</title>
<path fill="none" stroke="black" d="M232.54,-359.7C232.54,-351.98 232.54,-342.71 232.54,-334.11"/>
<polygon fill="black" stroke="black" points="236.04,-334.1 232.54,-324.1 229.04,-334.1 236.04,-334.1"/>
</g>
<!-- 4407512176 -->
<g id="node3" class="node">
<title>4407512176</title>
<ellipse fill="none" stroke="black" cx="82.54" cy="-234" rx="82.59" ry="18"/>
<text text-anchor="start" x="27.04" y="-230.3" font-family="Times,serif" font-size="14.00">class &#39;ast.arguments&#39;</text>
</g>
<!-- 4407512272&#45;&gt;4407512176 -->
<g id="edge2" class="edge">
<title>4407512272&#45;&gt;4407512176</title>
<path fill="none" stroke="black" d="M200.73,-290.15C178.71,-279.88 149.17,-266.09 125.12,-254.87"/>
<polygon fill="black" stroke="black" points="126.41,-251.61 115.87,-250.55 123.45,-257.95 126.41,-251.61"/>
</g>
<!-- 4407509248 -->
<g id="node5" class="node">
<title>4407509248</title>
<ellipse fill="none" stroke="black" cx="232.54" cy="-234" rx="27" ry="18"/>
<text text-anchor="middle" x="232.54" y="-230.3" font-family="Times,serif" font-size="14.00">1: If</text>
</g>
<!-- 4407512272&#45;&gt;4407509248 -->
<g id="edge4" class="edge">
<title>4407512272&#45;&gt;4407509248</title>
<path fill="none" stroke="black" d="M232.54,-287.7C232.54,-279.98 232.54,-270.71 232.54,-262.11"/>
<polygon fill="black" stroke="black" points="236.04,-262.1 232.54,-252.1 229.04,-262.1 236.04,-262.1"/>
</g>
<!-- 4407510592 -->
<g id="node11" class="node">
<title>4407510592</title>
<ellipse fill="none" stroke="black" cx="490.54" cy="-234" rx="27" ry="18"/>
<text text-anchor="middle" x="490.54" y="-230.3" font-family="Times,serif" font-size="14.00">4: If</text>
</g>
<!-- 4407512272&#45;&gt;4407510592 -->
<g id="edge10" class="edge">
<title>4407512272&#45;&gt;4407510592</title>
<path fill="none" stroke="black" d="M277.19,-292.89C328.01,-279.1 409.92,-256.87 456.07,-244.35"/>
<polygon fill="black" stroke="black" points="457.16,-247.68 465.9,-241.69 455.33,-240.93 457.16,-247.68"/>
</g>
<!-- 4407512128 -->
<g id="node4" class="node">
<title>4407512128</title>
<ellipse fill="none" stroke="black" cx="59.54" cy="-162" rx="31.4" ry="18"/>
<text text-anchor="middle" x="59.54" y="-158.3" font-family="Times,serif" font-size="14.00">0: arg</text>
</g>
<!-- 4407512176&#45;&gt;4407512128 -->
<g id="edge3" class="edge">
<title>4407512176&#45;&gt;4407512128</title>
<path fill="none" stroke="black" d="M76.86,-215.7C74.29,-207.9 71.21,-198.51 68.36,-189.83"/>
<polygon fill="black" stroke="black" points="71.61,-188.51 65.16,-180.1 64.96,-190.7 71.61,-188.51"/>
</g>
<!-- 4407509392 -->
<g id="node6" class="node">
<title>4407509392</title>
<ellipse fill="none" stroke="black" cx="161.54" cy="-162" rx="52.79" ry="18"/>
<text text-anchor="middle" x="161.54" y="-158.3" font-family="Times,serif" font-size="14.00">1: Compare</text>
</g>
<!-- 4407509248&#45;&gt;4407509392 -->
<g id="edge5" class="edge">
<title>4407509248&#45;&gt;4407509392</title>
<path fill="none" stroke="black" d="M217.83,-218.5C208.39,-209.19 195.93,-196.9 185.13,-186.25"/>
<polygon fill="black" stroke="black" points="187.55,-183.73 177.97,-179.2 182.64,-188.71 187.55,-183.73"/>
</g>
<!-- 4407510736 -->
<g id="node10" class="node">
<title>4407510736</title>
<ellipse fill="none" stroke="black" cx="276.54" cy="-162" rx="44.39" ry="18"/>
<text text-anchor="middle" x="276.54" y="-158.3" font-family="Times,serif" font-size="14.00">2: Return</text>
</g>
<!-- 4407509248&#45;&gt;4407510736 -->
<g id="edge9" class="edge">
<title>4407509248&#45;&gt;4407510736</title>
<path fill="none" stroke="black" d="M242.53,-217.12C247.83,-208.68 254.48,-198.1 260.48,-188.55"/>
<polygon fill="black" stroke="black" points="263.63,-190.13 265.98,-179.8 257.7,-186.4 263.63,-190.13"/>
</g>
<!-- 4407510208 -->
<g id="node7" class="node">
<title>4407510208</title>
<ellipse fill="none" stroke="black" cx="44.54" cy="-90" rx="41.69" ry="18"/>
<text text-anchor="middle" x="44.54" y="-86.3" font-family="Times,serif" font-size="14.00">1: Name</text>
</g>
<!-- 4407509392&#45;&gt;4407510208 -->
<g id="edge6" class="edge">
<title>4407509392&#45;&gt;4407510208</title>
<path fill="none" stroke="black" d="M136.44,-145.98C119.02,-135.56 95.64,-121.57 76.83,-110.32"/>
<polygon fill="black" stroke="black" points="78.39,-107.17 68.01,-105.04 74.79,-113.18 78.39,-107.17"/>
</g>
<!-- 4365586880 -->
<g id="node8" class="node">
<title>4365586880</title>
<ellipse fill="none" stroke="black" cx="280.54" cy="-90" rx="55.49" ry="18"/>
<text text-anchor="start" x="246.04" y="-86.3" font-family="Times,serif" font-size="14.00">class &#39;ast.Eq&#39;</text>
</g>
<!-- 4407509392&#45;&gt;4365586880 -->
<g id="edge7" class="edge">
<title>4407509392&#45;&gt;4365586880</title>
<path fill="none" stroke="black" d="M186.78,-146.15C204.1,-135.97 227.28,-122.33 246.27,-111.16"/>
<polygon fill="black" stroke="black" points="248.09,-114.15 254.93,-106.07 244.54,-108.12 248.09,-114.15"/>
</g>
<!-- 4407510400 -->
<g id="node9" class="node">
<title>4407510400</title>
<ellipse fill="none" stroke="black" cx="155.54" cy="-90" rx="51.19" ry="18"/>
<text text-anchor="middle" x="155.54" y="-86.3" font-family="Times,serif" font-size="14.00">1: Constant</text>
</g>
<!-- 4407509392&#45;&gt;4407510400 -->
<g id="edge8" class="edge">
<title>4407509392&#45;&gt;4407510400</title>
<path fill="none" stroke="black" d="M160.06,-143.7C159.4,-135.98 158.6,-126.71 157.87,-118.11"/>
<polygon fill="black" stroke="black" points="161.35,-117.77 157.01,-108.1 154.38,-118.37 161.35,-117.77"/>
</g>
<!-- 4407510496 -->
<g id="node12" class="node">
<title>4407510496</title>
<ellipse fill="none" stroke="black" cx="409.54" cy="-162" rx="52.79" ry="18"/>
<text text-anchor="middle" x="409.54" y="-158.3" font-family="Times,serif" font-size="14.00">4: Compare</text>
</g>
<!-- 4407510592&#45;&gt;4407510496 -->
<g id="edge11" class="edge">
<title>4407510592&#45;&gt;4407510496</title>
<path fill="none" stroke="black" d="M474.54,-219.17C463.47,-209.6 448.48,-196.65 435.69,-185.6"/>
<polygon fill="black" stroke="black" points="437.92,-182.9 428.06,-179.01 433.34,-188.19 437.92,-182.9"/>
</g>
<!-- 4407511024 -->
<g id="node18" class="node">
<title>4407511024</title>
<ellipse fill="none" stroke="black" cx="571.54" cy="-162" rx="37.09" ry="18"/>
<text text-anchor="middle" x="571.54" y="-158.3" font-family="Times,serif" font-size="14.00">5: Expr</text>
</g>
<!-- 4407510592&#45;&gt;4407511024 -->
<g id="edge18" class="edge">
<title>4407510592&#45;&gt;4407511024</title>
<path fill="none" stroke="black" d="M506.55,-219.17C517.92,-209.34 533.43,-195.93 546.45,-184.69"/>
<polygon fill="black" stroke="black" points="548.89,-187.2 554.17,-178.01 544.32,-181.9 548.89,-187.2"/>
</g>
<!-- 4407511120 -->
<g id="node21" class="node">
<title>4407511120</title>
<ellipse fill="none" stroke="black" cx="695.54" cy="-162" rx="37.09" ry="18"/>
<text text-anchor="middle" x="695.54" y="-158.3" font-family="Times,serif" font-size="14.00">7: Expr</text>
</g>
<!-- 4407510592&#45;&gt;4407511120 -->
<g id="edge21" class="edge">
<title>4407510592&#45;&gt;4407511120</title>
<path fill="none" stroke="black" d="M514.06,-224.97C548.82,-213.1 614.32,-190.73 656.4,-176.37"/>
<polygon fill="black" stroke="black" points="657.71,-179.62 666.04,-173.07 655.44,-172.99 657.71,-179.62"/>
</g>
<!-- 4407510496&#45;&gt;4365586880 -->
<g id="edge16" class="edge">
<title>4407510496&#45;&gt;4365586880</title>
<path fill="none" stroke="black" d="M382.5,-146.33C363.45,-135.99 337.73,-122.03 316.89,-110.72"/>
<polygon fill="black" stroke="black" points="318.45,-107.59 307.99,-105.9 315.11,-113.74 318.45,-107.59"/>
</g>
<!-- 4407510832 -->
<g id="node13" class="node">
<title>4407510832</title>
<ellipse fill="none" stroke="black" cx="397.54" cy="-90" rx="43.59" ry="18"/>
<text text-anchor="middle" x="397.54" y="-86.3" font-family="Times,serif" font-size="14.00">4: BinOp</text>
</g>
<!-- 4407510496&#45;&gt;4407510832 -->
<g id="edge12" class="edge">
<title>4407510496&#45;&gt;4407510832</title>
<path fill="none" stroke="black" d="M406.58,-143.7C405.25,-135.98 403.66,-126.71 402.19,-118.11"/>
<polygon fill="black" stroke="black" points="405.61,-117.37 400.47,-108.1 398.71,-118.55 405.61,-117.37"/>
</g>
<!-- 4407512560 -->
<g id="node17" class="node">
<title>4407512560</title>
<ellipse fill="none" stroke="black" cx="510.54" cy="-90" rx="51.19" ry="18"/>
<text text-anchor="middle" x="510.54" y="-86.3" font-family="Times,serif" font-size="14.00">4: Constant</text>
</g>
<!-- 4407510496&#45;&gt;4407512560 -->
<g id="edge17" class="edge">
<title>4407510496&#45;&gt;4407512560</title>
<path fill="none" stroke="black" d="M431.96,-145.46C446.08,-135.68 464.5,-122.91 479.95,-112.2"/>
<polygon fill="black" stroke="black" points="481.96,-115.06 488.19,-106.49 477.98,-109.31 481.96,-115.06"/>
</g>
<!-- 4407512704 -->
<g id="node14" class="node">
<title>4407512704</title>
<ellipse fill="none" stroke="black" cx="249.54" cy="-18" rx="41.69" ry="18"/>
<text text-anchor="middle" x="249.54" y="-14.3" font-family="Times,serif" font-size="14.00">4: Name</text>
</g>
<!-- 4407510832&#45;&gt;4407512704 -->
<g id="edge13" class="edge">
<title>4407510832&#45;&gt;4407512704</title>
<path fill="none" stroke="black" d="M370.05,-76C346.3,-64.76 311.8,-48.45 285.8,-36.15"/>
<polygon fill="black" stroke="black" points="287.17,-32.93 276.64,-31.81 284.18,-39.25 287.17,-32.93"/>
</g>
<!-- 4365548656 -->
<g id="node15" class="node">
<title>4365548656</title>
<ellipse fill="none" stroke="black" cx="371.54" cy="-18" rx="62.29" ry="18"/>
<text text-anchor="start" x="331.54" y="-14.3" font-family="Times,serif" font-size="14.00">class &#39;ast.Mod&#39;</text>
</g>
<!-- 4407510832&#45;&gt;4365548656 -->
<g id="edge14" class="edge">
<title>4407510832&#45;&gt;4365548656</title>
<path fill="none" stroke="black" d="M391.25,-72.05C388.32,-64.18 384.77,-54.62 381.49,-45.79"/>
<polygon fill="black" stroke="black" points="384.72,-44.43 377.96,-36.28 378.16,-46.87 384.72,-44.43"/>
</g>
<!-- 4407512752 -->
<g id="node16" class="node">
<title>4407512752</title>
<ellipse fill="none" stroke="black" cx="503.54" cy="-18" rx="51.19" ry="18"/>
<text text-anchor="middle" x="503.54" y="-14.3" font-family="Times,serif" font-size="14.00">4: Constant</text>
</g>
<!-- 4407510832&#45;&gt;4407512752 -->
<g id="edge15" class="edge">
<title>4407510832&#45;&gt;4407512752</title>
<path fill="none" stroke="black" d="M419.76,-74.33C434.96,-64.29 455.33,-50.84 472.18,-39.71"/>
<polygon fill="black" stroke="black" points="474.2,-42.57 480.62,-34.14 470.35,-36.73 474.2,-42.57"/>
</g>
<!-- 4407510880 -->
<g id="node19" class="node">
<title>4407510880</title>
<ellipse fill="none" stroke="black" cx="614.54" cy="-90" rx="34.39" ry="18"/>
<text text-anchor="middle" x="614.54" y="-86.3" font-family="Times,serif" font-size="14.00">5: Call</text>
</g>
<!-- 4407511024&#45;&gt;4407510880 -->
<g id="edge19" class="edge">
<title>4407511024&#45;&gt;4407510880</title>
<path fill="none" stroke="black" d="M581.73,-144.41C586.93,-135.95 593.35,-125.49 599.14,-116.08"/>
<polygon fill="black" stroke="black" points="602.17,-117.82 604.43,-107.47 596.21,-114.16 602.17,-117.82"/>
</g>
<!-- 4407510976 -->
<g id="node20" class="node">
<title>4407510976</title>
<ellipse fill="none" stroke="black" cx="614.54" cy="-18" rx="41.69" ry="18"/>
<text text-anchor="middle" x="614.54" y="-14.3" font-family="Times,serif" font-size="14.00">5: Name</text>
</g>
<!-- 4407510880&#45;&gt;4407510976 -->
<g id="edge20" class="edge">
<title>4407510880&#45;&gt;4407510976</title>
<path fill="none" stroke="black" d="M614.54,-71.7C614.54,-63.98 614.54,-54.71 614.54,-46.11"/>
<polygon fill="black" stroke="black" points="618.04,-46.1 614.54,-36.1 611.04,-46.1 618.04,-46.1"/>
</g>
<!-- 4407511072 -->
<g id="node22" class="node">
<title>4407511072</title>
<ellipse fill="none" stroke="black" cx="708.54" cy="-90" rx="34.39" ry="18"/>
<text text-anchor="middle" x="708.54" y="-86.3" font-family="Times,serif" font-size="14.00">7: Call</text>
</g>
<!-- 4407511120&#45;&gt;4407511072 -->
<g id="edge22" class="edge">
<title>4407511120&#45;&gt;4407511072</title>
<path fill="none" stroke="black" d="M698.69,-144.05C700.12,-136.35 701.85,-127.03 703.46,-118.36"/>
<polygon fill="black" stroke="black" points="706.95,-118.75 705.33,-108.28 700.07,-117.47 706.95,-118.75"/>
</g>
<!-- 4407509056 -->
<g id="node23" class="node">
<title>4407509056</title>
<ellipse fill="none" stroke="black" cx="715.54" cy="-18" rx="41.69" ry="18"/>
<text text-anchor="middle" x="715.54" y="-14.3" font-family="Times,serif" font-size="14.00">7: Name</text>
</g>
<!-- 4407511072&#45;&gt;4407509056 -->
<g id="edge23" class="edge">
<title>4407511072&#45;&gt;4407509056</title>
<path fill="none" stroke="black" d="M710.27,-71.7C711.04,-63.98 711.97,-54.71 712.83,-46.11"/>
<polygon fill="black" stroke="black" points="716.32,-46.4 713.83,-36.1 709.35,-45.71 716.32,-46.4"/>
</g>
</g>
</svg>
