<?xml version="1.0" encoding="UTF-8" standalone="no"?>
<!DOCTYPE svg PUBLIC "-//W3C//DTD SVG 1.1//EN"
 "http://www.w3.org/Graphics/SVG/1.1/DTD/svg11.dtd">
<!-- Generated by graphviz version 3.0.0 (20220226.1711)
 -->
<!-- Pages: 1 -->
<svg width="1850pt" height="548pt"
 viewBox="0.00 0.00 1849.69 548.00" xmlns="http://www.w3.org/2000/svg" xmlns:xlink="http://www.w3.org/1999/xlink">
<g id="graph0" class="graph" transform="scale(1 1) rotate(0) translate(4 544)">
<polygon fill="white" stroke="transparent" points="-4,4 -4,-544 1845.69,-544 1845.69,4 -4,4"/>
<!-- 4407509728 -->
<g id="node1" class="node">
<title>4407509728</title>
<ellipse fill="none" stroke="black" cx="633.54" cy="-522" rx="73.39" ry="18"/>
<text text-anchor="start" x="585.04" y="-518.3" font-family="Times,serif" font-size="14.00">class &#39;ast.Module&#39;</text>
</g>
<!-- 4407509632 -->
<g id="node2" class="node">
<title>4407509632</title>
<ellipse fill="none" stroke="black" cx="633.54" cy="-450" rx="51.99" ry="18"/>
<text text-anchor="middle" x="633.54" y="-446.3" font-family="Times,serif" font-size="14.00">1: ClassDef</text>
</g>
<!-- 4407509728&#45;&gt;4407509632 -->
<g id="edge1" class="edge">
<title>4407509728&#45;&gt;4407509632</title>
<path fill="none" stroke="black" d="M633.54,-503.7C633.54,-495.98 633.54,-486.71 633.54,-478.11"/>
<polygon fill="black" stroke="black" points="637.04,-478.1 633.54,-468.1 630.04,-478.1 637.04,-478.1"/>
</g>
<!-- 4407509824 -->
<g id="node3" class="node">
<title>4407509824</title>
<ellipse fill="none" stroke="black" cx="256.54" cy="-378" rx="64.19" ry="18"/>
<text text-anchor="middle" x="256.54" y="-374.3" font-family="Times,serif" font-size="14.00">3: FunctionDef</text>
</g>
<!-- 4407509632&#45;&gt;4407509824 -->
<g id="edge2" class="edge">
<title>4407509632&#45;&gt;4407509824</title>
<path fill="none" stroke="black" d="M588.82,-440.7C521.71,-428.24 394.75,-404.66 318.68,-390.54"/>
<polygon fill="black" stroke="black" points="319.22,-387.08 308.75,-388.69 317.95,-393.96 319.22,-387.08"/>
</g>
<!-- 4407510352 -->
<g id="node11" class="node">
<title>4407510352</title>
<ellipse fill="none" stroke="black" cx="560.54" cy="-378" rx="64.19" ry="18"/>
<text text-anchor="middle" x="560.54" y="-374.3" font-family="Times,serif" font-size="14.00">6: FunctionDef</text>
</g>
<!-- 4407509632&#45;&gt;4407510352 -->
<g id="edge10" class="edge">
<title>4407509632&#45;&gt;4407510352</title>
<path fill="none" stroke="black" d="M616.61,-432.76C607.19,-423.73 595.3,-412.33 584.89,-402.35"/>
<polygon fill="black" stroke="black" points="587.28,-399.78 577.63,-395.39 582.43,-404.84 587.28,-399.78"/>
</g>
<!-- 4407511984 -->
<g id="node17" class="node">
<title>4407511984</title>
<ellipse fill="none" stroke="black" cx="707.54" cy="-378" rx="64.19" ry="18"/>
<text text-anchor="middle" x="707.54" y="-374.3" font-family="Times,serif" font-size="14.00">9: FunctionDef</text>
</g>
<!-- 4407509632&#45;&gt;4407511984 -->
<g id="edge16" class="edge">
<title>4407509632&#45;&gt;4407511984</title>
<path fill="none" stroke="black" d="M650.71,-432.76C660.26,-423.73 672.31,-412.33 682.86,-402.35"/>
<polygon fill="black" stroke="black" points="685.36,-404.8 690.22,-395.39 680.55,-399.72 685.36,-404.8"/>
</g>
<!-- 4407512560 -->
<g id="node30" class="node">
<title>4407512560</title>
<ellipse fill="none" stroke="black" cx="1165.54" cy="-378" rx="68.79" ry="18"/>
<text text-anchor="middle" x="1165.54" y="-374.3" font-family="Times,serif" font-size="14.00">13: FunctionDef</text>
</g>
<!-- 4407509632&#45;&gt;4407512560 -->
<g id="edge30" class="edge">
<title>4407509632&#45;&gt;4407512560</title>
<path fill="none" stroke="black" d="M681.22,-442.73C775.33,-430.34 985.33,-402.71 1095.31,-388.24"/>
<polygon fill="black" stroke="black" points="1095.86,-391.7 1105.31,-386.92 1094.94,-384.76 1095.86,-391.7"/>
</g>
<!-- 4407511648 -->
<g id="node4" class="node">
<title>4407511648</title>
<ellipse fill="none" stroke="black" cx="82.54" cy="-306" rx="82.59" ry="18"/>
<text text-anchor="start" x="27.04" y="-302.3" font-family="Times,serif" font-size="14.00">class &#39;ast.arguments&#39;</text>
</g>
<!-- 4407509824&#45;&gt;4407511648 -->
<g id="edge3" class="edge">
<title>4407509824&#45;&gt;4407511648</title>
<path fill="none" stroke="black" d="M221.33,-362.83C194.92,-352.21 158.5,-337.56 129.6,-325.93"/>
<polygon fill="black" stroke="black" points="130.69,-322.6 120.11,-322.11 128.08,-329.09 130.69,-322.6"/>
</g>
<!-- 4407509776 -->
<g id="node6" class="node">
<title>4407509776</title>
<ellipse fill="none" stroke="black" cx="256.54" cy="-306" rx="44.39" ry="18"/>
<text text-anchor="middle" x="256.54" y="-302.3" font-family="Times,serif" font-size="14.00">4: Assign</text>
</g>
<!-- 4407509824&#45;&gt;4407509776 -->
<g id="edge5" class="edge">
<title>4407509824&#45;&gt;4407509776</title>
<path fill="none" stroke="black" d="M256.54,-359.7C256.54,-351.98 256.54,-342.71 256.54,-334.11"/>
<polygon fill="black" stroke="black" points="260.04,-334.1 256.54,-324.1 253.04,-334.1 260.04,-334.1"/>
</g>
<!-- 4407512848 -->
<g id="node5" class="node">
<title>4407512848</title>
<ellipse fill="none" stroke="black" cx="67.54" cy="-234" rx="31.4" ry="18"/>
<text text-anchor="middle" x="67.54" y="-230.3" font-family="Times,serif" font-size="14.00">3: arg</text>
</g>
<!-- 4407511648&#45;&gt;4407512848 -->
<g id="edge4" class="edge">
<title>4407511648&#45;&gt;4407512848</title>
<path fill="none" stroke="black" d="M78.83,-287.7C77.18,-279.98 75.2,-270.71 73.35,-262.11"/>
<polygon fill="black" stroke="black" points="76.73,-261.15 71.21,-252.1 69.88,-262.62 76.73,-261.15"/>
</g>
<!-- 4407512608 -->
<g id="node7" class="node">
<title>4407512608</title>
<ellipse fill="none" stroke="black" cx="168.54" cy="-234" rx="51.19" ry="18"/>
<text text-anchor="middle" x="168.54" y="-230.3" font-family="Times,serif" font-size="14.00">4: Attribute</text>
</g>
<!-- 4407509776&#45;&gt;4407512608 -->
<g id="edge6" class="edge">
<title>4407509776&#45;&gt;4407512608</title>
<path fill="none" stroke="black" d="M237.01,-289.46C225.02,-279.93 209.47,-267.56 196.22,-257.02"/>
<polygon fill="black" stroke="black" points="198.33,-254.22 188.32,-250.73 193.97,-259.7 198.33,-254.22"/>
</g>
<!-- 4407510448 -->
<g id="node10" class="node">
<title>4407510448</title>
<ellipse fill="none" stroke="black" cx="289.54" cy="-234" rx="51.19" ry="18"/>
<text text-anchor="middle" x="289.54" y="-230.3" font-family="Times,serif" font-size="14.00">4: Constant</text>
</g>
<!-- 4407509776&#45;&gt;4407510448 -->
<g id="edge9" class="edge">
<title>4407509776&#45;&gt;4407510448</title>
<path fill="none" stroke="black" d="M264.53,-288.05C268.34,-279.97 272.99,-270.12 277.23,-261.11"/>
<polygon fill="black" stroke="black" points="280.53,-262.33 281.63,-251.79 274.2,-259.34 280.53,-262.33"/>
</g>
<!-- 4407511360 -->
<g id="node8" class="node">
<title>4407511360</title>
<ellipse fill="none" stroke="black" cx="168.54" cy="-162" rx="41.69" ry="18"/>
<text text-anchor="middle" x="168.54" y="-158.3" font-family="Times,serif" font-size="14.00">4: Name</text>
</g>
<!-- 4407512608&#45;&gt;4407511360 -->
<g id="edge7" class="edge">
<title>4407512608&#45;&gt;4407511360</title>
<path fill="none" stroke="black" d="M168.54,-215.7C168.54,-207.98 168.54,-198.71 168.54,-190.11"/>
<polygon fill="black" stroke="black" points="172.04,-190.1 168.54,-180.1 165.04,-190.1 172.04,-190.1"/>
</g>
<!-- 4365547696 -->
<g id="node9" class="node">
<title>4365547696</title>
<ellipse fill="none" stroke="black" cx="661.54" cy="-90" rx="63.89" ry="18"/>
<text text-anchor="start" x="620.54" y="-86.3" font-family="Times,serif" font-size="14.00">class &#39;ast.Store&#39;</text>
</g>
<!-- 4407512608&#45;&gt;4365547696 -->
<g id="edge8" class="edge">
<title>4407512608&#45;&gt;4365547696</title>
<path fill="none" stroke="black" d="M206.82,-221.98C294.2,-196.81 508.51,-135.08 608.53,-106.27"/>
<polygon fill="black" stroke="black" points="609.78,-109.55 618.42,-103.42 607.84,-102.83 609.78,-109.55"/>
</g>
<!-- 4407512464 -->
<g id="node12" class="node">
<title>4407512464</title>
<ellipse fill="none" stroke="black" cx="416.54" cy="-306" rx="82.59" ry="18"/>
<text text-anchor="start" x="361.04" y="-302.3" font-family="Times,serif" font-size="14.00">class &#39;ast.arguments&#39;</text>
</g>
<!-- 4407510352&#45;&gt;4407512464 -->
<g id="edge11" class="edge">
<title>4407510352&#45;&gt;4407512464</title>
<path fill="none" stroke="black" d="M530,-362.15C509.03,-351.96 480.95,-338.31 457.96,-327.13"/>
<polygon fill="black" stroke="black" points="459.31,-323.9 448.79,-322.67 456.25,-330.19 459.31,-323.9"/>
</g>
<!-- 4407511456 -->
<g id="node15" class="node">
<title>4407511456</title>
<ellipse fill="none" stroke="black" cx="561.54" cy="-306" rx="44.39" ry="18"/>
<text text-anchor="middle" x="561.54" y="-302.3" font-family="Times,serif" font-size="14.00">7: Return</text>
</g>
<!-- 4407510352&#45;&gt;4407511456 -->
<g id="edge14" class="edge">
<title>4407510352&#45;&gt;4407511456</title>
<path fill="none" stroke="black" d="M560.79,-359.7C560.9,-351.98 561.03,-342.71 561.16,-334.11"/>
<polygon fill="black" stroke="black" points="564.66,-334.15 561.3,-324.1 557.66,-334.05 564.66,-334.15"/>
</g>
<!-- 4407511312 -->
<g id="node13" class="node">
<title>4407511312</title>
<ellipse fill="none" stroke="black" cx="390.54" cy="-234" rx="31.4" ry="18"/>
<text text-anchor="middle" x="390.54" y="-230.3" font-family="Times,serif" font-size="14.00">6: arg</text>
</g>
<!-- 4407512464&#45;&gt;4407511312 -->
<g id="edge12" class="edge">
<title>4407512464&#45;&gt;4407511312</title>
<path fill="none" stroke="black" d="M410.12,-287.7C407.19,-279.81 403.66,-270.3 400.4,-261.55"/>
<polygon fill="black" stroke="black" points="403.66,-260.26 396.9,-252.1 397.1,-262.7 403.66,-260.26"/>
</g>
<!-- 4407509968 -->
<g id="node14" class="node">
<title>4407509968</title>
<ellipse fill="none" stroke="black" cx="470.54" cy="-234" rx="31.4" ry="18"/>
<text text-anchor="middle" x="470.54" y="-230.3" font-family="Times,serif" font-size="14.00">6: arg</text>
</g>
<!-- 4407512464&#45;&gt;4407509968 -->
<g id="edge13" class="edge">
<title>4407512464&#45;&gt;4407509968</title>
<path fill="none" stroke="black" d="M429.61,-288.05C436.37,-279.29 444.74,-268.45 452.14,-258.86"/>
<polygon fill="black" stroke="black" points="454.99,-260.89 458.33,-250.83 449.45,-256.61 454.99,-260.89"/>
</g>
<!-- 4407511168 -->
<g id="node16" class="node">
<title>4407511168</title>
<ellipse fill="none" stroke="black" cx="561.54" cy="-234" rx="41.69" ry="18"/>
<text text-anchor="middle" x="561.54" y="-230.3" font-family="Times,serif" font-size="14.00">7: Name</text>
</g>
<!-- 4407511456&#45;&gt;4407511168 -->
<g id="edge15" class="edge">
<title>4407511456&#45;&gt;4407511168</title>
<path fill="none" stroke="black" d="M561.54,-287.7C561.54,-279.98 561.54,-270.71 561.54,-262.11"/>
<polygon fill="black" stroke="black" points="565.04,-262.1 561.54,-252.1 558.04,-262.1 565.04,-262.1"/>
</g>
<!-- 4407510688 -->
<g id="node18" class="node">
<title>4407510688</title>
<ellipse fill="none" stroke="black" cx="707.54" cy="-306" rx="82.59" ry="18"/>
<text text-anchor="start" x="652.04" y="-302.3" font-family="Times,serif" font-size="14.00">class &#39;ast.arguments&#39;</text>
</g>
<!-- 4407511984&#45;&gt;4407510688 -->
<g id="edge17" class="edge">
<title>4407511984&#45;&gt;4407510688</title>
<path fill="none" stroke="black" d="M707.54,-359.7C707.54,-351.98 707.54,-342.71 707.54,-334.11"/>
<polygon fill="black" stroke="black" points="711.04,-334.1 707.54,-324.1 704.04,-334.1 711.04,-334.1"/>
</g>
<!-- 4407512128 -->
<g id="node21" class="node">
<title>4407512128</title>
<ellipse fill="none" stroke="black" cx="838.54" cy="-306" rx="30.59" ry="18"/>
<text text-anchor="middle" x="838.54" y="-302.3" font-family="Times,serif" font-size="14.00">10: If</text>
</g>
<!-- 4407511984&#45;&gt;4407512128 -->
<g id="edge20" class="edge">
<title>4407511984&#45;&gt;4407512128</title>
<path fill="none" stroke="black" d="M735.97,-361.81C757.17,-350.48 786.1,-335.02 807.83,-323.41"/>
<polygon fill="black" stroke="black" points="809.49,-326.49 816.66,-318.69 806.19,-320.32 809.49,-326.49"/>
</g>
<!-- 4407509104 -->
<g id="node19" class="node">
<title>4407509104</title>
<ellipse fill="none" stroke="black" cx="652.54" cy="-234" rx="31.4" ry="18"/>
<text text-anchor="middle" x="652.54" y="-230.3" font-family="Times,serif" font-size="14.00">9: arg</text>
</g>
<!-- 4407510688&#45;&gt;4407509104 -->
<g id="edge18" class="edge">
<title>4407510688&#45;&gt;4407509104</title>
<path fill="none" stroke="black" d="M694.23,-288.05C687.34,-279.29 678.83,-268.45 671.29,-258.86"/>
<polygon fill="black" stroke="black" points="673.91,-256.53 664.98,-250.83 668.41,-260.86 673.91,-256.53"/>
</g>
<!-- 4407512032 -->
<g id="node20" class="node">
<title>4407512032</title>
<ellipse fill="none" stroke="black" cx="732.54" cy="-234" rx="31.4" ry="18"/>
<text text-anchor="middle" x="732.54" y="-230.3" font-family="Times,serif" font-size="14.00">9: arg</text>
</g>
<!-- 4407510688&#45;&gt;4407512032 -->
<g id="edge19" class="edge">
<title>4407510688&#45;&gt;4407512032</title>
<path fill="none" stroke="black" d="M713.72,-287.7C716.54,-279.81 719.93,-270.3 723.06,-261.55"/>
<polygon fill="black" stroke="black" points="726.37,-262.7 726.43,-252.1 719.77,-260.34 726.37,-262.7"/>
</g>
<!-- 4407509152 -->
<g id="node22" class="node">
<title>4407509152</title>
<ellipse fill="none" stroke="black" cx="838.54" cy="-234" rx="57.39" ry="18"/>
<text text-anchor="middle" x="838.54" y="-230.3" font-family="Times,serif" font-size="14.00">10: Compare</text>
</g>
<!-- 4407512128&#45;&gt;4407509152 -->
<g id="edge21" class="edge">
<title>4407512128&#45;&gt;4407509152</title>
<path fill="none" stroke="black" d="M838.54,-287.7C838.54,-279.98 838.54,-270.71 838.54,-262.11"/>
<polygon fill="black" stroke="black" points="842.04,-262.1 838.54,-252.1 835.04,-262.1 842.04,-262.1"/>
</g>
<!-- 4407510016 -->
<g id="node26" class="node">
<title>4407510016</title>
<ellipse fill="none" stroke="black" cx="964.54" cy="-234" rx="48.19" ry="18"/>
<text text-anchor="middle" x="964.54" y="-230.3" font-family="Times,serif" font-size="14.00">11: Assign</text>
</g>
<!-- 4407512128&#45;&gt;4407510016 -->
<g id="edge25" class="edge">
<title>4407512128&#45;&gt;4407510016</title>
<path fill="none" stroke="black" d="M859.92,-293.13C879.05,-282.5 907.45,-266.72 929.83,-254.28"/>
<polygon fill="black" stroke="black" points="931.66,-257.27 938.7,-249.36 928.26,-251.15 931.66,-257.27"/>
</g>
<!-- 4407511552 -->
<g id="node23" class="node">
<title>4407511552</title>
<ellipse fill="none" stroke="black" cx="560.54" cy="-162" rx="46.29" ry="18"/>
<text text-anchor="middle" x="560.54" y="-158.3" font-family="Times,serif" font-size="14.00">10: Name</text>
</g>
<!-- 4407509152&#45;&gt;4407511552 -->
<g id="edge22" class="edge">
<title>4407509152&#45;&gt;4407511552</title>
<path fill="none" stroke="black" d="M795.98,-221.86C788.19,-219.87 780.13,-217.85 772.54,-216 702.98,-199.07 684.68,-198.58 615.54,-180 612,-179.05 608.35,-178.02 604.69,-176.96"/>
<polygon fill="black" stroke="black" points="605.63,-173.59 595.05,-174.1 603.64,-180.3 605.63,-173.59"/>
</g>
<!-- 4365586976 -->
<g id="node24" class="node">
<title>4365586976</title>
<ellipse fill="none" stroke="black" cx="692.54" cy="-162" rx="68.49" ry="18"/>
<text text-anchor="start" x="648.04" y="-158.3" font-family="Times,serif" font-size="14.00">class &#39;ast.NotEq&#39;</text>
</g>
<!-- 4407509152&#45;&gt;4365586976 -->
<g id="edge23" class="edge">
<title>4407509152&#45;&gt;4365586976</title>
<path fill="none" stroke="black" d="M808.29,-218.5C786.54,-208.07 756.97,-193.89 733.16,-182.47"/>
<polygon fill="black" stroke="black" points="734.55,-179.26 724.02,-178.09 731.52,-185.57 734.55,-179.26"/>
</g>
<!-- 4407510544 -->
<g id="node25" class="node">
<title>4407510544</title>
<ellipse fill="none" stroke="black" cx="834.54" cy="-162" rx="55.79" ry="18"/>
<text text-anchor="middle" x="834.54" y="-158.3" font-family="Times,serif" font-size="14.00">10: Constant</text>
</g>
<!-- 4407509152&#45;&gt;4407510544 -->
<g id="edge24" class="edge">
<title>4407509152&#45;&gt;4407510544</title>
<path fill="none" stroke="black" d="M837.55,-215.7C837.11,-207.98 836.58,-198.71 836.09,-190.11"/>
<polygon fill="black" stroke="black" points="839.58,-189.89 835.52,-180.1 832.6,-190.29 839.58,-189.89"/>
</g>
<!-- 4407512176 -->
<g id="node27" class="node">
<title>4407512176</title>
<ellipse fill="none" stroke="black" cx="964.54" cy="-162" rx="55.79" ry="18"/>
<text text-anchor="middle" x="964.54" y="-158.3" font-family="Times,serif" font-size="14.00">11: Attribute</text>
</g>
<!-- 4407510016&#45;&gt;4407512176 -->
<g id="edge26" class="edge">
<title>4407510016&#45;&gt;4407512176</title>
<path fill="none" stroke="black" d="M964.54,-215.7C964.54,-207.98 964.54,-198.71 964.54,-190.11"/>
<polygon fill="black" stroke="black" points="968.04,-190.1 964.54,-180.1 961.04,-190.1 968.04,-190.1"/>
</g>
<!-- 4407511936 -->
<g id="node29" class="node">
<title>4407511936</title>
<ellipse fill="none" stroke="black" cx="1084.54" cy="-162" rx="46.29" ry="18"/>
<text text-anchor="middle" x="1084.54" y="-158.3" font-family="Times,serif" font-size="14.00">11: Name</text>
</g>
<!-- 4407510016&#45;&gt;4407511936 -->
<g id="edge29" class="edge">
<title>4407510016&#45;&gt;4407511936</title>
<path fill="none" stroke="black" d="M989.41,-218.5C1007.19,-208.12 1031.32,-194.05 1050.83,-182.66"/>
<polygon fill="black" stroke="black" points="1052.84,-185.55 1059.71,-177.49 1049.31,-179.5 1052.84,-185.55"/>
</g>
<!-- 4407512176&#45;&gt;4365547696 -->
<g id="edge28" class="edge">
<title>4407512176&#45;&gt;4365547696</title>
<path fill="none" stroke="black" d="M922.99,-149.89C915.21,-147.88 907.14,-145.84 899.54,-144 838.85,-129.31 769.08,-113.95 720.85,-103.57"/>
<polygon fill="black" stroke="black" points="721.41,-100.11 710.89,-101.44 719.94,-106.96 721.41,-100.11"/>
</g>
<!-- 4407509056 -->
<g id="node28" class="node">
<title>4407509056</title>
<ellipse fill="none" stroke="black" cx="964.54" cy="-90" rx="46.29" ry="18"/>
<text text-anchor="middle" x="964.54" y="-86.3" font-family="Times,serif" font-size="14.00">11: Name</text>
</g>
<!-- 4407512176&#45;&gt;4407509056 -->
<g id="edge27" class="edge">
<title>4407512176&#45;&gt;4407509056</title>
<path fill="none" stroke="black" d="M964.54,-143.7C964.54,-135.98 964.54,-126.71 964.54,-118.11"/>
<polygon fill="black" stroke="black" points="968.04,-118.1 964.54,-108.1 961.04,-118.1 968.04,-118.1"/>
</g>
<!-- 4407510256 -->
<g id="node31" class="node">
<title>4407510256</title>
<ellipse fill="none" stroke="black" cx="1165.54" cy="-306" rx="82.59" ry="18"/>
<text text-anchor="start" x="1110.04" y="-302.3" font-family="Times,serif" font-size="14.00">class &#39;ast.arguments&#39;</text>
</g>
<!-- 4407512560&#45;&gt;4407510256 -->
<g id="edge31" class="edge">
<title>4407512560&#45;&gt;4407510256</title>
<path fill="none" stroke="black" d="M1165.54,-359.7C1165.54,-351.98 1165.54,-342.71 1165.54,-334.11"/>
<polygon fill="black" stroke="black" points="1169.04,-334.1 1165.54,-324.1 1162.04,-334.1 1169.04,-334.1"/>
</g>
<!-- 4407509344 -->
<g id="node34" class="node">
<title>4407509344</title>
<ellipse fill="none" stroke="black" cx="1418.54" cy="-306" rx="30.59" ry="18"/>
<text text-anchor="middle" x="1418.54" y="-302.3" font-family="Times,serif" font-size="14.00">14: If</text>
</g>
<!-- 4407512560&#45;&gt;4407509344 -->
<g id="edge34" class="edge">
<title>4407512560&#45;&gt;4407509344</title>
<path fill="none" stroke="black" d="M1211.07,-364.4C1259.87,-350.9 1336.42,-329.72 1381.62,-317.22"/>
<polygon fill="black" stroke="black" points="1382.61,-320.57 1391.31,-314.53 1380.74,-313.83 1382.61,-320.57"/>
</g>
<!-- 4407510496 -->
<g id="node32" class="node">
<title>4407510496</title>
<ellipse fill="none" stroke="black" cx="1121.54" cy="-234" rx="36" ry="18"/>
<text text-anchor="middle" x="1121.54" y="-230.3" font-family="Times,serif" font-size="14.00">13: arg</text>
</g>
<!-- 4407510256&#45;&gt;4407510496 -->
<g id="edge32" class="edge">
<title>4407510256&#45;&gt;4407510496</title>
<path fill="none" stroke="black" d="M1154.89,-288.05C1149.57,-279.59 1143.03,-269.19 1137.16,-259.84"/>
<polygon fill="black" stroke="black" points="1140.08,-257.91 1131.79,-251.31 1134.15,-261.64 1140.08,-257.91"/>
</g>
<!-- 4407511072 -->
<g id="node33" class="node">
<title>4407511072</title>
<ellipse fill="none" stroke="black" cx="1210.54" cy="-234" rx="36" ry="18"/>
<text text-anchor="middle" x="1210.54" y="-230.3" font-family="Times,serif" font-size="14.00">13: arg</text>
</g>
<!-- 4407510256&#45;&gt;4407511072 -->
<g id="edge33" class="edge">
<title>4407510256&#45;&gt;4407511072</title>
<path fill="none" stroke="black" d="M1176.44,-288.05C1181.88,-279.59 1188.56,-269.19 1194.57,-259.84"/>
<polygon fill="black" stroke="black" points="1197.6,-261.61 1200.06,-251.31 1191.71,-257.83 1197.6,-261.61"/>
</g>
<!-- 4407511024 -->
<g id="node35" class="node">
<title>4407511024</title>
<ellipse fill="none" stroke="black" cx="1344.54" cy="-234" rx="57.39" ry="18"/>
<text text-anchor="middle" x="1344.54" y="-230.3" font-family="Times,serif" font-size="14.00">14: Compare</text>
</g>
<!-- 4407509344&#45;&gt;4407511024 -->
<g id="edge35" class="edge">
<title>4407509344&#45;&gt;4407511024</title>
<path fill="none" stroke="black" d="M1402.85,-290.15C1393.06,-280.89 1380.25,-268.78 1369.13,-258.26"/>
<polygon fill="black" stroke="black" points="1371.43,-255.62 1361.76,-251.29 1366.62,-260.71 1371.43,-255.62"/>
</g>
<!-- 4407510880 -->
<g id="node39" class="node">
<title>4407510880</title>
<ellipse fill="none" stroke="black" cx="1493.54" cy="-234" rx="41.69" ry="18"/>
<text text-anchor="middle" x="1493.54" y="-230.3" font-family="Times,serif" font-size="14.00">15: Expr</text>
</g>
<!-- 4407509344&#45;&gt;4407510880 -->
<g id="edge39" class="edge">
<title>4407509344&#45;&gt;4407510880</title>
<path fill="none" stroke="black" d="M1434.08,-290.5C1444.19,-281.06 1457.59,-268.56 1469.11,-257.81"/>
<polygon fill="black" stroke="black" points="1471.8,-260.08 1476.72,-250.7 1467.02,-254.97 1471.8,-260.08"/>
</g>
<!-- 4407510592 -->
<g id="node44" class="node">
<title>4407510592</title>
<ellipse fill="none" stroke="black" cx="1635.54" cy="-234" rx="41.69" ry="18"/>
<text text-anchor="middle" x="1635.54" y="-230.3" font-family="Times,serif" font-size="14.00">17: Expr</text>
</g>
<!-- 4407509344&#45;&gt;4407510592 -->
<g id="edge44" class="edge">
<title>4407509344&#45;&gt;4407510592</title>
<path fill="none" stroke="black" d="M1444.72,-296.56C1481.71,-284.62 1549.68,-262.7 1593.72,-248.49"/>
<polygon fill="black" stroke="black" points="1594.83,-251.81 1603.28,-245.41 1592.68,-245.15 1594.83,-251.81"/>
</g>
<!-- 4407512320 -->
<g id="node36" class="node">
<title>4407512320</title>
<ellipse fill="none" stroke="black" cx="1194.54" cy="-162" rx="46.29" ry="18"/>
<text text-anchor="middle" x="1194.54" y="-158.3" font-family="Times,serif" font-size="14.00">14: Name</text>
</g>
<!-- 4407511024&#45;&gt;4407512320 -->
<g id="edge36" class="edge">
<title>4407511024&#45;&gt;4407512320</title>
<path fill="none" stroke="black" d="M1313.83,-218.67C1290.19,-207.64 1257.41,-192.34 1232.19,-180.57"/>
<polygon fill="black" stroke="black" points="1233.48,-177.31 1222.93,-176.25 1230.52,-183.65 1233.48,-177.31"/>
</g>
<!-- 4365586880 -->
<g id="node37" class="node">
<title>4365586880</title>
<ellipse fill="none" stroke="black" cx="1313.54" cy="-162" rx="55.49" ry="18"/>
<text text-anchor="start" x="1279.04" y="-158.3" font-family="Times,serif" font-size="14.00">class &#39;ast.Eq&#39;</text>
</g>
<!-- 4407511024&#45;&gt;4365586880 -->
<g id="edge37" class="edge">
<title>4407511024&#45;&gt;4365586880</title>
<path fill="none" stroke="black" d="M1337.04,-216.05C1333.51,-208.09 1329.22,-198.41 1325.28,-189.51"/>
<polygon fill="black" stroke="black" points="1328.44,-188 1321.19,-180.28 1322.04,-190.84 1328.44,-188"/>
</g>
<!-- 4407510640 -->
<g id="node38" class="node">
<title>4407510640</title>
<ellipse fill="none" stroke="black" cx="1442.54" cy="-162" rx="55.79" ry="18"/>
<text text-anchor="middle" x="1442.54" y="-158.3" font-family="Times,serif" font-size="14.00">14: Constant</text>
</g>
<!-- 4407511024&#45;&gt;4407510640 -->
<g id="edge38" class="edge">
<title>4407511024&#45;&gt;4407510640</title>
<path fill="none" stroke="black" d="M1366.78,-217.12C1380.28,-207.47 1397.69,-195.04 1412.42,-184.52"/>
<polygon fill="black" stroke="black" points="1414.63,-187.24 1420.73,-178.58 1410.56,-181.54 1414.63,-187.24"/>
</g>
<!-- 4407510832 -->
<g id="node40" class="node">
<title>4407510832</title>
<ellipse fill="none" stroke="black" cx="1555.54" cy="-162" rx="38.99" ry="18"/>
<text text-anchor="middle" x="1555.54" y="-158.3" font-family="Times,serif" font-size="14.00">15: Call</text>
</g>
<!-- 4407510880&#45;&gt;4407510832 -->
<g id="edge40" class="edge">
<title>4407510880&#45;&gt;4407510832</title>
<path fill="none" stroke="black" d="M1507.92,-216.76C1515.83,-207.84 1525.78,-196.61 1534.53,-186.72"/>
<polygon fill="black" stroke="black" points="1537.23,-188.95 1541.24,-179.15 1531.99,-184.31 1537.23,-188.95"/>
</g>
<!-- 4407512416 -->
<g id="node41" class="node">
<title>4407512416</title>
<ellipse fill="none" stroke="black" cx="1435.54" cy="-90" rx="55.79" ry="18"/>
<text text-anchor="middle" x="1435.54" y="-86.3" font-family="Times,serif" font-size="14.00">15: Attribute</text>
</g>
<!-- 4407510832&#45;&gt;4407512416 -->
<g id="edge41" class="edge">
<title>4407510832&#45;&gt;4407512416</title>
<path fill="none" stroke="black" d="M1532.41,-147.5C1514.81,-137.24 1490.3,-122.94 1470.34,-111.3"/>
<polygon fill="black" stroke="black" points="1471.93,-108.17 1461.53,-106.16 1468.4,-114.22 1471.93,-108.17"/>
</g>
<!-- 4407511120 -->
<g id="node43" class="node">
<title>4407511120</title>
<ellipse fill="none" stroke="black" cx="1555.54" cy="-90" rx="46.29" ry="18"/>
<text text-anchor="middle" x="1555.54" y="-86.3" font-family="Times,serif" font-size="14.00">15: Name</text>
</g>
<!-- 4407510832&#45;&gt;4407511120 -->
<g id="edge43" class="edge">
<title>4407510832&#45;&gt;4407511120</title>
<path fill="none" stroke="black" d="M1555.54,-143.7C1555.54,-135.98 1555.54,-126.71 1555.54,-118.11"/>
<polygon fill="black" stroke="black" points="1559.04,-118.1 1555.54,-108.1 1552.04,-118.1 1559.04,-118.1"/>
</g>
<!-- 4407510784 -->
<g id="node42" class="node">
<title>4407510784</title>
<ellipse fill="none" stroke="black" cx="1435.54" cy="-18" rx="46.29" ry="18"/>
<text text-anchor="middle" x="1435.54" y="-14.3" font-family="Times,serif" font-size="14.00">15: Name</text>
</g>
<!-- 4407512416&#45;&gt;4407510784 -->
<g id="edge42" class="edge">
<title>4407512416&#45;&gt;4407510784</title>
<path fill="none" stroke="black" d="M1435.54,-71.7C1435.54,-63.98 1435.54,-54.71 1435.54,-46.11"/>
<polygon fill="black" stroke="black" points="1439.04,-46.1 1435.54,-36.1 1432.04,-46.1 1439.04,-46.1"/>
</g>
<!-- 4407513040 -->
<g id="node45" class="node">
<title>4407513040</title>
<ellipse fill="none" stroke="black" cx="1675.54" cy="-162" rx="38.99" ry="18"/>
<text text-anchor="middle" x="1675.54" y="-158.3" font-family="Times,serif" font-size="14.00">17: Call</text>
</g>
<!-- 4407510592&#45;&gt;4407513040 -->
<g id="edge45" class="edge">
<title>4407510592&#45;&gt;4407513040</title>
<path fill="none" stroke="black" d="M1645.02,-216.41C1649.8,-208.04 1655.71,-197.71 1661.05,-188.37"/>
<polygon fill="black" stroke="black" points="1664.21,-189.89 1666.13,-179.47 1658.13,-186.42 1664.21,-189.89"/>
</g>
<!-- 4407509488 -->
<g id="node46" class="node">
<title>4407509488</title>
<ellipse fill="none" stroke="black" cx="1675.54" cy="-90" rx="55.79" ry="18"/>
<text text-anchor="middle" x="1675.54" y="-86.3" font-family="Times,serif" font-size="14.00">17: Attribute</text>
</g>
<!-- 4407513040&#45;&gt;4407509488 -->
<g id="edge46" class="edge">
<title>4407513040&#45;&gt;4407509488</title>
<path fill="none" stroke="black" d="M1675.54,-143.7C1675.54,-135.98 1675.54,-126.71 1675.54,-118.11"/>
<polygon fill="black" stroke="black" points="1679.04,-118.1 1675.54,-108.1 1672.04,-118.1 1679.04,-118.1"/>
</g>
<!-- 4407510112 -->
<g id="node48" class="node">
<title>4407510112</title>
<ellipse fill="none" stroke="black" cx="1795.54" cy="-90" rx="46.29" ry="18"/>
<text text-anchor="middle" x="1795.54" y="-86.3" font-family="Times,serif" font-size="14.00">17: Name</text>
</g>
<!-- 4407513040&#45;&gt;4407510112 -->
<g id="edge48" class="edge">
<title>4407513040&#45;&gt;4407510112</title>
<path fill="none" stroke="black" d="M1698.68,-147.5C1716.63,-137.03 1741.78,-122.36 1761.95,-110.6"/>
<polygon fill="black" stroke="black" points="1763.95,-113.48 1770.82,-105.42 1760.42,-107.43 1763.95,-113.48"/>
</g>
<!-- 4407511408 -->
<g id="node47" class="node">
<title>4407511408</title>
<ellipse fill="none" stroke="black" cx="1675.54" cy="-18" rx="46.29" ry="18"/>
<text text-anchor="middle" x="1675.54" y="-14.3" font-family="Times,serif" font-size="14.00">17: Name</text>
</g>
<!-- 4407509488&#45;&gt;4407511408 -->
<g id="edge47" class="edge">
<title>4407509488&#45;&gt;4407511408</title>
<path fill="none" stroke="black" d="M1675.54,-71.7C1675.54,-63.98 1675.54,-54.71 1675.54,-46.11"/>
<polygon fill="black" stroke="black" points="1679.04,-46.1 1675.54,-36.1 1672.04,-46.1 1679.04,-46.1"/>
</g>
</g>
</svg>
