<?xml version="1.0" encoding="UTF-8" standalone="no"?>
<!DOCTYPE svg PUBLIC "-//W3C//DTD SVG 1.1//EN"
 "http://www.w3.org/Graphics/SVG/1.1/DTD/svg11.dtd">
<!-- Generated by graphviz version 3.0.0 (20220226.1711)
 -->
<!-- Pages: 1 -->
<svg width="1090pt" height="188pt"
 viewBox="0.00 0.00 1090.29 188.00" xmlns="http://www.w3.org/2000/svg" xmlns:xlink="http://www.w3.org/1999/xlink">
<g id="graph0" class="graph" transform="scale(1 1) rotate(0) translate(4 184)">
<polygon fill="white" stroke="transparent" points="-4,4 -4,-184 1086.29,-184 1086.29,4 -4,4"/>
<!-- foo_1 -->
<g id="node1" class="node">
<title>foo_1</title>
<ellipse fill="none" stroke="black" cx="403.15" cy="-162" rx="27" ry="18"/>
<text text-anchor="middle" x="403.15" y="-158.3" font-family="Times,serif" font-size="14.00">foo</text>
</g>
<!-- method_a_1 -->
<g id="node2" class="node">
<title>method_a_1</title>
<ellipse fill="none" stroke="black" cx="156.15" cy="-90" rx="46.29" ry="18"/>
<text text-anchor="middle" x="156.15" y="-86.3" font-family="Times,serif" font-size="14.00">method_a</text>
</g>
<!-- foo_1&#45;&gt;method_a_1 -->
<g id="edge1" class="edge">
<title>foo_1&#45;&gt;method_a_1</title>
<path fill="none" stroke="black" d="M378.53,-154.46C341.93,-144.68 271.05,-125.52 211.15,-108 207.78,-107.02 204.31,-105.98 200.82,-104.93"/>
<polygon fill="black" stroke="black" points="201.6,-101.51 191.01,-101.95 199.56,-108.21 201.6,-101.51"/>
</g>
<!-- method_d_1 -->
<g id="node5" class="node">
<title>method_d_1</title>
<ellipse fill="none" stroke="black" cx="266.15" cy="-90" rx="46.29" ry="18"/>
<text text-anchor="middle" x="266.15" y="-86.3" font-family="Times,serif" font-size="14.00">method_d</text>
</g>
<!-- foo_1&#45;&gt;method_d_1 -->
<g id="edge4" class="edge">
<title>foo_1&#45;&gt;method_d_1</title>
<path fill="none" stroke="black" d="M382.34,-150.37C361.14,-139.54 327.84,-122.52 302.31,-109.48"/>
<polygon fill="black" stroke="black" points="303.79,-106.31 293.3,-104.87 300.61,-112.54 303.79,-106.31"/>
</g>
<!-- method_a_2 -->
<g id="node7" class="node">
<title>method_a_2</title>
<ellipse fill="none" stroke="black" cx="403.15" cy="-90" rx="46.29" ry="18"/>
<text text-anchor="middle" x="403.15" y="-86.3" font-family="Times,serif" font-size="14.00">method_a</text>
</g>
<!-- foo_1&#45;&gt;method_a_2 -->
<g id="edge6" class="edge">
<title>foo_1&#45;&gt;method_a_2</title>
<path fill="none" stroke="black" d="M403.15,-143.7C403.15,-135.98 403.15,-126.71 403.15,-118.11"/>
<polygon fill="black" stroke="black" points="406.65,-118.1 403.15,-108.1 399.65,-118.1 406.65,-118.1"/>
</g>
<!-- method_d_2 -->
<g id="node10" class="node">
<title>method_d_2</title>
<ellipse fill="none" stroke="black" cx="568.15" cy="-90" rx="46.29" ry="18"/>
<text text-anchor="middle" x="568.15" y="-86.3" font-family="Times,serif" font-size="14.00">method_d</text>
</g>
<!-- foo_1&#45;&gt;method_d_2 -->
<g id="edge9" class="edge">
<title>foo_1&#45;&gt;method_d_2</title>
<path fill="none" stroke="black" d="M425.4,-151.56C451.79,-140.37 496.25,-121.5 528.56,-107.8"/>
<polygon fill="black" stroke="black" points="530.32,-110.85 538.16,-103.72 527.58,-104.41 530.32,-110.85"/>
</g>
<!-- method_a_3 -->
<g id="node12" class="node">
<title>method_a_3</title>
<ellipse fill="none" stroke="black" cx="816.15" cy="-90" rx="46.29" ry="18"/>
<text text-anchor="middle" x="816.15" y="-86.3" font-family="Times,serif" font-size="14.00">method_a</text>
</g>
<!-- foo_1&#45;&gt;method_a_3 -->
<g id="edge11" class="edge">
<title>foo_1&#45;&gt;method_a_3</title>
<path fill="none" stroke="black" d="M428.98,-156.62C495.89,-145.28 675.8,-114.79 764.82,-99.7"/>
<polygon fill="black" stroke="black" points="765.42,-103.15 774.7,-98.03 764.25,-96.25 765.42,-103.15"/>
</g>
<!-- method_b_1 -->
<g id="node3" class="node">
<title>method_b_1</title>
<ellipse fill="none" stroke="black" cx="46.15" cy="-18" rx="46.29" ry="18"/>
<text text-anchor="middle" x="46.15" y="-14.3" font-family="Times,serif" font-size="14.00">method_b</text>
</g>
<!-- method_a_1&#45;&gt;method_b_1 -->
<g id="edge2" class="edge">
<title>method_a_1&#45;&gt;method_b_1</title>
<path fill="none" stroke="black" d="M133.09,-74.33C117.1,-64.15 95.6,-50.47 77.98,-39.26"/>
<polygon fill="black" stroke="black" points="79.49,-36.07 69.18,-33.65 75.73,-41.98 79.49,-36.07"/>
</g>
<!-- method_c_1 -->
<g id="node4" class="node">
<title>method_c_1</title>
<ellipse fill="none" stroke="black" cx="156.15" cy="-18" rx="46.29" ry="18"/>
<text text-anchor="middle" x="156.15" y="-14.3" font-family="Times,serif" font-size="14.00">method_c</text>
</g>
<!-- method_a_1&#45;&gt;method_c_1 -->
<g id="edge3" class="edge">
<title>method_a_1&#45;&gt;method_c_1</title>
<path fill="none" stroke="black" d="M156.15,-71.7C156.15,-63.98 156.15,-54.71 156.15,-46.11"/>
<polygon fill="black" stroke="black" points="159.65,-46.1 156.15,-36.1 152.65,-46.1 159.65,-46.1"/>
</g>
<!-- method_c_2 -->
<g id="node6" class="node">
<title>method_c_2</title>
<ellipse fill="none" stroke="black" cx="266.15" cy="-18" rx="46.29" ry="18"/>
<text text-anchor="middle" x="266.15" y="-14.3" font-family="Times,serif" font-size="14.00">method_c</text>
</g>
<!-- method_d_1&#45;&gt;method_c_2 -->
<g id="edge5" class="edge">
<title>method_d_1&#45;&gt;method_c_2</title>
<path fill="none" stroke="black" d="M266.15,-71.7C266.15,-63.98 266.15,-54.71 266.15,-46.11"/>
<polygon fill="black" stroke="black" points="269.65,-46.1 266.15,-36.1 262.65,-46.1 269.65,-46.1"/>
</g>
<!-- method_b_2 -->
<g id="node8" class="node">
<title>method_b_2</title>
<ellipse fill="none" stroke="black" cx="376.15" cy="-18" rx="46.29" ry="18"/>
<text text-anchor="middle" x="376.15" y="-14.3" font-family="Times,serif" font-size="14.00">method_b</text>
</g>
<!-- method_a_2&#45;&gt;method_b_2 -->
<g id="edge7" class="edge">
<title>method_a_2&#45;&gt;method_b_2</title>
<path fill="none" stroke="black" d="M396.61,-72.05C393.57,-64.18 389.88,-54.62 386.48,-45.79"/>
<polygon fill="black" stroke="black" points="389.67,-44.35 382.81,-36.28 383.14,-46.86 389.67,-44.35"/>
</g>
<!-- method_c_3 -->
<g id="node9" class="node">
<title>method_c_3</title>
<ellipse fill="none" stroke="black" cx="486.15" cy="-18" rx="46.29" ry="18"/>
<text text-anchor="middle" x="486.15" y="-14.3" font-family="Times,serif" font-size="14.00">method_c</text>
</g>
<!-- method_a_2&#45;&gt;method_c_3 -->
<g id="edge8" class="edge">
<title>method_a_2&#45;&gt;method_c_3</title>
<path fill="none" stroke="black" d="M421.57,-73.46C432.77,-64.02 447.27,-51.79 459.68,-41.32"/>
<polygon fill="black" stroke="black" points="462.1,-43.86 467.49,-34.73 457.59,-38.51 462.1,-43.86"/>
</g>
<!-- method_c_4 -->
<g id="node11" class="node">
<title>method_c_4</title>
<ellipse fill="none" stroke="black" cx="596.15" cy="-18" rx="46.29" ry="18"/>
<text text-anchor="middle" x="596.15" y="-14.3" font-family="Times,serif" font-size="14.00">method_c</text>
</g>
<!-- method_d_2&#45;&gt;method_c_4 -->
<g id="edge10" class="edge">
<title>method_d_2&#45;&gt;method_c_4</title>
<path fill="none" stroke="black" d="M574.92,-72.05C578.08,-64.18 581.9,-54.62 585.43,-45.79"/>
<polygon fill="black" stroke="black" points="588.77,-46.86 589.24,-36.28 582.27,-44.26 588.77,-46.86"/>
</g>
<!-- method_b_3 -->
<g id="node13" class="node">
<title>method_b_3</title>
<ellipse fill="none" stroke="black" cx="706.15" cy="-18" rx="46.29" ry="18"/>
<text text-anchor="middle" x="706.15" y="-14.3" font-family="Times,serif" font-size="14.00">method_b</text>
</g>
<!-- method_a_3&#45;&gt;method_b_3 -->
<g id="edge12" class="edge">
<title>method_a_3&#45;&gt;method_b_3</title>
<path fill="none" stroke="black" d="M793.09,-74.33C777.1,-64.15 755.6,-50.47 737.98,-39.26"/>
<polygon fill="black" stroke="black" points="739.49,-36.07 729.18,-33.65 735.73,-41.98 739.49,-36.07"/>
</g>
<!-- method_b_4 -->
<g id="node14" class="node">
<title>method_b_4</title>
<ellipse fill="none" stroke="black" cx="816.15" cy="-18" rx="46.29" ry="18"/>
<text text-anchor="middle" x="816.15" y="-14.3" font-family="Times,serif" font-size="14.00">method_b</text>
</g>
<!-- method_a_3&#45;&gt;method_b_4 -->
<g id="edge13" class="edge">
<title>method_a_3&#45;&gt;method_b_4</title>
<path fill="none" stroke="black" d="M816.15,-71.7C816.15,-63.98 816.15,-54.71 816.15,-46.11"/>
<polygon fill="black" stroke="black" points="819.65,-46.1 816.15,-36.1 812.65,-46.1 819.65,-46.1"/>
</g>
<!-- method_c_5 -->
<g id="node15" class="node">
<title>method_c_5</title>
<ellipse fill="none" stroke="black" cx="926.15" cy="-18" rx="46.29" ry="18"/>
<text text-anchor="middle" x="926.15" y="-14.3" font-family="Times,serif" font-size="14.00">method_c</text>
</g>
<!-- method_a_3&#45;&gt;method_c_5 -->
<g id="edge14" class="edge">
<title>method_a_3&#45;&gt;method_c_5</title>
<path fill="none" stroke="black" d="M839.21,-74.33C855.19,-64.15 876.69,-50.47 894.31,-39.26"/>
<polygon fill="black" stroke="black" points="896.56,-41.98 903.12,-33.65 892.8,-36.07 896.56,-41.98"/>
</g>
<!-- method_c_6 -->
<g id="node16" class="node">
<title>method_c_6</title>
<ellipse fill="none" stroke="black" cx="1036.15" cy="-18" rx="46.29" ry="18"/>
<text text-anchor="middle" x="1036.15" y="-14.3" font-family="Times,serif" font-size="14.00">method_c</text>
</g>
<!-- method_a_3&#45;&gt;method_c_6 -->
<g id="edge15" class="edge">
<title>method_a_3&#45;&gt;method_c_6</title>
<path fill="none" stroke="black" d="M851.01,-77.91C889.14,-65.77 950.36,-46.29 991.87,-33.09"/>
<polygon fill="black" stroke="black" points="992.98,-36.41 1001.45,-30.04 990.86,-29.74 992.98,-36.41"/>
</g>
</g>
</svg>
