<?xml version="1.0" encoding="UTF-8" standalone="no"?>
<!DOCTYPE svg PUBLIC "-//W3C//DTD SVG 1.1//EN"
 "http://www.w3.org/Graphics/SVG/1.1/DTD/svg11.dtd">
<!-- Generated by graphviz version 3.0.0 (20220226.1711)
 -->
<!-- Pages: 1 -->
<svg width="2409pt" height="548pt"
 viewBox="0.00 0.00 2408.83 548.00" xmlns="http://www.w3.org/2000/svg" xmlns:xlink="http://www.w3.org/1999/xlink">
<g id="graph0" class="graph" transform="scale(1 1) rotate(0) translate(4 544)">
<polygon fill="white" stroke="transparent" points="-4,4 -4,-544 2404.83,-544 2404.83,4 -4,4"/>
<!-- 4556849360 -->
<g id="node1" class="node">
<title>4556849360</title>
<ellipse fill="none" stroke="black" cx="635.29" cy="-522" rx="149.47" ry="18"/>
<text text-anchor="start" x="528.29" y="-518.3" font-family="Times,serif" font-size="14.00">class &#39;javalang.tree.MethodDeclaration&#39;</text>
</g>
<!-- 4556814464 -->
<g id="node2" class="node">
<title>4556814464</title>
<ellipse fill="none" stroke="black" cx="118.29" cy="-450" rx="118.08" ry="18"/>
<text text-anchor="start" x="35.29" y="-446.3" font-family="Times,serif" font-size="14.00">class &#39;javalang.tree.BasicType&#39;</text>
</g>
<!-- 4556849360&#45;&gt;4556814464 -->
<g id="edge1" class="edge">
<title>4556849360&#45;&gt;4556814464</title>
<path fill="none" stroke="black" d="M539.86,-508.08C446.96,-495.5 306.57,-476.49 213.69,-463.92"/>
<polygon fill="black" stroke="black" points="214.11,-460.44 203.73,-462.57 213.17,-467.38 214.11,-460.44"/>
</g>
<!-- 1 -->
<g id="node3" class="node">
<title>1</title>
<ellipse fill="none" stroke="black" cx="281.29" cy="-450" rx="27" ry="18"/>
<text text-anchor="middle" x="281.29" y="-446.3" font-family="Times,serif" font-size="14.00">foo</text>
</g>
<!-- 4556849360&#45;&gt;1 -->
<g id="edge2" class="edge">
<title>4556849360&#45;&gt;1</title>
<path fill="none" stroke="black" d="M523.52,-510.02C461.75,-502.06 384.19,-488.93 317.29,-468 315.36,-467.4 313.4,-466.71 311.45,-465.96"/>
<polygon fill="black" stroke="black" points="312.41,-462.57 301.84,-461.89 309.68,-469.02 312.41,-462.57"/>
</g>
<!-- 4556814608 -->
<g id="node4" class="node">
<title>4556814608</title>
<ellipse fill="none" stroke="black" cx="469.29" cy="-450" rx="142.97" ry="18"/>
<text text-anchor="start" x="367.29" y="-446.3" font-family="Times,serif" font-size="14.00">class &#39;javalang.tree.FormalParameter&#39;</text>
</g>
<!-- 4556849360&#45;&gt;4556814608 -->
<g id="edge3" class="edge">
<title>4556849360&#45;&gt;4556814608</title>
<path fill="none" stroke="black" d="M596.37,-504.59C572.83,-494.66 542.63,-481.93 517.58,-471.36"/>
<polygon fill="black" stroke="black" points="518.83,-468.09 508.25,-467.43 516.11,-474.54 518.83,-468.09"/>
</g>
<!-- 4556814704 -->
<g id="node5" class="node">
<title>4556814704</title>
<ellipse fill="none" stroke="black" cx="801.29" cy="-450" rx="170.87" ry="18"/>
<text text-anchor="start" x="677.79" y="-446.3" font-family="Times,serif" font-size="14.00">class &#39;javalang.tree.LocalVariableDeclaration&#39;</text>
</g>
<!-- 4556849360&#45;&gt;4556814704 -->
<g id="edge4" class="edge">
<title>4556849360&#45;&gt;4556814704</title>
<path fill="none" stroke="black" d="M674.21,-504.59C697.66,-494.7 727.73,-482.02 752.73,-471.48"/>
<polygon fill="black" stroke="black" points="754.18,-474.66 762.04,-467.55 751.46,-468.21 754.18,-474.66"/>
</g>
<!-- 4556816048 -->
<g id="node6" class="node">
<title>4556816048</title>
<ellipse fill="none" stroke="black" cx="1227.29" cy="-450" rx="138.38" ry="18"/>
<text text-anchor="start" x="1128.79" y="-446.3" font-family="Times,serif" font-size="14.00">class &#39;javalang.tree.WhileStatement&#39;</text>
</g>
<!-- 4556849360&#45;&gt;4556816048 -->
<g id="edge5" class="edge">
<title>4556849360&#45;&gt;4556816048</title>
<path fill="none" stroke="black" d="M737.73,-508.89C844.12,-496.31 1009.9,-476.7 1118.55,-463.86"/>
<polygon fill="black" stroke="black" points="1119.04,-467.32 1128.56,-462.67 1118.22,-460.37 1119.04,-467.32"/>
</g>
<!-- 4556849216 -->
<g id="node7" class="node">
<title>4556849216</title>
<ellipse fill="none" stroke="black" cx="1881.29" cy="-450" rx="140.28" ry="18"/>
<text text-anchor="start" x="1781.29" y="-446.3" font-family="Times,serif" font-size="14.00">class &#39;javalang.tree.ReturnStatement&#39;</text>
</g>
<!-- 4556849360&#45;&gt;4556849216 -->
<g id="edge6" class="edge">
<title>4556849360&#45;&gt;4556849216</title>
<path fill="none" stroke="black" d="M767.45,-513.58C1005.63,-500.19 1504.47,-472.17 1745.37,-458.64"/>
<polygon fill="black" stroke="black" points="1745.8,-462.12 1755.59,-458.06 1745.41,-455.13 1745.8,-462.12"/>
</g>
<!-- 2 -->
<g id="node8" class="node">
<title>2</title>
<ellipse fill="none" stroke="black" cx="118.29" cy="-378" rx="27" ry="18"/>
<text text-anchor="middle" x="118.29" y="-374.3" font-family="Times,serif" font-size="14.00">int</text>
</g>
<!-- 4556814464&#45;&gt;2 -->
<g id="edge7" class="edge">
<title>4556814464&#45;&gt;2</title>
<path fill="none" stroke="black" d="M118.29,-431.7C118.29,-423.98 118.29,-414.71 118.29,-406.11"/>
<polygon fill="black" stroke="black" points="121.79,-406.1 118.29,-396.1 114.79,-406.1 121.79,-406.1"/>
</g>
<!-- 4556814512 -->
<g id="node9" class="node">
<title>4556814512</title>
<ellipse fill="none" stroke="black" cx="293.29" cy="-378" rx="118.08" ry="18"/>
<text text-anchor="start" x="210.29" y="-374.3" font-family="Times,serif" font-size="14.00">class &#39;javalang.tree.BasicType&#39;</text>
</g>
<!-- 4556814608&#45;&gt;4556814512 -->
<g id="edge8" class="edge">
<title>4556814608&#45;&gt;4556814512</title>
<path fill="none" stroke="black" d="M428.03,-432.59C402.6,-422.47 369.84,-409.44 342.99,-398.77"/>
<polygon fill="black" stroke="black" points="343.97,-395.39 333.39,-394.95 341.38,-401.9 343.97,-395.39"/>
</g>
<!-- 3 -->
<g id="node10" class="node">
<title>3</title>
<ellipse fill="none" stroke="black" cx="456.29" cy="-378" rx="27" ry="18"/>
<text text-anchor="middle" x="456.29" y="-374.3" font-family="Times,serif" font-size="14.00">x</text>
</g>
<!-- 4556814608&#45;&gt;3 -->
<g id="edge9" class="edge">
<title>4556814608&#45;&gt;3</title>
<path fill="none" stroke="black" d="M466.08,-431.7C464.64,-423.98 462.92,-414.71 461.32,-406.11"/>
<polygon fill="black" stroke="black" points="464.73,-405.3 459.47,-396.1 457.85,-406.58 464.73,-405.3"/>
</g>
<!-- 4556814752 -->
<g id="node12" class="node">
<title>4556814752</title>
<ellipse fill="none" stroke="black" cx="619.29" cy="-378" rx="118.08" ry="18"/>
<text text-anchor="start" x="536.29" y="-374.3" font-family="Times,serif" font-size="14.00">class &#39;javalang.tree.BasicType&#39;</text>
</g>
<!-- 4556814704&#45;&gt;4556814752 -->
<g id="edge11" class="edge">
<title>4556814704&#45;&gt;4556814752</title>
<path fill="none" stroke="black" d="M758.16,-432.41C731.83,-422.28 698.03,-409.28 670.36,-398.64"/>
<polygon fill="black" stroke="black" points="671.45,-395.31 660.86,-394.99 668.94,-401.84 671.45,-395.31"/>
</g>
<!-- 4556814896 -->
<g id="node13" class="node">
<title>4556814896</title>
<ellipse fill="none" stroke="black" cx="903.29" cy="-378" rx="147.57" ry="18"/>
<text text-anchor="start" x="797.79" y="-374.3" font-family="Times,serif" font-size="14.00">class &#39;javalang.tree.VariableDeclarator&#39;</text>
</g>
<!-- 4556814704&#45;&gt;4556814896 -->
<g id="edge12" class="edge">
<title>4556814704&#45;&gt;4556814896</title>
<path fill="none" stroke="black" d="M825.98,-432.05C839.26,-422.94 855.82,-411.58 870.2,-401.71"/>
<polygon fill="black" stroke="black" points="872.56,-404.33 878.83,-395.79 868.6,-398.56 872.56,-404.33"/>
</g>
<!-- 4556814944 -->
<g id="node18" class="node">
<title>4556814944</title>
<ellipse fill="none" stroke="black" cx="1227.29" cy="-378" rx="139.98" ry="18"/>
<text text-anchor="start" x="1127.79" y="-374.3" font-family="Times,serif" font-size="14.00">class &#39;javalang.tree.BinaryOperation&#39;</text>
</g>
<!-- 4556816048&#45;&gt;4556814944 -->
<g id="edge17" class="edge">
<title>4556816048&#45;&gt;4556814944</title>
<path fill="none" stroke="black" d="M1227.29,-431.7C1227.29,-423.98 1227.29,-414.71 1227.29,-406.11"/>
<polygon fill="black" stroke="black" points="1230.79,-406.1 1227.29,-396.1 1223.79,-406.1 1230.79,-406.1"/>
</g>
<!-- 4556815904 -->
<g id="node19" class="node">
<title>4556815904</title>
<ellipse fill="none" stroke="black" cx="1742.29" cy="-378" rx="137.58" ry="18"/>
<text text-anchor="start" x="1644.29" y="-374.3" font-family="Times,serif" font-size="14.00">class &#39;javalang.tree.BlockStatement&#39;</text>
</g>
<!-- 4556816048&#45;&gt;4556815904 -->
<g id="edge18" class="edge">
<title>4556816048&#45;&gt;4556815904</title>
<path fill="none" stroke="black" d="M1319.36,-436.49C1409.67,-424.21 1547.04,-405.54 1640.54,-392.83"/>
<polygon fill="black" stroke="black" points="1641.14,-396.28 1650.58,-391.47 1640.2,-389.34 1641.14,-396.28"/>
</g>
<!-- 4556816240 -->
<g id="node52" class="node">
<title>4556816240</title>
<ellipse fill="none" stroke="black" cx="2238.29" cy="-378" rx="147.57" ry="18"/>
<text text-anchor="start" x="2132.79" y="-374.3" font-family="Times,serif" font-size="14.00">class &#39;javalang.tree.MemberReference&#39;</text>
</g>
<!-- 4556849216&#45;&gt;4556816240 -->
<g id="edge51" class="edge">
<title>4556849216&#45;&gt;4556816240</title>
<path fill="none" stroke="black" d="M1954.83,-434.58C2012.74,-423.23 2093.5,-407.39 2154.02,-395.52"/>
<polygon fill="black" stroke="black" points="2154.79,-398.94 2163.93,-393.58 2153.44,-392.07 2154.79,-398.94"/>
</g>
<!-- 4 -->
<g id="node11" class="node">
<title>4</title>
<ellipse fill="none" stroke="black" cx="293.29" cy="-306" rx="27" ry="18"/>
<text text-anchor="middle" x="293.29" y="-302.3" font-family="Times,serif" font-size="14.00">int</text>
</g>
<!-- 4556814512&#45;&gt;4 -->
<g id="edge10" class="edge">
<title>4556814512&#45;&gt;4</title>
<path fill="none" stroke="black" d="M293.29,-359.7C293.29,-351.98 293.29,-342.71 293.29,-334.11"/>
<polygon fill="black" stroke="black" points="296.79,-334.1 293.29,-324.1 289.79,-334.1 296.79,-334.1"/>
</g>
<!-- 5 -->
<g id="node14" class="node">
<title>5</title>
<ellipse fill="none" stroke="black" cx="619.29" cy="-306" rx="27" ry="18"/>
<text text-anchor="middle" x="619.29" y="-302.3" font-family="Times,serif" font-size="14.00">int</text>
</g>
<!-- 4556814752&#45;&gt;5 -->
<g id="edge13" class="edge">
<title>4556814752&#45;&gt;5</title>
<path fill="none" stroke="black" d="M619.29,-359.7C619.29,-351.98 619.29,-342.71 619.29,-334.11"/>
<polygon fill="black" stroke="black" points="622.79,-334.1 619.29,-324.1 615.79,-334.1 622.79,-334.1"/>
</g>
<!-- 6 -->
<g id="node15" class="node">
<title>6</title>
<ellipse fill="none" stroke="black" cx="734.29" cy="-306" rx="27" ry="18"/>
<text text-anchor="middle" x="734.29" y="-302.3" font-family="Times,serif" font-size="14.00">y</text>
</g>
<!-- 4556814896&#45;&gt;6 -->
<g id="edge14" class="edge">
<title>4556814896&#45;&gt;6</title>
<path fill="none" stroke="black" d="M860.48,-360.72C834.28,-350.56 800.15,-336.99 770.29,-324 768.48,-323.21 766.63,-322.39 764.77,-321.55"/>
<polygon fill="black" stroke="black" points="766.06,-318.29 755.51,-317.29 763.13,-324.65 766.06,-318.29"/>
</g>
<!-- 4556814848 -->
<g id="node16" class="node">
<title>4556814848</title>
<ellipse fill="none" stroke="black" cx="884.29" cy="-306" rx="104.78" ry="18"/>
<text text-anchor="start" x="811.79" y="-302.3" font-family="Times,serif" font-size="14.00">class &#39;javalang.tree.Literal&#39;</text>
</g>
<!-- 4556814896&#45;&gt;4556814848 -->
<g id="edge15" class="edge">
<title>4556814896&#45;&gt;4556814848</title>
<path fill="none" stroke="black" d="M898.59,-359.7C896.48,-351.9 893.93,-342.51 891.57,-333.83"/>
<polygon fill="black" stroke="black" points="894.93,-332.84 888.93,-324.1 888.17,-334.67 894.93,-332.84"/>
</g>
<!-- 7 -->
<g id="node17" class="node">
<title>7</title>
<ellipse fill="none" stroke="black" cx="884.29" cy="-234" rx="27" ry="18"/>
<text text-anchor="middle" x="884.29" y="-230.3" font-family="Times,serif" font-size="14.00">0</text>
</g>
<!-- 4556814848&#45;&gt;7 -->
<g id="edge16" class="edge">
<title>4556814848&#45;&gt;7</title>
<path fill="none" stroke="black" d="M884.29,-287.7C884.29,-279.98 884.29,-270.71 884.29,-262.11"/>
<polygon fill="black" stroke="black" points="887.79,-262.1 884.29,-252.1 880.79,-262.1 887.79,-262.1"/>
</g>
<!-- 8 -->
<g id="node20" class="node">
<title>8</title>
<ellipse fill="none" stroke="black" cx="1034.29" cy="-306" rx="27" ry="18"/>
<text text-anchor="middle" x="1034.29" y="-302.3" font-family="Times,serif" font-size="14.00">&gt;=</text>
</g>
<!-- 4556814944&#45;&gt;8 -->
<g id="edge19" class="edge">
<title>4556814944&#45;&gt;8</title>
<path fill="none" stroke="black" d="M1175.48,-361.17C1144.61,-351.33 1104.84,-337.94 1070.29,-324 1068.46,-323.26 1066.6,-322.48 1064.72,-321.67"/>
<polygon fill="black" stroke="black" points="1065.98,-318.4 1055.43,-317.48 1063.11,-324.78 1065.98,-318.4"/>
</g>
<!-- 4556815040 -->
<g id="node21" class="node">
<title>4556815040</title>
<ellipse fill="none" stroke="black" cx="1227.29" cy="-306" rx="147.57" ry="18"/>
<text text-anchor="start" x="1121.79" y="-302.3" font-family="Times,serif" font-size="14.00">class &#39;javalang.tree.MemberReference&#39;</text>
</g>
<!-- 4556814944&#45;&gt;4556815040 -->
<g id="edge20" class="edge">
<title>4556814944&#45;&gt;4556815040</title>
<path fill="none" stroke="black" d="M1227.29,-359.7C1227.29,-351.98 1227.29,-342.71 1227.29,-334.11"/>
<polygon fill="black" stroke="black" points="1230.79,-334.1 1227.29,-324.1 1223.79,-334.1 1230.79,-334.1"/>
</g>
<!-- 4556815136 -->
<g id="node22" class="node">
<title>4556815136</title>
<ellipse fill="none" stroke="black" cx="1497.29" cy="-306" rx="104.78" ry="18"/>
<text text-anchor="start" x="1424.79" y="-302.3" font-family="Times,serif" font-size="14.00">class &#39;javalang.tree.Literal&#39;</text>
</g>
<!-- 4556814944&#45;&gt;4556815136 -->
<g id="edge21" class="edge">
<title>4556814944&#45;&gt;4556815136</title>
<path fill="none" stroke="black" d="M1286.54,-361.64C1329.55,-350.49 1387.72,-335.41 1432.05,-323.91"/>
<polygon fill="black" stroke="black" points="1433.06,-327.27 1441.86,-321.37 1431.3,-320.49 1433.06,-327.27"/>
</g>
<!-- 4556815760 -->
<g id="node26" class="node">
<title>4556815760</title>
<ellipse fill="none" stroke="black" cx="1742.29" cy="-306" rx="122.38" ry="18"/>
<text text-anchor="start" x="1656.29" y="-302.3" font-family="Times,serif" font-size="14.00">class &#39;javalang.tree.IfStatement&#39;</text>
</g>
<!-- 4556815904&#45;&gt;4556815760 -->
<g id="edge25" class="edge">
<title>4556815904&#45;&gt;4556815760</title>
<path fill="none" stroke="black" d="M1742.29,-359.7C1742.29,-351.98 1742.29,-342.71 1742.29,-334.11"/>
<polygon fill="black" stroke="black" points="1745.79,-334.1 1742.29,-324.1 1738.79,-334.1 1745.79,-334.1"/>
</g>
<!-- 4556816192 -->
<g id="node27" class="node">
<title>4556816192</title>
<ellipse fill="none" stroke="black" cx="2038.29" cy="-306" rx="155.17" ry="18"/>
<text text-anchor="start" x="1926.79" y="-302.3" font-family="Times,serif" font-size="14.00">class &#39;javalang.tree.StatementExpression&#39;</text>
</g>
<!-- 4556815904&#45;&gt;4556816192 -->
<g id="edge26" class="edge">
<title>4556815904&#45;&gt;4556816192</title>
<path fill="none" stroke="black" d="M1805.79,-361.98C1852.04,-351.05 1914.84,-336.19 1963.51,-324.68"/>
<polygon fill="black" stroke="black" points="1964.44,-328.06 1973.36,-322.35 1962.82,-321.25 1964.44,-328.06"/>
</g>
<!-- 9 -->
<g id="node23" class="node">
<title>9</title>
<ellipse fill="none" stroke="black" cx="1191.29" cy="-234" rx="27" ry="18"/>
</g>
<!-- 4556815040&#45;&gt;9 -->
<g id="edge22" class="edge">
<title>4556815040&#45;&gt;9</title>
<path fill="none" stroke="black" d="M1218.39,-287.7C1214.13,-279.4 1208.94,-269.31 1204.24,-260.19"/>
<polygon fill="black" stroke="black" points="1207.28,-258.44 1199.59,-251.14 1201.05,-261.64 1207.28,-258.44"/>
</g>
<!-- 10 -->
<g id="node24" class="node">
<title>10</title>
<ellipse fill="none" stroke="black" cx="1263.29" cy="-234" rx="27" ry="18"/>
<text text-anchor="middle" x="1263.29" y="-230.3" font-family="Times,serif" font-size="14.00">x</text>
</g>
<!-- 4556815040&#45;&gt;10 -->
<g id="edge23" class="edge">
<title>4556815040&#45;&gt;10</title>
<path fill="none" stroke="black" d="M1236.19,-287.7C1240.45,-279.4 1245.64,-269.31 1250.34,-260.19"/>
<polygon fill="black" stroke="black" points="1253.53,-261.64 1254.99,-251.14 1247.3,-258.44 1253.53,-261.64"/>
</g>
<!-- 11 -->
<g id="node25" class="node">
<title>11</title>
<ellipse fill="none" stroke="black" cx="1434.29" cy="-234" rx="27" ry="18"/>
<text text-anchor="middle" x="1434.29" y="-230.3" font-family="Times,serif" font-size="14.00">0</text>
</g>
<!-- 4556815136&#45;&gt;11 -->
<g id="edge24" class="edge">
<title>4556815136&#45;&gt;11</title>
<path fill="none" stroke="black" d="M1482.04,-288.05C1473.76,-278.86 1463.43,-267.38 1454.49,-257.45"/>
<polygon fill="black" stroke="black" points="1456.98,-254.98 1447.69,-249.89 1451.78,-259.66 1456.98,-254.98"/>
</g>
<!-- 4556815520 -->
<g id="node28" class="node">
<title>4556815520</title>
<ellipse fill="none" stroke="black" cx="1619.29" cy="-234" rx="139.98" ry="18"/>
<text text-anchor="start" x="1519.79" y="-230.3" font-family="Times,serif" font-size="14.00">class &#39;javalang.tree.BinaryOperation&#39;</text>
</g>
<!-- 4556815760&#45;&gt;4556815520 -->
<g id="edge27" class="edge">
<title>4556815760&#45;&gt;4556815520</title>
<path fill="none" stroke="black" d="M1713.14,-288.41C1696.56,-278.98 1675.61,-267.05 1657.7,-256.86"/>
<polygon fill="black" stroke="black" points="1659.08,-253.62 1648.66,-251.71 1655.62,-259.7 1659.08,-253.62"/>
</g>
<!-- 4556815712 -->
<g id="node29" class="node">
<title>4556815712</title>
<ellipse fill="none" stroke="black" cx="1932.29" cy="-234" rx="155.17" ry="18"/>
<text text-anchor="start" x="1820.79" y="-230.3" font-family="Times,serif" font-size="14.00">class &#39;javalang.tree.StatementExpression&#39;</text>
</g>
<!-- 4556815760&#45;&gt;4556815712 -->
<g id="edge28" class="edge">
<title>4556815760&#45;&gt;4556815712</title>
<path fill="none" stroke="black" d="M1785.4,-289.12C1812.95,-278.97 1848.88,-265.73 1878.32,-254.88"/>
<polygon fill="black" stroke="black" points="1879.85,-258.05 1888.03,-251.31 1877.43,-251.48 1879.85,-258.05"/>
</g>
<!-- 4556816144 -->
<g id="node48" class="node">
<title>4556816144</title>
<ellipse fill="none" stroke="black" cx="2253.29" cy="-234" rx="147.57" ry="18"/>
<text text-anchor="start" x="2147.79" y="-230.3" font-family="Times,serif" font-size="14.00">class &#39;javalang.tree.MemberReference&#39;</text>
</g>
<!-- 4556816192&#45;&gt;4556816144 -->
<g id="edge47" class="edge">
<title>4556816192&#45;&gt;4556816144</title>
<path fill="none" stroke="black" d="M2087.88,-288.85C2119.6,-278.53 2160.9,-265.08 2194.3,-254.21"/>
<polygon fill="black" stroke="black" points="2195.52,-257.49 2203.94,-251.07 2193.35,-250.83 2195.52,-257.49"/>
</g>
<!-- 12 -->
<g id="node30" class="node">
<title>12</title>
<ellipse fill="none" stroke="black" cx="1218.29" cy="-162" rx="27" ry="18"/>
<text text-anchor="middle" x="1218.29" y="-158.3" font-family="Times,serif" font-size="14.00">==</text>
</g>
<!-- 4556815520&#45;&gt;12 -->
<g id="edge29" class="edge">
<title>4556815520&#45;&gt;12</title>
<path fill="none" stroke="black" d="M1517.17,-221.6C1426.79,-210.89 1302.03,-194.39 1254.29,-180 1252.35,-179.42 1250.39,-178.74 1248.43,-178.01"/>
<polygon fill="black" stroke="black" points="1249.39,-174.62 1238.81,-173.97 1246.68,-181.07 1249.39,-174.62"/>
</g>
<!-- 4556815568 -->
<g id="node31" class="node">
<title>4556815568</title>
<ellipse fill="none" stroke="black" cx="1403.29" cy="-162" rx="139.98" ry="18"/>
<text text-anchor="start" x="1303.79" y="-158.3" font-family="Times,serif" font-size="14.00">class &#39;javalang.tree.BinaryOperation&#39;</text>
</g>
<!-- 4556815520&#45;&gt;4556815568 -->
<g id="edge30" class="edge">
<title>4556815520&#45;&gt;4556815568</title>
<path fill="none" stroke="black" d="M1570.28,-217.12C1538.22,-206.73 1496.15,-193.09 1462.26,-182.11"/>
<polygon fill="black" stroke="black" points="1463.07,-178.7 1452.48,-178.94 1460.92,-185.35 1463.07,-178.7"/>
</g>
<!-- 4556815280 -->
<g id="node32" class="node">
<title>4556815280</title>
<ellipse fill="none" stroke="black" cx="1665.29" cy="-162" rx="104.78" ry="18"/>
<text text-anchor="start" x="1592.79" y="-158.3" font-family="Times,serif" font-size="14.00">class &#39;javalang.tree.Literal&#39;</text>
</g>
<!-- 4556815520&#45;&gt;4556815280 -->
<g id="edge31" class="edge">
<title>4556815520&#45;&gt;4556815280</title>
<path fill="none" stroke="black" d="M1630.42,-216.05C1635.82,-207.84 1642.43,-197.79 1648.43,-188.66"/>
<polygon fill="black" stroke="black" points="1651.37,-190.55 1653.94,-180.28 1645.52,-186.71 1651.37,-190.55"/>
</g>
<!-- 4556815472 -->
<g id="node40" class="node">
<title>4556815472</title>
<ellipse fill="none" stroke="black" cx="1944.29" cy="-162" rx="123.48" ry="18"/>
<text text-anchor="start" x="1857.29" y="-158.3" font-family="Times,serif" font-size="14.00">class &#39;javalang.tree.Assignment&#39;</text>
</g>
<!-- 4556815712&#45;&gt;4556815472 -->
<g id="edge39" class="edge">
<title>4556815712&#45;&gt;4556815472</title>
<path fill="none" stroke="black" d="M1935.26,-215.7C1936.58,-207.98 1938.17,-198.71 1939.64,-190.11"/>
<polygon fill="black" stroke="black" points="1943.12,-190.55 1941.36,-180.1 1936.22,-189.37 1943.12,-190.55"/>
</g>
<!-- 13 -->
<g id="node33" class="node">
<title>13</title>
<ellipse fill="none" stroke="black" cx="1052.29" cy="-90" rx="27" ry="18"/>
<text text-anchor="middle" x="1052.29" y="-86.3" font-family="Times,serif" font-size="14.00">%</text>
</g>
<!-- 4556815568&#45;&gt;13 -->
<g id="edge32" class="edge">
<title>4556815568&#45;&gt;13</title>
<path fill="none" stroke="black" d="M1311.38,-148.39C1233.72,-137.2 1128.84,-120.72 1088.29,-108 1086.36,-107.39 1084.4,-106.71 1082.45,-105.96"/>
<polygon fill="black" stroke="black" points="1083.41,-102.57 1072.84,-101.89 1080.68,-109.01 1083.41,-102.57"/>
</g>
<!-- 4556815232 -->
<g id="node34" class="node">
<title>4556815232</title>
<ellipse fill="none" stroke="black" cx="1245.29" cy="-90" rx="147.57" ry="18"/>
<text text-anchor="start" x="1139.79" y="-86.3" font-family="Times,serif" font-size="14.00">class &#39;javalang.tree.MemberReference&#39;</text>
</g>
<!-- 4556815568&#45;&gt;4556815232 -->
<g id="edge33" class="edge">
<title>4556815568&#45;&gt;4556815232</title>
<path fill="none" stroke="black" d="M1366.25,-144.59C1343.94,-134.71 1315.35,-122.04 1291.57,-111.5"/>
<polygon fill="black" stroke="black" points="1292.94,-108.28 1282.37,-107.43 1290.1,-114.68 1292.94,-108.28"/>
</g>
<!-- 4556815184 -->
<g id="node35" class="node">
<title>4556815184</title>
<ellipse fill="none" stroke="black" cx="1515.29" cy="-90" rx="104.78" ry="18"/>
<text text-anchor="start" x="1442.79" y="-86.3" font-family="Times,serif" font-size="14.00">class &#39;javalang.tree.Literal&#39;</text>
</g>
<!-- 4556815568&#45;&gt;4556815184 -->
<g id="edge34" class="edge">
<title>4556815568&#45;&gt;4556815184</title>
<path fill="none" stroke="black" d="M1430.12,-144.23C1445.08,-134.88 1463.89,-123.12 1480.03,-113.04"/>
<polygon fill="black" stroke="black" points="1482.06,-115.9 1488.68,-107.63 1478.35,-109.96 1482.06,-115.9"/>
</g>
<!-- 17 -->
<g id="node39" class="node">
<title>17</title>
<ellipse fill="none" stroke="black" cx="1665.29" cy="-90" rx="27" ry="18"/>
<text text-anchor="middle" x="1665.29" y="-86.3" font-family="Times,serif" font-size="14.00">0</text>
</g>
<!-- 4556815280&#45;&gt;17 -->
<g id="edge38" class="edge">
<title>4556815280&#45;&gt;17</title>
<path fill="none" stroke="black" d="M1665.29,-143.7C1665.29,-135.98 1665.29,-126.71 1665.29,-118.11"/>
<polygon fill="black" stroke="black" points="1668.79,-118.1 1665.29,-108.1 1661.79,-118.1 1668.79,-118.1"/>
</g>
<!-- 14 -->
<g id="node36" class="node">
<title>14</title>
<ellipse fill="none" stroke="black" cx="1209.29" cy="-18" rx="27" ry="18"/>
</g>
<!-- 4556815232&#45;&gt;14 -->
<g id="edge35" class="edge">
<title>4556815232&#45;&gt;14</title>
<path fill="none" stroke="black" d="M1236.39,-71.7C1232.13,-63.4 1226.94,-53.31 1222.24,-44.19"/>
<polygon fill="black" stroke="black" points="1225.28,-42.44 1217.59,-35.14 1219.05,-45.64 1225.28,-42.44"/>
</g>
<!-- 15 -->
<g id="node37" class="node">
<title>15</title>
<ellipse fill="none" stroke="black" cx="1281.29" cy="-18" rx="27" ry="18"/>
<text text-anchor="middle" x="1281.29" y="-14.3" font-family="Times,serif" font-size="14.00">x</text>
</g>
<!-- 4556815232&#45;&gt;15 -->
<g id="edge36" class="edge">
<title>4556815232&#45;&gt;15</title>
<path fill="none" stroke="black" d="M1254.19,-71.7C1258.45,-63.4 1263.64,-53.31 1268.34,-44.19"/>
<polygon fill="black" stroke="black" points="1271.53,-45.64 1272.99,-35.14 1265.3,-42.44 1271.53,-45.64"/>
</g>
<!-- 16 -->
<g id="node38" class="node">
<title>16</title>
<ellipse fill="none" stroke="black" cx="1515.29" cy="-18" rx="27" ry="18"/>
<text text-anchor="middle" x="1515.29" y="-14.3" font-family="Times,serif" font-size="14.00">2</text>
</g>
<!-- 4556815184&#45;&gt;16 -->
<g id="edge37" class="edge">
<title>4556815184&#45;&gt;16</title>
<path fill="none" stroke="black" d="M1515.29,-71.7C1515.29,-63.98 1515.29,-54.71 1515.29,-46.11"/>
<polygon fill="black" stroke="black" points="1518.79,-46.1 1515.29,-36.1 1511.79,-46.1 1518.79,-46.1"/>
</g>
<!-- 4556815424 -->
<g id="node41" class="node">
<title>4556815424</title>
<ellipse fill="none" stroke="black" cx="1858.29" cy="-90" rx="147.57" ry="18"/>
<text text-anchor="start" x="1752.79" y="-86.3" font-family="Times,serif" font-size="14.00">class &#39;javalang.tree.MemberReference&#39;</text>
</g>
<!-- 4556815472&#45;&gt;4556815424 -->
<g id="edge40" class="edge">
<title>4556815472&#45;&gt;4556815424</title>
<path fill="none" stroke="black" d="M1923.47,-144.05C1912.57,-135.18 1899.04,-124.17 1887.14,-114.48"/>
<polygon fill="black" stroke="black" points="1889.18,-111.63 1879.21,-108.03 1884.76,-117.06 1889.18,-111.63"/>
</g>
<!-- 4556815376 -->
<g id="node42" class="node">
<title>4556815376</title>
<ellipse fill="none" stroke="black" cx="2171.29" cy="-90" rx="147.57" ry="18"/>
<text text-anchor="start" x="2065.79" y="-86.3" font-family="Times,serif" font-size="14.00">class &#39;javalang.tree.MemberReference&#39;</text>
</g>
<!-- 4556815472&#45;&gt;4556815376 -->
<g id="edge41" class="edge">
<title>4556815472&#45;&gt;4556815376</title>
<path fill="none" stroke="black" d="M1994.67,-145.46C2028.58,-135.01 2073.5,-121.15 2109.56,-110.04"/>
<polygon fill="black" stroke="black" points="2110.95,-113.27 2119.48,-106.98 2108.89,-106.58 2110.95,-113.27"/>
</g>
<!-- 18 -->
<g id="node43" class="node">
<title>18</title>
<ellipse fill="none" stroke="black" cx="2364.29" cy="-90" rx="27" ry="18"/>
<text text-anchor="middle" x="2364.29" y="-86.3" font-family="Times,serif" font-size="14.00">+=</text>
</g>
<!-- 4556815472&#45;&gt;18 -->
<g id="edge42" class="edge">
<title>4556815472&#45;&gt;18</title>
<path fill="none" stroke="black" d="M2035.9,-149.84C2140.53,-136.85 2300.88,-116.16 2328.29,-108 2330.23,-107.42 2332.19,-106.76 2334.15,-106.03"/>
<polygon fill="black" stroke="black" points="2335.9,-109.09 2343.77,-102 2333.2,-102.63 2335.9,-109.09"/>
</g>
<!-- 19 -->
<g id="node44" class="node">
<title>19</title>
<ellipse fill="none" stroke="black" cx="1822.29" cy="-18" rx="27" ry="18"/>
</g>
<!-- 4556815424&#45;&gt;19 -->
<g id="edge43" class="edge">
<title>4556815424&#45;&gt;19</title>
<path fill="none" stroke="black" d="M1849.39,-71.7C1845.13,-63.4 1839.94,-53.31 1835.24,-44.19"/>
<polygon fill="black" stroke="black" points="1838.28,-42.44 1830.59,-35.14 1832.05,-45.64 1838.28,-42.44"/>
</g>
<!-- 20 -->
<g id="node45" class="node">
<title>20</title>
<ellipse fill="none" stroke="black" cx="1894.29" cy="-18" rx="27" ry="18"/>
<text text-anchor="middle" x="1894.29" y="-14.3" font-family="Times,serif" font-size="14.00">y</text>
</g>
<!-- 4556815424&#45;&gt;20 -->
<g id="edge44" class="edge">
<title>4556815424&#45;&gt;20</title>
<path fill="none" stroke="black" d="M1867.19,-71.7C1871.45,-63.4 1876.64,-53.31 1881.34,-44.19"/>
<polygon fill="black" stroke="black" points="1884.53,-45.64 1885.99,-35.14 1878.3,-42.44 1884.53,-45.64"/>
</g>
<!-- 21 -->
<g id="node46" class="node">
<title>21</title>
<ellipse fill="none" stroke="black" cx="2135.29" cy="-18" rx="27" ry="18"/>
</g>
<!-- 4556815376&#45;&gt;21 -->
<g id="edge45" class="edge">
<title>4556815376&#45;&gt;21</title>
<path fill="none" stroke="black" d="M2162.39,-71.7C2158.13,-63.4 2152.94,-53.31 2148.24,-44.19"/>
<polygon fill="black" stroke="black" points="2151.28,-42.44 2143.59,-35.14 2145.05,-45.64 2151.28,-42.44"/>
</g>
<!-- 22 -->
<g id="node47" class="node">
<title>22</title>
<ellipse fill="none" stroke="black" cx="2207.29" cy="-18" rx="27" ry="18"/>
<text text-anchor="middle" x="2207.29" y="-14.3" font-family="Times,serif" font-size="14.00">x</text>
</g>
<!-- 4556815376&#45;&gt;22 -->
<g id="edge46" class="edge">
<title>4556815376&#45;&gt;22</title>
<path fill="none" stroke="black" d="M2180.19,-71.7C2184.45,-63.4 2189.64,-53.31 2194.34,-44.19"/>
<polygon fill="black" stroke="black" points="2197.53,-45.64 2198.99,-35.14 2191.3,-42.44 2197.53,-45.64"/>
</g>
<!-- 4556799664 -->
<g id="node49" class="node">
<title>4556799664</title>
<ellipse fill="none" stroke="black" cx="2153.29" cy="-162" rx="54.69" ry="18"/>
<text text-anchor="middle" x="2153.29" y="-158.3" font-family="Times,serif" font-size="14.00">4556799664</text>
</g>
<!-- 4556816144&#45;&gt;4556799664 -->
<g id="edge48" class="edge">
<title>4556816144&#45;&gt;4556799664</title>
<path fill="none" stroke="black" d="M2229.34,-216.23C2215.72,-206.7 2198.52,-194.66 2183.92,-184.44"/>
<polygon fill="black" stroke="black" points="2185.88,-181.54 2175.68,-178.67 2181.86,-187.27 2185.88,-181.54"/>
</g>
<!-- 23 -->
<g id="node50" class="node">
<title>23</title>
<ellipse fill="none" stroke="black" cx="2253.29" cy="-162" rx="27" ry="18"/>
</g>
<!-- 4556816144&#45;&gt;23 -->
<g id="edge49" class="edge">
<title>4556816144&#45;&gt;23</title>
<path fill="none" stroke="black" d="M2253.29,-215.7C2253.29,-207.98 2253.29,-198.71 2253.29,-190.11"/>
<polygon fill="black" stroke="black" points="2256.79,-190.1 2253.29,-180.1 2249.79,-190.1 2256.79,-190.1"/>
</g>
<!-- 24 -->
<g id="node51" class="node">
<title>24</title>
<ellipse fill="none" stroke="black" cx="2325.29" cy="-162" rx="27" ry="18"/>
<text text-anchor="middle" x="2325.29" y="-158.3" font-family="Times,serif" font-size="14.00">x</text>
</g>
<!-- 4556816144&#45;&gt;24 -->
<g id="edge50" class="edge">
<title>4556816144&#45;&gt;24</title>
<path fill="none" stroke="black" d="M2270.72,-216.05C2280.5,-206.55 2292.79,-194.59 2303.24,-184.44"/>
<polygon fill="black" stroke="black" points="2305.72,-186.9 2310.45,-177.42 2300.84,-181.89 2305.72,-186.9"/>
</g>
<!-- 25 -->
<g id="node53" class="node">
<title>25</title>
<ellipse fill="none" stroke="black" cx="2238.29" cy="-306" rx="27" ry="18"/>
</g>
<!-- 4556816240&#45;&gt;25 -->
<g id="edge52" class="edge">
<title>4556816240&#45;&gt;25</title>
<path fill="none" stroke="black" d="M2238.29,-359.7C2238.29,-351.98 2238.29,-342.71 2238.29,-334.11"/>
<polygon fill="black" stroke="black" points="2241.79,-334.1 2238.29,-324.1 2234.79,-334.1 2241.79,-334.1"/>
</g>
<!-- 26 -->
<g id="node54" class="node">
<title>26</title>
<ellipse fill="none" stroke="black" cx="2310.29" cy="-306" rx="27" ry="18"/>
<text text-anchor="middle" x="2310.29" y="-302.3" font-family="Times,serif" font-size="14.00">y</text>
</g>
<!-- 4556816240&#45;&gt;26 -->
<g id="edge53" class="edge">
<title>4556816240&#45;&gt;26</title>
<path fill="none" stroke="black" d="M2255.72,-360.05C2265.5,-350.55 2277.79,-338.59 2288.24,-328.44"/>
<polygon fill="black" stroke="black" points="2290.72,-330.9 2295.45,-321.42 2285.84,-325.89 2290.72,-330.9"/>
</g>
</g>
</svg>
