<?xml version="1.0" encoding="UTF-8" standalone="no"?>
<!DOCTYPE svg PUBLIC "-//W3C//DTD SVG 1.1//EN"
 "http://www.w3.org/Graphics/SVG/1.1/DTD/svg11.dtd">
<!-- Generated by graphviz version 3.0.0 (20220226.1711)
 -->
<!-- Pages: 1 -->
<svg width="240pt" height="724pt"
 viewBox="0.00 0.00 240.00 724.00" xmlns="http://www.w3.org/2000/svg" xmlns:xlink="http://www.w3.org/1999/xlink">
<g id="graph0" class="graph" transform="scale(1 1) rotate(0) translate(4 720)">
<polygon fill="white" stroke="transparent" points="-4,4 -4,-720 236,-720 236,4 -4,4"/>
<g id="clust1" class="cluster">
<title>cluster_bar</title>
<polygon fill="none" stroke="black" points="55,-8 55,-276 212,-276 212,-8 55,-8"/>
</g>
<g id="clust2" class="cluster">
<title>cluster_foo</title>
<polygon fill="none" stroke="black" points="8,-296 8,-708 212,-708 212,-296 8,-296"/>
</g>
<!-- bar_Start -->
<g id="node1" class="node">
<title>bar_Start</title>
<ellipse fill="none" stroke="black" cx="128" cy="-250" rx="42.79" ry="18"/>
<text text-anchor="middle" x="128" y="-246.3" font-family="Times,serif" font-size="14.00">bar_Start</text>
</g>
<!-- bar_3 -->
<g id="node3" class="node">
<title>bar_3</title>
<ellipse fill="none" stroke="black" cx="128" cy="-178" rx="30.59" ry="18"/>
<text text-anchor="middle" x="128" y="-174.3" font-family="Times,serif" font-size="14.00">bar_3</text>
</g>
<!-- bar_Start&#45;&gt;bar_3 -->
<g id="edge9" class="edge">
<title>bar_Start&#45;&gt;bar_3</title>
<path fill="none" stroke="black" d="M128,-231.7C128,-223.98 128,-214.71 128,-206.11"/>
<polygon fill="black" stroke="black" points="131.5,-206.1 128,-196.1 124.5,-206.1 131.5,-206.1"/>
</g>
<!-- bar_End -->
<g id="node2" class="node">
<title>bar_End</title>
<ellipse fill="none" stroke="black" cx="164" cy="-34" rx="40.09" ry="18"/>
<text text-anchor="middle" x="164" y="-30.3" font-family="Times,serif" font-size="14.00">bar_End</text>
</g>
<!-- foo_5 (Return) -->
<g id="node15" class="node">
<title>foo_5 (Return)</title>
<ellipse fill="none" stroke="black" cx="140" cy="-682" rx="63.89" ry="18"/>
<text text-anchor="middle" x="140" y="-678.3" font-family="Times,serif" font-size="14.00">foo_5 (Return)</text>
</g>
<!-- bar_End&#45;&gt;foo_5 (Return) -->
<g id="edge10" class="edge">
<title>bar_End&#45;&gt;foo_5 (Return)</title>
<path fill="none" stroke="black" d="M182.48,-50.37C192.98,-60.1 205.5,-73.54 213,-88 231.62,-123.91 232,-136.55 232,-177 232,-539 232,-539 232,-539 232,-581.67 220.04,-592.75 196,-628 188.44,-639.08 178.22,-649.61 168.58,-658.32"/>
<polygon fill="black" stroke="black" points="166.27,-655.68 161.03,-664.89 170.87,-660.96 166.27,-655.68"/>
</g>
<!-- bar_4 -->
<g id="node4" class="node">
<title>bar_4</title>
<ellipse fill="none" stroke="black" cx="94" cy="-106" rx="30.59" ry="18"/>
<text text-anchor="middle" x="94" y="-102.3" font-family="Times,serif" font-size="14.00">bar_4</text>
</g>
<!-- bar_3&#45;&gt;bar_4 -->
<g id="edge11" class="edge">
<title>bar_3&#45;&gt;bar_4</title>
<path fill="none" stroke="black" d="M119.94,-160.41C115.92,-152.13 110.96,-141.92 106.46,-132.66"/>
<polygon fill="black" stroke="black" points="109.52,-130.94 102,-123.47 103.22,-133.99 109.52,-130.94"/>
</g>
<!-- bar_6 -->
<g id="node5" class="node">
<title>bar_6</title>
<ellipse fill="none" stroke="black" cx="173" cy="-106" rx="30.59" ry="18"/>
<text text-anchor="middle" x="173" y="-102.3" font-family="Times,serif" font-size="14.00">bar_6</text>
</g>
<!-- bar_3&#45;&gt;bar_6 -->
<g id="edge12" class="edge">
<title>bar_3&#45;&gt;bar_6</title>
<path fill="none" stroke="black" d="M138.44,-160.76C144,-152.11 150.97,-141.27 157.18,-131.6"/>
<polygon fill="black" stroke="black" points="160.16,-133.45 162.62,-123.15 154.27,-129.67 160.16,-133.45"/>
</g>
<!-- bar_4&#45;&gt;bar_End -->
<g id="edge13" class="edge">
<title>bar_4&#45;&gt;bar_End</title>
<path fill="none" stroke="black" d="M108.85,-90.15C118.15,-80.85 130.33,-68.67 140.88,-58.12"/>
<polygon fill="black" stroke="black" points="143.61,-60.34 148.2,-50.8 138.66,-55.39 143.61,-60.34"/>
</g>
<!-- bar_6&#45;&gt;bar_End -->
<g id="edge14" class="edge">
<title>bar_6&#45;&gt;bar_End</title>
<path fill="none" stroke="black" d="M170.78,-87.7C169.78,-79.98 168.59,-70.71 167.49,-62.11"/>
<polygon fill="black" stroke="black" points="170.95,-61.58 166.2,-52.1 164,-62.47 170.95,-61.58"/>
</g>
<!-- foo_Start -->
<g id="node6" class="node">
<title>foo_Start</title>
<ellipse fill="none" stroke="black" cx="160" cy="-466" rx="43.59" ry="18"/>
<text text-anchor="middle" x="160" y="-462.3" font-family="Times,serif" font-size="14.00">foo_Start</text>
</g>
<!-- foo_3 -->
<g id="node8" class="node">
<title>foo_3</title>
<ellipse fill="none" stroke="black" cx="160" cy="-394" rx="31.4" ry="18"/>
<text text-anchor="middle" x="160" y="-390.3" font-family="Times,serif" font-size="14.00">foo_3</text>
</g>
<!-- foo_Start&#45;&gt;foo_3 -->
<g id="edge1" class="edge">
<title>foo_Start&#45;&gt;foo_3</title>
<path fill="none" stroke="black" d="M160,-447.7C160,-439.98 160,-430.71 160,-422.11"/>
<polygon fill="black" stroke="black" points="163.5,-422.1 160,-412.1 156.5,-422.1 163.5,-422.1"/>
</g>
<!-- foo_End -->
<g id="node7" class="node">
<title>foo_End</title>
<ellipse fill="none" stroke="black" cx="153" cy="-538" rx="40.89" ry="18"/>
<text text-anchor="middle" x="153" y="-534.3" font-family="Times,serif" font-size="14.00">foo_End</text>
</g>
<!-- foo_5 (Call) -->
<g id="node14" class="node">
<title>foo_5 (Call)</title>
<ellipse fill="none" stroke="black" cx="128" cy="-322" rx="53.89" ry="18"/>
<text text-anchor="middle" x="128" y="-318.3" font-family="Times,serif" font-size="14.00">foo_5 (Call)</text>
</g>
<!-- foo_3&#45;&gt;foo_5 (Call) -->
<g id="edge2" class="edge">
<title>foo_3&#45;&gt;foo_5 (Call)</title>
<path fill="none" stroke="black" d="M152.42,-376.41C148.69,-368.25 144.1,-358.22 139.92,-349.07"/>
<polygon fill="black" stroke="black" points="143.09,-347.6 135.75,-339.96 136.73,-350.51 143.09,-347.6"/>
</g>
<!-- foo_6 -->
<g id="node9" class="node">
<title>foo_6</title>
<ellipse fill="none" stroke="black" cx="64" cy="-610" rx="31.4" ry="18"/>
<text text-anchor="middle" x="64" y="-606.3" font-family="Times,serif" font-size="14.00">foo_6</text>
</g>
<!-- foo_7 -->
<g id="node11" class="node">
<title>foo_7</title>
<ellipse fill="none" stroke="black" cx="63" cy="-538" rx="31.4" ry="18"/>
<text text-anchor="middle" x="63" y="-534.3" font-family="Times,serif" font-size="14.00">foo_7</text>
</g>
<!-- foo_6&#45;&gt;foo_7 -->
<g id="edge3" class="edge">
<title>foo_6&#45;&gt;foo_7</title>
<path fill="none" stroke="black" d="M63.75,-591.7C63.64,-583.98 63.51,-574.71 63.39,-566.11"/>
<polygon fill="black" stroke="black" points="66.89,-566.05 63.24,-556.1 59.89,-566.15 66.89,-566.05"/>
</g>
<!-- foo_12 -->
<g id="node10" class="node">
<title>foo_12</title>
<ellipse fill="none" stroke="black" cx="151" cy="-610" rx="36" ry="18"/>
<text text-anchor="middle" x="151" y="-606.3" font-family="Times,serif" font-size="14.00">foo_12</text>
</g>
<!-- foo_12&#45;&gt;foo_End -->
<g id="edge4" class="edge">
<title>foo_12&#45;&gt;foo_End</title>
<path fill="none" stroke="black" d="M151.49,-591.7C151.71,-583.98 151.98,-574.71 152.23,-566.11"/>
<polygon fill="black" stroke="black" points="155.72,-566.2 152.51,-556.1 148.73,-566 155.72,-566.2"/>
</g>
<!-- foo_8 -->
<g id="node12" class="node">
<title>foo_8</title>
<ellipse fill="none" stroke="black" cx="47" cy="-466" rx="31.4" ry="18"/>
<text text-anchor="middle" x="47" y="-462.3" font-family="Times,serif" font-size="14.00">foo_8</text>
</g>
<!-- foo_7&#45;&gt;foo_8 -->
<g id="edge5" class="edge">
<title>foo_7&#45;&gt;foo_8</title>
<path fill="none" stroke="black" d="M59.13,-520.05C57.35,-512.26 55.19,-502.82 53.19,-494.08"/>
<polygon fill="black" stroke="black" points="56.59,-493.24 50.95,-484.28 49.76,-494.8 56.59,-493.24"/>
</g>
<!-- foo_9 -->
<g id="node13" class="node">
<title>foo_9</title>
<ellipse fill="none" stroke="black" cx="80" cy="-394" rx="31.4" ry="18"/>
<text text-anchor="middle" x="80" y="-390.3" font-family="Times,serif" font-size="14.00">foo_9</text>
</g>
<!-- foo_7&#45;&gt;foo_9 -->
<g id="edge6" class="edge">
<title>foo_7&#45;&gt;foo_9</title>
<path fill="none" stroke="black" d="M72.71,-520.45C78.08,-510.3 84.23,-496.84 87,-484 91.44,-463.45 89.21,-439.7 86.13,-421.9"/>
<polygon fill="black" stroke="black" points="89.54,-421.08 84.21,-411.93 82.66,-422.41 89.54,-421.08"/>
</g>
<!-- foo_8&#45;&gt;foo_9 -->
<g id="edge7" class="edge">
<title>foo_8&#45;&gt;foo_9</title>
<path fill="none" stroke="black" d="M54.82,-448.41C58.72,-440.13 63.54,-429.92 67.9,-420.66"/>
<polygon fill="black" stroke="black" points="71.14,-422.01 72.24,-411.47 64.81,-419.02 71.14,-422.01"/>
</g>
<!-- foo_9&#45;&gt;foo_5 (Call) -->
<g id="edge8" class="edge">
<title>foo_9&#45;&gt;foo_5 (Call)</title>
<path fill="none" stroke="black" d="M90.89,-377.12C96.74,-368.59 104.08,-357.89 110.68,-348.25"/>
<polygon fill="black" stroke="black" points="113.71,-350.02 116.48,-339.8 107.94,-346.07 113.71,-350.02"/>
</g>
<!-- foo_5 (Call)&#45;&gt;bar_Start -->
<g id="edge15" class="edge">
<title>foo_5 (Call)&#45;&gt;bar_Start</title>
<path fill="none" stroke="black" d="M128,-303.7C128,-295.98 128,-286.71 128,-278.11"/>
<polygon fill="black" stroke="black" points="131.5,-278.1 128,-268.1 124.5,-278.1 131.5,-278.1"/>
</g>
<!-- foo_5 (Return)&#45;&gt;foo_6 -->
<g id="edge16" class="edge">
<title>foo_5 (Return)&#45;&gt;foo_6</title>
<path fill="none" stroke="black" d="M121.99,-664.41C111.57,-654.82 98.36,-642.65 87.18,-632.35"/>
<polygon fill="black" stroke="black" points="89.55,-629.77 79.82,-625.57 84.8,-634.92 89.55,-629.77"/>
</g>
<!-- foo_5 (Return)&#45;&gt;foo_12 -->
<g id="edge17" class="edge">
<title>foo_5 (Return)&#45;&gt;foo_12</title>
<path fill="none" stroke="black" d="M142.72,-663.7C143.93,-655.98 145.39,-646.71 146.74,-638.11"/>
<polygon fill="black" stroke="black" points="150.22,-638.53 148.31,-628.1 143.3,-637.44 150.22,-638.53"/>
</g>
</g>
</svg>
