<?xml version="1.0" encoding="UTF-8" standalone="no"?>
<!DOCTYPE svg PUBLIC "-//W3C//DTD SVG 1.1//EN"
 "http://www.w3.org/Graphics/SVG/1.1/DTD/svg11.dtd">
<!-- Generated by graphviz version 3.0.0 (20220226.1711)
 -->
<!-- Pages: 1 -->
<svg width="475pt" height="580pt"
 viewBox="0.00 0.00 474.62 580.00" xmlns="http://www.w3.org/2000/svg" xmlns:xlink="http://www.w3.org/1999/xlink">
<g id="graph0" class="graph" transform="scale(1 1) rotate(0) translate(4 576)">
<polygon fill="white" stroke="transparent" points="-4,4 -4,-576 470.62,-576 470.62,4 -4,4"/>
<g id="clust1" class="cluster">
<title>cluster_bar</title>
<polygon fill="none" stroke="black" points="290,-368 290,-564 392,-564 392,-368 290,-368"/>
</g>
<g id="clust2" class="cluster">
<title>cluster_foo</title>
<polygon fill="none" stroke="black" points="8,-8 8,-348 402,-348 402,-8 8,-8"/>
</g>
<!-- bar_Start -->
<g id="node1" class="node">
<title>bar_Start</title>
<ellipse fill="none" stroke="black" cx="341" cy="-538" rx="42.79" ry="18"/>
<text text-anchor="middle" x="341" y="-534.3" font-family="Times,serif" font-size="14.00">bar_Start</text>
</g>
<!-- bar_3 -->
<g id="node3" class="node">
<title>bar_3</title>
<ellipse fill="none" stroke="black" cx="340" cy="-466" rx="30.59" ry="18"/>
<text text-anchor="middle" x="340" y="-462.3" font-family="Times,serif" font-size="14.00">bar_3</text>
</g>
<!-- bar_Start&#45;&gt;bar_3 -->
<g id="edge5" class="edge">
<title>bar_Start&#45;&gt;bar_3</title>
<path fill="none" stroke="black" d="M334.88,-520.05C333.94,-512.23 333.56,-502.75 333.8,-493.98"/>
<polygon fill="black" stroke="black" points="337.3,-493.97 334.38,-483.79 330.31,-493.57 337.3,-493.97"/>
</g>
<!-- bar_Start&#45;&gt;bar_3 -->
<g id="edge10" class="edge">
<title>bar_Start&#45;&gt;bar_3</title>
<path fill="none" stroke="black" d="M346.64,-520.05C347.35,-512.23 347.46,-502.75 346.98,-493.98"/>
<polygon fill="black" stroke="black" points="350.44,-493.45 346.1,-483.79 343.47,-494.05 350.44,-493.45"/>
</g>
<!-- bar_End -->
<g id="node2" class="node">
<title>bar_End</title>
<ellipse fill="none" stroke="black" cx="339" cy="-394" rx="40.09" ry="18"/>
<text text-anchor="middle" x="339" y="-390.3" font-family="Times,serif" font-size="14.00">bar_End</text>
</g>
<!-- foo_4 (Return) -->
<g id="node10" class="node">
<title>foo_4 (Return)</title>
<ellipse fill="none" stroke="black" cx="330" cy="-322" rx="63.89" ry="18"/>
<text text-anchor="middle" x="330" y="-318.3" font-family="Times,serif" font-size="14.00">foo_4 (Return)</text>
</g>
<!-- bar_End&#45;&gt;foo_4 (Return) -->
<g id="edge6" class="edge">
<title>bar_End&#45;&gt;foo_4 (Return)</title>
<path fill="none" stroke="black" d="M336.78,-375.7C335.78,-367.98 334.59,-358.71 333.49,-350.11"/>
<polygon fill="black" stroke="black" points="336.95,-349.58 332.2,-340.1 330,-350.47 336.95,-349.58"/>
</g>
<!-- foo_5 (Return) -->
<g id="node12" class="node">
<title>foo_5 (Return)</title>
<ellipse fill="none" stroke="black" cx="80" cy="-322" rx="63.89" ry="18"/>
<text text-anchor="middle" x="80" y="-318.3" font-family="Times,serif" font-size="14.00">foo_5 (Return)</text>
</g>
<!-- bar_End&#45;&gt;foo_5 (Return) -->
<g id="edge11" class="edge">
<title>bar_End&#45;&gt;foo_5 (Return)</title>
<path fill="none" stroke="black" d="M303.22,-385.49C265.38,-377.28 204.07,-363.27 152,-348 143.79,-345.59 135.13,-342.8 126.77,-339.98"/>
<polygon fill="black" stroke="black" points="127.74,-336.62 117.14,-336.68 125.47,-343.24 127.74,-336.62"/>
</g>
<!-- bar_3&#45;&gt;bar_End -->
<g id="edge7" class="edge">
<title>bar_3&#45;&gt;bar_End</title>
<path fill="none" stroke="black" d="M333.88,-448.05C332.95,-440.35 332.58,-431.03 332.79,-422.36"/>
<polygon fill="black" stroke="black" points="336.29,-422.45 333.33,-412.28 329.3,-422.07 336.29,-422.45"/>
</g>
<!-- bar_3&#45;&gt;bar_End -->
<g id="edge12" class="edge">
<title>bar_3&#45;&gt;bar_End</title>
<path fill="none" stroke="black" d="M345.64,-448.05C346.34,-440.35 346.45,-431.03 346,-422.36"/>
<polygon fill="black" stroke="black" points="349.47,-421.95 345.16,-412.28 342.5,-422.53 349.47,-421.95"/>
</g>
<!-- foo_Start -->
<g id="node4" class="node">
<title>foo_Start</title>
<ellipse fill="none" stroke="black" cx="205" cy="-322" rx="43.59" ry="18"/>
<text text-anchor="middle" x="205" y="-318.3" font-family="Times,serif" font-size="14.00">foo_Start</text>
</g>
<!-- foo_4 (Call) -->
<g id="node9" class="node">
<title>foo_4 (Call)</title>
<ellipse fill="none" stroke="black" cx="207" cy="-250" rx="53.89" ry="18"/>
<text text-anchor="middle" x="207" y="-246.3" font-family="Times,serif" font-size="14.00">foo_4 (Call)</text>
</g>
<!-- foo_Start&#45;&gt;foo_4 (Call) -->
<g id="edge1" class="edge">
<title>foo_Start&#45;&gt;foo_4 (Call)</title>
<path fill="none" stroke="black" d="M205.49,-303.7C205.71,-295.98 205.98,-286.71 206.23,-278.11"/>
<polygon fill="black" stroke="black" points="209.72,-278.2 206.51,-268.1 202.73,-278 209.72,-278.2"/>
</g>
<!-- foo_End -->
<g id="node5" class="node">
<title>foo_End</title>
<ellipse fill="none" stroke="black" cx="80" cy="-34" rx="40.89" ry="18"/>
<text text-anchor="middle" x="80" y="-30.3" font-family="Times,serif" font-size="14.00">foo_End</text>
</g>
<!-- foo_7 -->
<g id="node6" class="node">
<title>foo_7</title>
<ellipse fill="none" stroke="black" cx="80" cy="-250" rx="31.4" ry="18"/>
<text text-anchor="middle" x="80" y="-246.3" font-family="Times,serif" font-size="14.00">foo_7</text>
</g>
<!-- foo_8 -->
<g id="node7" class="node">
<title>foo_8</title>
<ellipse fill="none" stroke="black" cx="80" cy="-178" rx="31.4" ry="18"/>
<text text-anchor="middle" x="80" y="-174.3" font-family="Times,serif" font-size="14.00">foo_8</text>
</g>
<!-- foo_7&#45;&gt;foo_8 -->
<g id="edge2" class="edge">
<title>foo_7&#45;&gt;foo_8</title>
<path fill="none" stroke="black" d="M80,-231.7C80,-223.98 80,-214.71 80,-206.11"/>
<polygon fill="black" stroke="black" points="83.5,-206.1 80,-196.1 76.5,-206.1 83.5,-206.1"/>
</g>
<!-- foo_10 -->
<g id="node8" class="node">
<title>foo_10</title>
<ellipse fill="none" stroke="black" cx="80" cy="-106" rx="36" ry="18"/>
<text text-anchor="middle" x="80" y="-102.3" font-family="Times,serif" font-size="14.00">foo_10</text>
</g>
<!-- foo_8&#45;&gt;foo_10 -->
<g id="edge3" class="edge">
<title>foo_8&#45;&gt;foo_10</title>
<path fill="none" stroke="black" d="M80,-159.7C80,-151.98 80,-142.71 80,-134.11"/>
<polygon fill="black" stroke="black" points="83.5,-134.1 80,-124.1 76.5,-134.1 83.5,-134.1"/>
</g>
<!-- foo_10&#45;&gt;foo_End -->
<g id="edge4" class="edge">
<title>foo_10&#45;&gt;foo_End</title>
<path fill="none" stroke="black" d="M80,-87.7C80,-79.98 80,-70.71 80,-62.11"/>
<polygon fill="black" stroke="black" points="83.5,-62.1 80,-52.1 76.5,-62.1 83.5,-62.1"/>
</g>
<!-- foo_4 (Call)&#45;&gt;bar_Start -->
<g id="edge8" class="edge">
<title>foo_4 (Call)&#45;&gt;bar_Start</title>
<path fill="none" stroke="black" d="M248.88,-261.65C305.73,-276.2 400.6,-300.87 403,-304 452.02,-368.04 411.48,-409.75 380,-484 375.61,-494.36 368.82,-504.6 362.13,-513.27"/>
<polygon fill="black" stroke="black" points="359.4,-511.08 355.83,-521.06 364.84,-515.49 359.4,-511.08"/>
</g>
<!-- foo_5 (Call) -->
<g id="node11" class="node">
<title>foo_5 (Call)</title>
<ellipse fill="none" stroke="black" cx="337" cy="-250" rx="53.89" ry="18"/>
<text text-anchor="middle" x="337" y="-246.3" font-family="Times,serif" font-size="14.00">foo_5 (Call)</text>
</g>
<!-- foo_4 (Return)&#45;&gt;foo_5 (Call) -->
<g id="edge9" class="edge">
<title>foo_4 (Return)&#45;&gt;foo_5 (Call)</title>
<path fill="none" stroke="black" d="M331.73,-303.7C332.5,-295.98 333.43,-286.71 334.29,-278.11"/>
<polygon fill="black" stroke="black" points="337.78,-278.4 335.29,-268.1 330.81,-277.71 337.78,-278.4"/>
</g>
<!-- foo_5 (Call)&#45;&gt;bar_Start -->
<g id="edge13" class="edge">
<title>foo_5 (Call)&#45;&gt;bar_Start</title>
<path fill="none" stroke="black" d="M377.9,-261.82C399.2,-269.76 423.38,-282.93 436,-304 477.11,-372.63 476.51,-415.01 436,-484 424.96,-502.81 404.54,-515.43 385.46,-523.63"/>
<polygon fill="black" stroke="black" points="383.95,-520.46 375.95,-527.41 386.54,-526.96 383.95,-520.46"/>
</g>
<!-- foo_5 (Return)&#45;&gt;foo_7 -->
<g id="edge14" class="edge">
<title>foo_5 (Return)&#45;&gt;foo_7</title>
<path fill="none" stroke="black" d="M80,-303.7C80,-295.98 80,-286.71 80,-278.11"/>
<polygon fill="black" stroke="black" points="83.5,-278.1 80,-268.1 76.5,-278.1 83.5,-278.1"/>
</g>
</g>
</svg>
