<?xml version="1.0" encoding="UTF-8" standalone="no"?>
<!DOCTYPE svg PUBLIC "-//W3C//DTD SVG 1.1//EN"
 "http://www.w3.org/Graphics/SVG/1.1/DTD/svg11.dtd">
<!-- Generated by graphviz version 3.0.0 (20220226.1711)
 -->
<!-- Pages: 1 -->
<svg width="436pt" height="580pt"
 viewBox="0.00 0.00 435.74 580.00" xmlns="http://www.w3.org/2000/svg" xmlns:xlink="http://www.w3.org/1999/xlink">
<g id="graph0" class="graph" transform="scale(1 1) rotate(0) translate(4 576)">
<polygon fill="white" stroke="transparent" points="-4,4 -4,-576 431.74,-576 431.74,4 -4,4"/>
<g id="clust1" class="cluster">
<title>cluster_foo</title>
<polygon fill="none" stroke="black" points="8,-8 8,-348 402,-348 402,-8 8,-8"/>
</g>
<g id="clust2" class="cluster">
<title>cluster_bar_2</title>
<polygon fill="none" stroke="black" points="277,-368 277,-564 397,-564 397,-368 277,-368"/>
</g>
<g id="clust3" class="cluster">
<title>cluster_bar_1</title>
<polygon fill="none" stroke="black" points="64,-368 64,-564 184,-564 184,-368 64,-368"/>
</g>
<!-- foo_Start -->
<g id="node1" class="node">
<title>foo_Start</title>
<ellipse fill="none" stroke="black" cx="60" cy="-322" rx="43.59" ry="18"/>
<text text-anchor="middle" x="60" y="-318.3" font-family="Times,serif" font-size="14.00">foo_Start</text>
</g>
<!-- foo_4 (Call) -->
<g id="node6" class="node">
<title>foo_4 (Call)</title>
<ellipse fill="none" stroke="black" cx="70" cy="-250" rx="53.89" ry="18"/>
<text text-anchor="middle" x="70" y="-246.3" font-family="Times,serif" font-size="14.00">foo_4 (Call)</text>
</g>
<!-- foo_Start&#45;&gt;foo_4 (Call) -->
<g id="edge1" class="edge">
<title>foo_Start&#45;&gt;foo_4 (Call)</title>
<path fill="none" stroke="black" d="M62.47,-303.7C63.57,-295.98 64.9,-286.71 66.13,-278.11"/>
<polygon fill="black" stroke="black" points="69.61,-278.5 67.56,-268.1 62.68,-277.51 69.61,-278.5"/>
</g>
<!-- foo_End -->
<g id="node2" class="node">
<title>foo_End</title>
<ellipse fill="none" stroke="black" cx="330" cy="-34" rx="40.89" ry="18"/>
<text text-anchor="middle" x="330" y="-30.3" font-family="Times,serif" font-size="14.00">foo_End</text>
</g>
<!-- foo_7 -->
<g id="node3" class="node">
<title>foo_7</title>
<ellipse fill="none" stroke="black" cx="330" cy="-250" rx="31.4" ry="18"/>
<text text-anchor="middle" x="330" y="-246.3" font-family="Times,serif" font-size="14.00">foo_7</text>
</g>
<!-- foo_8 -->
<g id="node4" class="node">
<title>foo_8</title>
<ellipse fill="none" stroke="black" cx="330" cy="-178" rx="31.4" ry="18"/>
<text text-anchor="middle" x="330" y="-174.3" font-family="Times,serif" font-size="14.00">foo_8</text>
</g>
<!-- foo_7&#45;&gt;foo_8 -->
<g id="edge2" class="edge">
<title>foo_7&#45;&gt;foo_8</title>
<path fill="none" stroke="black" d="M330,-231.7C330,-223.98 330,-214.71 330,-206.11"/>
<polygon fill="black" stroke="black" points="333.5,-206.1 330,-196.1 326.5,-206.1 333.5,-206.1"/>
</g>
<!-- foo_10 -->
<g id="node5" class="node">
<title>foo_10</title>
<ellipse fill="none" stroke="black" cx="330" cy="-106" rx="36" ry="18"/>
<text text-anchor="middle" x="330" y="-102.3" font-family="Times,serif" font-size="14.00">foo_10</text>
</g>
<!-- foo_8&#45;&gt;foo_10 -->
<g id="edge3" class="edge">
<title>foo_8&#45;&gt;foo_10</title>
<path fill="none" stroke="black" d="M330,-159.7C330,-151.98 330,-142.71 330,-134.11"/>
<polygon fill="black" stroke="black" points="333.5,-134.1 330,-124.1 326.5,-134.1 333.5,-134.1"/>
</g>
<!-- foo_10&#45;&gt;foo_End -->
<g id="edge4" class="edge">
<title>foo_10&#45;&gt;foo_End</title>
<path fill="none" stroke="black" d="M330,-87.7C330,-79.98 330,-70.71 330,-62.11"/>
<polygon fill="black" stroke="black" points="333.5,-62.1 330,-52.1 326.5,-62.1 333.5,-62.1"/>
</g>
<!-- bar_1_Start -->
<g id="node13" class="node">
<title>bar_1_Start</title>
<ellipse fill="none" stroke="black" cx="124" cy="-538" rx="51.99" ry="18"/>
<text text-anchor="middle" x="124" y="-534.3" font-family="Times,serif" font-size="14.00">bar_1_Start</text>
</g>
<!-- foo_4 (Call)&#45;&gt;bar_1_Start -->
<g id="edge8" class="edge">
<title>foo_4 (Call)&#45;&gt;bar_1_Start</title>
<path fill="none" stroke="black" d="M43.32,-265.71C29.74,-274.79 14.54,-287.8 7,-304 -1.25,-321.73 2.45,-328.98 7,-348 22.77,-413.92 37.58,-428.16 76,-484 83.08,-494.28 92,-504.66 100.22,-513.48"/>
<polygon fill="black" stroke="black" points="97.77,-515.98 107.21,-520.78 102.83,-511.14 97.77,-515.98"/>
</g>
<!-- foo_4 (Return) -->
<g id="node7" class="node">
<title>foo_4 (Return)</title>
<ellipse fill="none" stroke="black" cx="185" cy="-322" rx="63.89" ry="18"/>
<text text-anchor="middle" x="185" y="-318.3" font-family="Times,serif" font-size="14.00">foo_4 (Return)</text>
</g>
<!-- foo_5 (Call) -->
<g id="node8" class="node">
<title>foo_5 (Call)</title>
<ellipse fill="none" stroke="black" cx="212" cy="-250" rx="53.89" ry="18"/>
<text text-anchor="middle" x="212" y="-246.3" font-family="Times,serif" font-size="14.00">foo_5 (Call)</text>
</g>
<!-- foo_4 (Return)&#45;&gt;foo_5 (Call) -->
<g id="edge9" class="edge">
<title>foo_4 (Return)&#45;&gt;foo_5 (Call)</title>
<path fill="none" stroke="black" d="M191.54,-304.05C194.57,-296.18 198.26,-286.62 201.67,-277.79"/>
<polygon fill="black" stroke="black" points="205,-278.86 205.34,-268.28 198.47,-276.35 205,-278.86"/>
</g>
<!-- bar_2_Start -->
<g id="node10" class="node">
<title>bar_2_Start</title>
<ellipse fill="none" stroke="black" cx="337" cy="-538" rx="51.99" ry="18"/>
<text text-anchor="middle" x="337" y="-534.3" font-family="Times,serif" font-size="14.00">bar_2_Start</text>
</g>
<!-- foo_5 (Call)&#45;&gt;bar_2_Start -->
<g id="edge13" class="edge">
<title>foo_5 (Call)&#45;&gt;bar_2_Start</title>
<path fill="none" stroke="black" d="M254.02,-261.29C308.85,-274.92 398.39,-297.94 403,-304 451.66,-368 418.79,-411.05 385,-484 379.97,-494.87 371.91,-505.07 363.82,-513.57"/>
<polygon fill="black" stroke="black" points="361.11,-511.33 356.48,-520.86 366.04,-516.3 361.11,-511.33"/>
</g>
<!-- foo_5 (Return) -->
<g id="node9" class="node">
<title>foo_5 (Return)</title>
<ellipse fill="none" stroke="black" cx="330" cy="-322" rx="63.89" ry="18"/>
<text text-anchor="middle" x="330" y="-318.3" font-family="Times,serif" font-size="14.00">foo_5 (Return)</text>
</g>
<!-- foo_5 (Return)&#45;&gt;foo_7 -->
<g id="edge14" class="edge">
<title>foo_5 (Return)&#45;&gt;foo_7</title>
<path fill="none" stroke="black" d="M330,-303.7C330,-295.98 330,-286.71 330,-278.11"/>
<polygon fill="black" stroke="black" points="333.5,-278.1 330,-268.1 326.5,-278.1 333.5,-278.1"/>
</g>
<!-- bar_2_3 -->
<g id="node12" class="node">
<title>bar_2_3</title>
<ellipse fill="none" stroke="black" cx="336" cy="-466" rx="39.79" ry="18"/>
<text text-anchor="middle" x="336" y="-462.3" font-family="Times,serif" font-size="14.00">bar_2_3</text>
</g>
<!-- bar_2_Start&#45;&gt;bar_2_3 -->
<g id="edge10" class="edge">
<title>bar_2_Start&#45;&gt;bar_2_3</title>
<path fill="none" stroke="black" d="M336.75,-519.7C336.64,-511.98 336.51,-502.71 336.39,-494.11"/>
<polygon fill="black" stroke="black" points="339.89,-494.05 336.24,-484.1 332.89,-494.15 339.89,-494.05"/>
</g>
<!-- bar_2_End -->
<g id="node11" class="node">
<title>bar_2_End</title>
<ellipse fill="none" stroke="black" cx="335" cy="-394" rx="49.29" ry="18"/>
<text text-anchor="middle" x="335" y="-390.3" font-family="Times,serif" font-size="14.00">bar_2_End</text>
</g>
<!-- bar_2_End&#45;&gt;foo_5 (Return) -->
<g id="edge11" class="edge">
<title>bar_2_End&#45;&gt;foo_5 (Return)</title>
<path fill="none" stroke="black" d="M333.76,-375.7C333.21,-367.98 332.55,-358.71 331.94,-350.11"/>
<polygon fill="black" stroke="black" points="335.43,-349.83 331.22,-340.1 328.44,-350.33 335.43,-349.83"/>
</g>
<!-- bar_2_3&#45;&gt;bar_2_End -->
<g id="edge12" class="edge">
<title>bar_2_3&#45;&gt;bar_2_End</title>
<path fill="none" stroke="black" d="M335.75,-447.7C335.64,-439.98 335.51,-430.71 335.39,-422.11"/>
<polygon fill="black" stroke="black" points="338.89,-422.05 335.24,-412.1 331.89,-422.15 338.89,-422.05"/>
</g>
<!-- bar_1_3 -->
<g id="node15" class="node">
<title>bar_1_3</title>
<ellipse fill="none" stroke="black" cx="125" cy="-466" rx="39.79" ry="18"/>
<text text-anchor="middle" x="125" y="-462.3" font-family="Times,serif" font-size="14.00">bar_1_3</text>
</g>
<!-- bar_1_Start&#45;&gt;bar_1_3 -->
<g id="edge5" class="edge">
<title>bar_1_Start&#45;&gt;bar_1_3</title>
<path fill="none" stroke="black" d="M124.25,-519.7C124.36,-511.98 124.49,-502.71 124.61,-494.11"/>
<polygon fill="black" stroke="black" points="128.11,-494.15 124.76,-484.1 121.11,-494.05 128.11,-494.15"/>
</g>
<!-- bar_1_End -->
<g id="node14" class="node">
<title>bar_1_End</title>
<ellipse fill="none" stroke="black" cx="126" cy="-394" rx="49.29" ry="18"/>
<text text-anchor="middle" x="126" y="-390.3" font-family="Times,serif" font-size="14.00">bar_1_End</text>
</g>
<!-- bar_1_End&#45;&gt;foo_4 (Return) -->
<g id="edge6" class="edge">
<title>bar_1_End&#45;&gt;foo_4 (Return)</title>
<path fill="none" stroke="black" d="M139.98,-376.41C147.22,-367.82 156.21,-357.16 164.24,-347.63"/>
<polygon fill="black" stroke="black" points="166.94,-349.86 170.71,-339.96 161.59,-345.35 166.94,-349.86"/>
</g>
<!-- bar_1_3&#45;&gt;bar_1_End -->
<g id="edge7" class="edge">
<title>bar_1_3&#45;&gt;bar_1_End</title>
<path fill="none" stroke="black" d="M125.25,-447.7C125.36,-439.98 125.49,-430.71 125.61,-422.11"/>
<polygon fill="black" stroke="black" points="129.11,-422.15 125.76,-412.1 122.11,-422.05 129.11,-422.15"/>
</g>
</g>
</svg>
