<?xml version="1.0" encoding="UTF-8" standalone="no"?>
<!DOCTYPE svg PUBLIC "-//W3C//DTD SVG 1.1//EN"
 "http://www.w3.org/Graphics/SVG/1.1/DTD/svg11.dtd">
<!-- Generated by graphviz version 3.0.0 (20220226.1711)
 -->
<!-- Pages: 1 -->
<svg width="285pt" height="508pt"
 viewBox="0.00 0.00 285.00 508.00" xmlns="http://www.w3.org/2000/svg" xmlns:xlink="http://www.w3.org/1999/xlink">
<g id="graph0" class="graph" transform="scale(1 1) rotate(0) translate(4 504)">
<polygon fill="white" stroke="transparent" points="-4,4 -4,-504 281,-504 281,4 -4,4"/>
<g id="clust1" class="cluster">
<title>cluster_bar</title>
<polygon fill="none" stroke="black" points="93,-296 93,-492 195,-492 195,-296 93,-296"/>
</g>
<g id="clust2" class="cluster">
<title>cluster_foo</title>
<polygon fill="none" stroke="black" points="8,-8 8,-276 257,-276 257,-8 8,-8"/>
</g>
<!-- bar_Start -->
<g id="node1" class="node">
<title>bar_Start</title>
<ellipse fill="none" stroke="black" cx="144" cy="-466" rx="42.79" ry="18"/>
<text text-anchor="middle" x="144" y="-462.3" font-family="Times,serif" font-size="14.00">bar_Start</text>
</g>
<!-- bar_3 -->
<g id="node3" class="node">
<title>bar_3</title>
<ellipse fill="none" stroke="black" cx="143" cy="-394" rx="30.59" ry="18"/>
<text text-anchor="middle" x="143" y="-390.3" font-family="Times,serif" font-size="14.00">bar_3</text>
</g>
<!-- bar_Start&#45;&gt;bar_3 -->
<g id="edge5" class="edge">
<title>bar_Start&#45;&gt;bar_3</title>
<path fill="none" stroke="black" d="M143.75,-447.7C143.64,-439.98 143.51,-430.71 143.39,-422.11"/>
<polygon fill="black" stroke="black" points="146.89,-422.05 143.24,-412.1 139.89,-422.15 146.89,-422.05"/>
</g>
<!-- bar_End -->
<g id="node2" class="node">
<title>bar_End</title>
<ellipse fill="none" stroke="black" cx="142" cy="-322" rx="40.09" ry="18"/>
<text text-anchor="middle" x="142" y="-318.3" font-family="Times,serif" font-size="14.00">bar_End</text>
</g>
<!-- foo_5 (Return) -->
<g id="node10" class="node">
<title>foo_5 (Return)</title>
<ellipse fill="none" stroke="black" cx="80" cy="-250" rx="63.89" ry="18"/>
<text text-anchor="middle" x="80" y="-246.3" font-family="Times,serif" font-size="14.00">foo_5 (Return)</text>
</g>
<!-- bar_End&#45;&gt;foo_5 (Return) -->
<g id="edge6" class="edge">
<title>bar_End&#45;&gt;foo_5 (Return)</title>
<path fill="none" stroke="black" d="M127.93,-305.12C120.15,-296.33 110.32,-285.23 101.58,-275.37"/>
<polygon fill="black" stroke="black" points="104.13,-272.96 94.88,-267.8 98.89,-277.6 104.13,-272.96"/>
</g>
<!-- bar_3&#45;&gt;bar_End -->
<g id="edge7" class="edge">
<title>bar_3&#45;&gt;bar_End</title>
<path fill="none" stroke="black" d="M142.75,-375.7C142.64,-367.98 142.51,-358.71 142.39,-350.11"/>
<polygon fill="black" stroke="black" points="145.89,-350.05 142.24,-340.1 138.89,-350.15 145.89,-350.05"/>
</g>
<!-- foo_Start -->
<g id="node4" class="node">
<title>foo_Start</title>
<ellipse fill="none" stroke="black" cx="205" cy="-250" rx="43.59" ry="18"/>
<text text-anchor="middle" x="205" y="-246.3" font-family="Times,serif" font-size="14.00">foo_Start</text>
</g>
<!-- foo_4 -->
<g id="node6" class="node">
<title>foo_4</title>
<ellipse fill="none" stroke="black" cx="200" cy="-178" rx="31.4" ry="18"/>
<text text-anchor="middle" x="200" y="-174.3" font-family="Times,serif" font-size="14.00">foo_4</text>
</g>
<!-- foo_Start&#45;&gt;foo_4 -->
<g id="edge1" class="edge">
<title>foo_Start&#45;&gt;foo_4</title>
<path fill="none" stroke="black" d="M203.76,-231.7C203.21,-223.98 202.55,-214.71 201.94,-206.11"/>
<polygon fill="black" stroke="black" points="205.43,-205.83 201.22,-196.1 198.44,-206.33 205.43,-205.83"/>
</g>
<!-- foo_End -->
<g id="node5" class="node">
<title>foo_End</title>
<ellipse fill="none" stroke="black" cx="80" cy="-34" rx="40.89" ry="18"/>
<text text-anchor="middle" x="80" y="-30.3" font-family="Times,serif" font-size="14.00">foo_End</text>
</g>
<!-- foo_5 (Call) -->
<g id="node9" class="node">
<title>foo_5 (Call)</title>
<ellipse fill="none" stroke="black" cx="195" cy="-106" rx="53.89" ry="18"/>
<text text-anchor="middle" x="195" y="-102.3" font-family="Times,serif" font-size="14.00">foo_5 (Call)</text>
</g>
<!-- foo_4&#45;&gt;foo_5 (Call) -->
<g id="edge2" class="edge">
<title>foo_4&#45;&gt;foo_5 (Call)</title>
<path fill="none" stroke="black" d="M198.76,-159.7C198.21,-151.98 197.55,-142.71 196.94,-134.11"/>
<polygon fill="black" stroke="black" points="200.43,-133.83 196.22,-124.1 193.44,-134.33 200.43,-133.83"/>
</g>
<!-- foo_6 -->
<g id="node7" class="node">
<title>foo_6</title>
<ellipse fill="none" stroke="black" cx="80" cy="-178" rx="31.4" ry="18"/>
<text text-anchor="middle" x="80" y="-174.3" font-family="Times,serif" font-size="14.00">foo_6</text>
</g>
<!-- foo_8 -->
<g id="node8" class="node">
<title>foo_8</title>
<ellipse fill="none" stroke="black" cx="80" cy="-106" rx="31.4" ry="18"/>
<text text-anchor="middle" x="80" y="-102.3" font-family="Times,serif" font-size="14.00">foo_8</text>
</g>
<!-- foo_6&#45;&gt;foo_8 -->
<g id="edge3" class="edge">
<title>foo_6&#45;&gt;foo_8</title>
<path fill="none" stroke="black" d="M80,-159.7C80,-151.98 80,-142.71 80,-134.11"/>
<polygon fill="black" stroke="black" points="83.5,-134.1 80,-124.1 76.5,-134.1 83.5,-134.1"/>
</g>
<!-- foo_8&#45;&gt;foo_End -->
<g id="edge4" class="edge">
<title>foo_8&#45;&gt;foo_End</title>
<path fill="none" stroke="black" d="M80,-87.7C80,-79.98 80,-70.71 80,-62.11"/>
<polygon fill="black" stroke="black" points="83.5,-62.1 80,-52.1 76.5,-62.1 83.5,-62.1"/>
</g>
<!-- foo_5 (Call)&#45;&gt;bar_Start -->
<g id="edge8" class="edge">
<title>foo_5 (Call)&#45;&gt;bar_Start</title>
<path fill="none" stroke="black" d="M211.99,-123.15C236.01,-147.82 277,-197.47 277,-249 277,-323 277,-323 277,-323 277,-380.07 219.07,-423.66 179.67,-446.71"/>
<polygon fill="black" stroke="black" points="177.57,-443.88 170.59,-451.85 181.02,-449.97 177.57,-443.88"/>
</g>
<!-- foo_5 (Return)&#45;&gt;foo_6 -->
<g id="edge9" class="edge">
<title>foo_5 (Return)&#45;&gt;foo_6</title>
<path fill="none" stroke="black" d="M80,-231.7C80,-223.98 80,-214.71 80,-206.11"/>
<polygon fill="black" stroke="black" points="83.5,-206.1 80,-196.1 76.5,-206.1 83.5,-206.1"/>
</g>
</g>
</svg>
