<?xml version="1.0" encoding="UTF-8" standalone="no"?>
<!DOCTYPE svg PUBLIC "-//W3C//DTD SVG 1.1//EN"
 "http://www.w3.org/Graphics/SVG/1.1/DTD/svg11.dtd">
<!-- Generated by graphviz version 3.0.0 (20220226.1711)
 -->
<!-- Pages: 1 -->
<svg width="731pt" height="404pt"
 viewBox="0.00 0.00 730.60 404.00" xmlns="http://www.w3.org/2000/svg" xmlns:xlink="http://www.w3.org/1999/xlink">
<g id="graph0" class="graph" transform="scale(1 1) rotate(0) translate(4 400)">
<polygon fill="white" stroke="transparent" points="-4,4 -4,-400 726.6,-400 726.6,4 -4,4"/>
<!-- 41 -->
<g id="node1" class="node">
<title>41</title>
<ellipse fill="none" stroke="black" cx="270.3" cy="-378" rx="31.7" ry="18"/>
<text text-anchor="middle" x="270.3" y="-374.3" font-family="Times,serif" font-size="14.00">Block</text>
</g>
<!-- 23 -->
<g id="node2" class="node">
<title>23</title>
<ellipse fill="none" stroke="black" cx="100.3" cy="-306" rx="53.09" ry="18"/>
<text text-anchor="middle" x="100.3" y="-302.3" font-family="Times,serif" font-size="14.00">Assignment</text>
</g>
<!-- 41&#45;&gt;23 -->
<g id="edge1" class="edge">
<title>41&#45;&gt;23</title>
<path fill="none" stroke="black" d="M245.21,-366.67C218.18,-355.54 174.69,-337.63 142.4,-324.33"/>
<polygon fill="black" stroke="black" points="143.34,-320.94 132.76,-320.37 140.68,-327.41 143.34,-320.94"/>
</g>
<!-- 30 -->
<g id="node5" class="node">
<title>30</title>
<ellipse fill="none" stroke="black" cx="270.3" cy="-306" rx="27" ry="18"/>
<text text-anchor="middle" x="270.3" y="-302.3" font-family="Times,serif" font-size="14.00">If</text>
</g>
<!-- 41&#45;&gt;30 -->
<g id="edge4" class="edge">
<title>41&#45;&gt;30</title>
<path fill="none" stroke="black" d="M270.3,-359.7C270.3,-351.98 270.3,-342.71 270.3,-334.11"/>
<polygon fill="black" stroke="black" points="273.8,-334.1 270.3,-324.1 266.8,-334.1 273.8,-334.1"/>
</g>
<!-- 40 -->
<g id="node12" class="node">
<title>40</title>
<ellipse fill="none" stroke="black" cx="482.3" cy="-306" rx="32.49" ry="18"/>
<text text-anchor="middle" x="482.3" y="-302.3" font-family="Times,serif" font-size="14.00">While</text>
</g>
<!-- 41&#45;&gt;40 -->
<g id="edge11" class="edge">
<title>41&#45;&gt;40</title>
<path fill="none" stroke="black" d="M297.15,-368.13C334.69,-355.74 403.02,-333.18 445.35,-319.2"/>
<polygon fill="black" stroke="black" points="446.6,-322.47 455,-316.01 444.4,-315.83 446.6,-322.47"/>
</g>
<!-- 21 -->
<g id="node3" class="node">
<title>21</title>
<ellipse fill="none" stroke="black" cx="27.3" cy="-234" rx="27.1" ry="18"/>
<text text-anchor="middle" x="27.3" y="-230.3" font-family="Times,serif" font-size="14.00">Id: x</text>
</g>
<!-- 23&#45;&gt;21 -->
<g id="edge2" class="edge">
<title>23&#45;&gt;21</title>
<path fill="none" stroke="black" d="M83.37,-288.76C73.33,-279.14 60.5,-266.84 49.65,-256.43"/>
<polygon fill="black" stroke="black" points="51.8,-253.64 42.16,-249.25 46.95,-258.7 51.8,-253.64"/>
</g>
<!-- 22 -->
<g id="node4" class="node">
<title>22</title>
<ellipse fill="none" stroke="black" cx="100.3" cy="-234" rx="27.1" ry="18"/>
<text text-anchor="middle" x="100.3" y="-230.3" font-family="Times,serif" font-size="14.00">Id: 4</text>
</g>
<!-- 23&#45;&gt;22 -->
<g id="edge3" class="edge">
<title>23&#45;&gt;22</title>
<path fill="none" stroke="black" d="M100.3,-287.7C100.3,-279.98 100.3,-270.71 100.3,-262.11"/>
<polygon fill="black" stroke="black" points="103.8,-262.1 100.3,-252.1 96.8,-262.1 103.8,-262.1"/>
</g>
<!-- 26 -->
<g id="node6" class="node">
<title>26</title>
<ellipse fill="none" stroke="black" cx="205.3" cy="-234" rx="59.59" ry="18"/>
<text text-anchor="middle" x="205.3" y="-230.3" font-family="Times,serif" font-size="14.00">Expression: &gt;</text>
</g>
<!-- 30&#45;&gt;26 -->
<g id="edge5" class="edge">
<title>30&#45;&gt;26</title>
<path fill="none" stroke="black" d="M256.51,-290.15C248.2,-281.2 237.4,-269.58 227.87,-259.31"/>
<polygon fill="black" stroke="black" points="230.26,-256.74 220.89,-251.79 225.13,-261.5 230.26,-256.74"/>
</g>
<!-- 29 -->
<g id="node9" class="node">
<title>29</title>
<ellipse fill="none" stroke="black" cx="336.3" cy="-234" rx="53.09" ry="18"/>
<text text-anchor="middle" x="336.3" y="-230.3" font-family="Times,serif" font-size="14.00">Assignment</text>
</g>
<!-- 30&#45;&gt;29 -->
<g id="edge8" class="edge">
<title>30&#45;&gt;29</title>
<path fill="none" stroke="black" d="M284.29,-290.15C292.86,-281.07 304.01,-269.24 313.79,-258.87"/>
<polygon fill="black" stroke="black" points="316.62,-260.97 320.94,-251.29 311.53,-256.17 316.62,-260.97"/>
</g>
<!-- 24 -->
<g id="node7" class="node">
<title>24</title>
<ellipse fill="none" stroke="black" cx="128.3" cy="-162" rx="27.1" ry="18"/>
<text text-anchor="middle" x="128.3" y="-158.3" font-family="Times,serif" font-size="14.00">Id: y</text>
</g>
<!-- 26&#45;&gt;24 -->
<g id="edge6" class="edge">
<title>26&#45;&gt;24</title>
<path fill="none" stroke="black" d="M187.44,-216.76C176.68,-206.99 162.87,-194.43 151.3,-183.91"/>
<polygon fill="black" stroke="black" points="153.47,-181.16 143.72,-177.02 148.76,-186.33 153.47,-181.16"/>
</g>
<!-- 25 -->
<g id="node8" class="node">
<title>25</title>
<ellipse fill="none" stroke="black" cx="205.3" cy="-162" rx="31.7" ry="18"/>
<text text-anchor="middle" x="205.3" y="-158.3" font-family="Times,serif" font-size="14.00">Id: 42</text>
</g>
<!-- 26&#45;&gt;25 -->
<g id="edge7" class="edge">
<title>26&#45;&gt;25</title>
<path fill="none" stroke="black" d="M205.3,-215.7C205.3,-207.98 205.3,-198.71 205.3,-190.11"/>
<polygon fill="black" stroke="black" points="208.8,-190.1 205.3,-180.1 201.8,-190.1 208.8,-190.1"/>
</g>
<!-- 27 -->
<g id="node10" class="node">
<title>27</title>
<ellipse fill="none" stroke="black" cx="282.3" cy="-162" rx="27.1" ry="18"/>
<text text-anchor="middle" x="282.3" y="-158.3" font-family="Times,serif" font-size="14.00">Id: x</text>
</g>
<!-- 29&#45;&gt;27 -->
<g id="edge9" class="edge">
<title>29&#45;&gt;27</title>
<path fill="none" stroke="black" d="M323.5,-216.41C316.65,-207.53 308.09,-196.44 300.56,-186.67"/>
<polygon fill="black" stroke="black" points="303.14,-184.29 294.26,-178.51 297.6,-188.57 303.14,-184.29"/>
</g>
<!-- 28 -->
<g id="node11" class="node">
<title>28</title>
<ellipse fill="none" stroke="black" cx="359.3" cy="-162" rx="31.7" ry="18"/>
<text text-anchor="middle" x="359.3" y="-158.3" font-family="Times,serif" font-size="14.00">Id: 10</text>
</g>
<!-- 29&#45;&gt;28 -->
<g id="edge10" class="edge">
<title>29&#45;&gt;28</title>
<path fill="none" stroke="black" d="M341.87,-216.05C344.49,-208.06 347.69,-198.33 350.62,-189.4"/>
<polygon fill="black" stroke="black" points="353.98,-190.38 353.78,-179.79 347.33,-188.2 353.98,-190.38"/>
</g>
<!-- 33 -->
<g id="node13" class="node">
<title>33</title>
<ellipse fill="none" stroke="black" cx="482.3" cy="-234" rx="59.59" ry="18"/>
<text text-anchor="middle" x="482.3" y="-230.3" font-family="Times,serif" font-size="14.00">Expression: &gt;</text>
</g>
<!-- 40&#45;&gt;33 -->
<g id="edge12" class="edge">
<title>40&#45;&gt;33</title>
<path fill="none" stroke="black" d="M482.3,-287.7C482.3,-279.98 482.3,-270.71 482.3,-262.11"/>
<polygon fill="black" stroke="black" points="485.8,-262.1 482.3,-252.1 478.8,-262.1 485.8,-262.1"/>
</g>
<!-- 39 -->
<g id="node16" class="node">
<title>39</title>
<ellipse fill="none" stroke="black" cx="600.3" cy="-234" rx="31.7" ry="18"/>
<text text-anchor="middle" x="600.3" y="-230.3" font-family="Times,serif" font-size="14.00">Block</text>
</g>
<!-- 40&#45;&gt;39 -->
<g id="edge15" class="edge">
<title>40&#45;&gt;39</title>
<path fill="none" stroke="black" d="M503.67,-292.32C522.3,-281.27 549.51,-265.13 570.32,-252.78"/>
<polygon fill="black" stroke="black" points="572.27,-255.69 579.09,-247.58 568.7,-249.67 572.27,-255.69"/>
</g>
<!-- 31 -->
<g id="node14" class="node">
<title>31</title>
<ellipse fill="none" stroke="black" cx="436.3" cy="-162" rx="27.1" ry="18"/>
<text text-anchor="middle" x="436.3" y="-158.3" font-family="Times,serif" font-size="14.00">Id: x</text>
</g>
<!-- 33&#45;&gt;31 -->
<g id="edge13" class="edge">
<title>33&#45;&gt;31</title>
<path fill="none" stroke="black" d="M471.16,-216.05C465.52,-207.47 458.57,-196.89 452.36,-187.44"/>
<polygon fill="black" stroke="black" points="455.12,-185.26 446.7,-178.83 449.27,-189.11 455.12,-185.26"/>
</g>
<!-- 32 -->
<g id="node15" class="node">
<title>32</title>
<ellipse fill="none" stroke="black" cx="509.3" cy="-162" rx="27.1" ry="18"/>
<text text-anchor="middle" x="509.3" y="-158.3" font-family="Times,serif" font-size="14.00">Id: 0</text>
</g>
<!-- 33&#45;&gt;32 -->
<g id="edge14" class="edge">
<title>33&#45;&gt;32</title>
<path fill="none" stroke="black" d="M488.83,-216.05C491.92,-208.06 495.67,-198.33 499.11,-189.4"/>
<polygon fill="black" stroke="black" points="502.49,-190.38 502.82,-179.79 495.96,-187.86 502.49,-190.38"/>
</g>
<!-- 38 -->
<g id="node17" class="node">
<title>38</title>
<ellipse fill="none" stroke="black" cx="608.3" cy="-162" rx="53.09" ry="18"/>
<text text-anchor="middle" x="608.3" y="-158.3" font-family="Times,serif" font-size="14.00">Assignment</text>
</g>
<!-- 39&#45;&gt;38 -->
<g id="edge16" class="edge">
<title>39&#45;&gt;38</title>
<path fill="none" stroke="black" d="M602.28,-215.7C603.16,-207.98 604.22,-198.71 605.2,-190.11"/>
<polygon fill="black" stroke="black" points="608.68,-190.44 606.34,-180.1 601.73,-189.64 608.68,-190.44"/>
</g>
<!-- 34 -->
<g id="node18" class="node">
<title>34</title>
<ellipse fill="none" stroke="black" cx="556.3" cy="-90" rx="27.1" ry="18"/>
<text text-anchor="middle" x="556.3" y="-86.3" font-family="Times,serif" font-size="14.00">Id: x</text>
</g>
<!-- 38&#45;&gt;34 -->
<g id="edge17" class="edge">
<title>38&#45;&gt;34</title>
<path fill="none" stroke="black" d="M595.97,-144.41C589.38,-135.53 581.14,-124.44 573.88,-114.67"/>
<polygon fill="black" stroke="black" points="576.59,-112.45 567.82,-106.51 570.97,-116.63 576.59,-112.45"/>
</g>
<!-- 37 -->
<g id="node19" class="node">
<title>37</title>
<ellipse fill="none" stroke="black" cx="659.3" cy="-90" rx="57.69" ry="18"/>
<text text-anchor="middle" x="659.3" y="-86.3" font-family="Times,serif" font-size="14.00">Expression: &#45;</text>
</g>
<!-- 38&#45;&gt;37 -->
<g id="edge18" class="edge">
<title>38&#45;&gt;37</title>
<path fill="none" stroke="black" d="M620.38,-144.41C626.52,-135.99 634.1,-125.58 640.94,-116.2"/>
<polygon fill="black" stroke="black" points="643.88,-118.1 646.94,-107.96 638.23,-113.98 643.88,-118.1"/>
</g>
<!-- 35 -->
<g id="node20" class="node">
<title>35</title>
<ellipse fill="none" stroke="black" cx="622.3" cy="-18" rx="27.1" ry="18"/>
<text text-anchor="middle" x="622.3" y="-14.3" font-family="Times,serif" font-size="14.00">Id: x</text>
</g>
<!-- 37&#45;&gt;35 -->
<g id="edge19" class="edge">
<title>37&#45;&gt;35</title>
<path fill="none" stroke="black" d="M650.34,-72.05C645.96,-63.77 640.6,-53.62 635.74,-44.42"/>
<polygon fill="black" stroke="black" points="638.68,-42.51 630.92,-35.31 632.5,-45.78 638.68,-42.51"/>
</g>
<!-- 36 -->
<g id="node21" class="node">
<title>36</title>
<ellipse fill="none" stroke="black" cx="695.3" cy="-18" rx="27.1" ry="18"/>
<text text-anchor="middle" x="695.3" y="-14.3" font-family="Times,serif" font-size="14.00">Id: 1</text>
</g>
<!-- 37&#45;&gt;36 -->
<g id="edge20" class="edge">
<title>37&#45;&gt;36</title>
<path fill="none" stroke="black" d="M668.01,-72.05C672.27,-63.77 677.49,-53.62 682.22,-44.42"/>
<polygon fill="black" stroke="black" points="685.45,-45.8 686.91,-35.31 679.23,-42.6 685.45,-45.8"/>
</g>
</g>
</svg>
