<?xml version="1.0" encoding="UTF-8" standalone="no"?>
<!DOCTYPE svg PUBLIC "-//W3C//DTD SVG 1.1//EN"
 "http://www.w3.org/Graphics/SVG/1.1/DTD/svg11.dtd">
<!-- Generated by graphviz version 3.0.0 (20220226.1711)
 -->
<!-- Pages: 1 -->
<svg width="902pt" height="692pt"
 viewBox="0.00 0.00 902.00 692.00" xmlns="http://www.w3.org/2000/svg" xmlns:xlink="http://www.w3.org/1999/xlink">
<g id="graph0" class="graph" transform="scale(1 1) rotate(0) translate(4 688)">
<polygon fill="white" stroke="transparent" points="-4,4 -4,-688 898,-688 898,4 -4,4"/>
<!-- root -->
<g id="node1" class="node">
<title>root</title>
<ellipse fill="none" stroke="black" cx="278" cy="-666" rx="27" ry="18"/>
<text text-anchor="middle" x="278" y="-662.3" font-family="Times,serif" font-size="14.00">start</text>
</g>
<!-- 4446158400 -->
<g id="node2" class="node">
<title>4446158400</title>
<ellipse fill="none" stroke="black" cx="193" cy="-594" rx="32.49" ry="18"/>
<text text-anchor="middle" x="193" y="-590.3" font-family="Times,serif" font-size="14.00">root&#45;0</text>
</g>
<!-- root&#45;&gt;4446158400 -->
<g id="edge30" class="edge">
<title>root&#45;&gt;4446158400</title>
<path fill="none" stroke="black" d="M261.61,-651.5C249.35,-641.41 232.36,-627.41 218.35,-615.88"/>
<polygon fill="black" stroke="black" points="220.45,-613.07 210.51,-609.42 216,-618.48 220.45,-613.07"/>
</g>
<!-- 4446156160 -->
<g id="node32" class="node">
<title>4446156160</title>
<ellipse fill="none" stroke="black" cx="411" cy="-594" rx="32.49" ry="18"/>
<text text-anchor="middle" x="411" y="-590.3" font-family="Times,serif" font-size="14.00">root&#45;1</text>
</g>
<!-- root&#45;&gt;4446156160 -->
<g id="edge44" class="edge">
<title>root&#45;&gt;4446156160</title>
<path fill="none" stroke="black" d="M298.49,-654.22C319.94,-642.93 353.92,-625.04 378.93,-611.88"/>
<polygon fill="black" stroke="black" points="380.81,-614.84 388.03,-607.09 377.55,-608.65 380.81,-614.84"/>
</g>
<!-- 0 -->
<g id="node3" class="node">
<title>0</title>
<ellipse fill="none" stroke="black" cx="27" cy="-522" rx="27" ry="18"/>
<text text-anchor="middle" x="27" y="-518.3" font-family="Times,serif" font-size="14.00">def</text>
</g>
<!-- 4446158400&#45;&gt;0 -->
<g id="edge1" class="edge">
<title>4446158400&#45;&gt;0</title>
<path fill="none" stroke="black" d="M166.93,-582.85C140.56,-572.47 98.7,-555.69 63,-540 61.2,-539.21 59.35,-538.38 57.49,-537.54"/>
<polygon fill="black" stroke="black" points="58.78,-534.28 48.23,-533.26 55.84,-540.63 58.78,-534.28"/>
</g>
<!-- 1 -->
<g id="node4" class="node">
<title>1</title>
<ellipse fill="none" stroke="black" cx="99" cy="-522" rx="27" ry="18"/>
<text text-anchor="middle" x="99" y="-518.3" font-family="Times,serif" font-size="14.00">f</text>
</g>
<!-- 4446158400&#45;&gt;1 -->
<g id="edge2" class="edge">
<title>4446158400&#45;&gt;1</title>
<path fill="none" stroke="black" d="M174.43,-579.17C160.16,-568.55 140.3,-553.76 124.54,-542.02"/>
<polygon fill="black" stroke="black" points="126.38,-539.02 116.26,-535.86 122.19,-544.64 126.38,-539.02"/>
</g>
<!-- 4445956288 -->
<g id="node5" class="node">
<title>4445956288</title>
<ellipse fill="none" stroke="black" cx="193" cy="-522" rx="49.29" ry="18"/>
<text text-anchor="middle" x="193" y="-518.3" font-family="Times,serif" font-size="14.00">arg_names</text>
</g>
<!-- 4446158400&#45;&gt;4445956288 -->
<g id="edge5" class="edge">
<title>4446158400&#45;&gt;4445956288</title>
<path fill="none" stroke="black" d="M193,-575.7C193,-567.98 193,-558.71 193,-550.11"/>
<polygon fill="black" stroke="black" points="196.5,-550.1 193,-540.1 189.5,-550.1 196.5,-550.1"/>
</g>
<!-- 4446156288 -->
<g id="node8" class="node">
<title>4446156288</title>
<ellipse fill="none" stroke="black" cx="297" cy="-522" rx="28.7" ry="18"/>
<text text-anchor="middle" x="297" y="-518.3" font-family="Times,serif" font-size="14.00">body</text>
</g>
<!-- 4446158400&#45;&gt;4446156288 -->
<g id="edge29" class="edge">
<title>4446158400&#45;&gt;4446156288</title>
<path fill="none" stroke="black" d="M213.05,-579.5C229.04,-568.74 251.6,-553.56 269.3,-541.64"/>
<polygon fill="black" stroke="black" points="271.72,-544.23 278.06,-535.75 267.81,-538.43 271.72,-544.23"/>
</g>
<!-- 2 -->
<g id="node6" class="node">
<title>2</title>
<ellipse fill="none" stroke="black" cx="110" cy="-450" rx="27" ry="18"/>
<text text-anchor="middle" x="110" y="-446.3" font-family="Times,serif" font-size="14.00">a</text>
</g>
<!-- 4445956288&#45;&gt;2 -->
<g id="edge3" class="edge">
<title>4445956288&#45;&gt;2</title>
<path fill="none" stroke="black" d="M174.17,-505.12C162.32,-495.12 146.91,-482.13 134.17,-471.38"/>
<polygon fill="black" stroke="black" points="136.14,-468.47 126.24,-464.7 131.63,-473.82 136.14,-468.47"/>
</g>
<!-- 3 -->
<g id="node7" class="node">
<title>3</title>
<ellipse fill="none" stroke="black" cx="182" cy="-450" rx="27" ry="18"/>
<text text-anchor="middle" x="182" y="-446.3" font-family="Times,serif" font-size="14.00">b</text>
</g>
<!-- 4445956288&#45;&gt;3 -->
<g id="edge4" class="edge">
<title>4445956288&#45;&gt;3</title>
<path fill="none" stroke="black" d="M190.28,-503.7C189.07,-495.98 187.61,-486.71 186.26,-478.11"/>
<polygon fill="black" stroke="black" points="189.7,-477.44 184.69,-468.1 182.78,-478.53 189.7,-477.44"/>
</g>
<!-- 4 -->
<g id="node9" class="node">
<title>4</title>
<ellipse fill="none" stroke="black" cx="254" cy="-450" rx="27" ry="18"/>
<text text-anchor="middle" x="254" y="-446.3" font-family="Times,serif" font-size="14.00">call</text>
</g>
<!-- 4446156288&#45;&gt;4 -->
<g id="edge6" class="edge">
<title>4446156288&#45;&gt;4</title>
<path fill="none" stroke="black" d="M287.03,-504.76C281.76,-496.19 275.19,-485.49 269.3,-475.9"/>
<polygon fill="black" stroke="black" points="272.14,-473.84 263.92,-467.15 266.17,-477.5 272.14,-473.84"/>
</g>
<!-- 5 -->
<g id="node10" class="node">
<title>5</title>
<ellipse fill="none" stroke="black" cx="326" cy="-450" rx="27" ry="18"/>
<text text-anchor="middle" x="326" y="-446.3" font-family="Times,serif" font-size="14.00">add</text>
</g>
<!-- 4446156288&#45;&gt;5 -->
<g id="edge7" class="edge">
<title>4446156288&#45;&gt;5</title>
<path fill="none" stroke="black" d="M303.87,-504.41C307.27,-496.22 311.44,-486.14 315.25,-476.95"/>
<polygon fill="black" stroke="black" points="318.58,-478.05 319.18,-467.47 312.12,-475.37 318.58,-478.05"/>
</g>
<!-- 4445960256 -->
<g id="node11" class="node">
<title>4445960256</title>
<ellipse fill="none" stroke="black" cx="416" cy="-450" rx="45.49" ry="18"/>
<text text-anchor="middle" x="416" y="-446.3" font-family="Times,serif" font-size="14.00">arg_exprs</text>
</g>
<!-- 4446156288&#45;&gt;4445960256 -->
<g id="edge28" class="edge">
<title>4446156288&#45;&gt;4445960256</title>
<path fill="none" stroke="black" d="M317.19,-509.13C335.17,-498.54 361.84,-482.86 382.93,-470.45"/>
<polygon fill="black" stroke="black" points="384.75,-473.44 391.59,-465.36 381.2,-467.41 384.75,-473.44"/>
</g>
<!-- 4445960960 -->
<g id="node12" class="node">
<title>4445960960</title>
<ellipse fill="none" stroke="black" cx="278" cy="-378" rx="52.79" ry="18"/>
<text text-anchor="middle" x="278" y="-374.3" font-family="Times,serif" font-size="14.00">arg_exprs&#45;0</text>
</g>
<!-- 4445960256&#45;&gt;4445960960 -->
<g id="edge10" class="edge">
<title>4445960256&#45;&gt;4445960960</title>
<path fill="none" stroke="black" d="M389.06,-435.34C368.01,-424.66 338.52,-409.7 315.21,-397.87"/>
<polygon fill="black" stroke="black" points="316.79,-394.75 306.29,-393.35 313.63,-401 316.79,-394.75"/>
</g>
<!-- 4446157568 -->
<g id="node15" class="node">
<title>4446157568</title>
<ellipse fill="none" stroke="black" cx="416" cy="-378" rx="52.79" ry="18"/>
<text text-anchor="middle" x="416" y="-374.3" font-family="Times,serif" font-size="14.00">arg_exprs&#45;1</text>
</g>
<!-- 4445960256&#45;&gt;4446157568 -->
<g id="edge27" class="edge">
<title>4445960256&#45;&gt;4446157568</title>
<path fill="none" stroke="black" d="M416,-431.7C416,-423.98 416,-414.71 416,-406.11"/>
<polygon fill="black" stroke="black" points="419.5,-406.1 416,-396.1 412.5,-406.1 419.5,-406.1"/>
</g>
<!-- 6 -->
<g id="node13" class="node">
<title>6</title>
<ellipse fill="none" stroke="black" cx="206" cy="-306" rx="27" ry="18"/>
<text text-anchor="middle" x="206" y="-302.3" font-family="Times,serif" font-size="14.00">int</text>
</g>
<!-- 4445960960&#45;&gt;6 -->
<g id="edge8" class="edge">
<title>4445960960&#45;&gt;6</title>
<path fill="none" stroke="black" d="M261.3,-360.76C251.41,-351.14 238.75,-338.84 228.04,-328.43"/>
<polygon fill="black" stroke="black" points="230.27,-325.71 220.66,-321.25 225.39,-330.73 230.27,-325.71"/>
</g>
<!-- 7 -->
<g id="node14" class="node">
<title>7</title>
<ellipse fill="none" stroke="black" cx="278" cy="-306" rx="27" ry="18"/>
<text text-anchor="middle" x="278" y="-302.3" font-family="Times,serif" font-size="14.00">100</text>
</g>
<!-- 4445960960&#45;&gt;7 -->
<g id="edge9" class="edge">
<title>4445960960&#45;&gt;7</title>
<path fill="none" stroke="black" d="M278,-359.7C278,-351.98 278,-342.71 278,-334.11"/>
<polygon fill="black" stroke="black" points="281.5,-334.1 278,-324.1 274.5,-334.1 281.5,-334.1"/>
</g>
<!-- 8 -->
<g id="node16" class="node">
<title>8</title>
<ellipse fill="none" stroke="black" cx="350" cy="-306" rx="27" ry="18"/>
<text text-anchor="middle" x="350" y="-302.3" font-family="Times,serif" font-size="14.00">call</text>
</g>
<!-- 4446157568&#45;&gt;8 -->
<g id="edge11" class="edge">
<title>4446157568&#45;&gt;8</title>
<path fill="none" stroke="black" d="M400.69,-360.76C391.83,-351.37 380.55,-339.41 370.89,-329.15"/>
<polygon fill="black" stroke="black" points="373.28,-326.59 363.88,-321.72 368.19,-331.39 373.28,-326.59"/>
</g>
<!-- 9 -->
<g id="node17" class="node">
<title>9</title>
<ellipse fill="none" stroke="black" cx="422" cy="-306" rx="27" ry="18"/>
<text text-anchor="middle" x="422" y="-302.3" font-family="Times,serif" font-size="14.00">add</text>
</g>
<!-- 4446157568&#45;&gt;9 -->
<g id="edge12" class="edge">
<title>4446157568&#45;&gt;9</title>
<path fill="none" stroke="black" d="M417.48,-359.7C418.14,-351.98 418.94,-342.71 419.68,-334.11"/>
<polygon fill="black" stroke="black" points="423.17,-334.37 420.53,-324.1 416.19,-333.77 423.17,-334.37"/>
</g>
<!-- 4445927808 -->
<g id="node18" class="node">
<title>4445927808</title>
<ellipse fill="none" stroke="black" cx="512" cy="-306" rx="45.49" ry="18"/>
<text text-anchor="middle" x="512" y="-302.3" font-family="Times,serif" font-size="14.00">arg_exprs</text>
</g>
<!-- 4446157568&#45;&gt;4445927808 -->
<g id="edge26" class="edge">
<title>4446157568&#45;&gt;4445927808</title>
<path fill="none" stroke="black" d="M437.31,-361.46C450.7,-351.7 468.15,-338.97 482.82,-328.28"/>
<polygon fill="black" stroke="black" points="485.07,-330.97 491.08,-322.25 480.94,-325.31 485.07,-330.97"/>
</g>
<!-- 4445927552 -->
<g id="node19" class="node">
<title>4445927552</title>
<ellipse fill="none" stroke="black" cx="382" cy="-234" rx="52.79" ry="18"/>
<text text-anchor="middle" x="382" y="-230.3" font-family="Times,serif" font-size="14.00">arg_exprs&#45;0</text>
</g>
<!-- 4445927808&#45;&gt;4445927552 -->
<g id="edge15" class="edge">
<title>4445927808&#45;&gt;4445927552</title>
<path fill="none" stroke="black" d="M486.01,-291C466.55,-280.53 439.71,-266.07 418.17,-254.47"/>
<polygon fill="black" stroke="black" points="419.76,-251.36 409.29,-249.7 416.44,-257.52 419.76,-251.36"/>
</g>
<!-- 4446158656 -->
<g id="node22" class="node">
<title>4446158656</title>
<ellipse fill="none" stroke="black" cx="515" cy="-234" rx="52.79" ry="18"/>
<text text-anchor="middle" x="515" y="-230.3" font-family="Times,serif" font-size="14.00">arg_exprs&#45;1</text>
</g>
<!-- 4445927808&#45;&gt;4446158656 -->
<g id="edge25" class="edge">
<title>4445927808&#45;&gt;4446158656</title>
<path fill="none" stroke="black" d="M512.74,-287.7C513.07,-279.98 513.47,-270.71 513.84,-262.11"/>
<polygon fill="black" stroke="black" points="517.34,-262.25 514.27,-252.1 510.34,-261.95 517.34,-262.25"/>
</g>
<!-- 10 -->
<g id="node20" class="node">
<title>10</title>
<ellipse fill="none" stroke="black" cx="310" cy="-162" rx="27" ry="18"/>
<text text-anchor="middle" x="310" y="-158.3" font-family="Times,serif" font-size="14.00">int</text>
</g>
<!-- 4445927552&#45;&gt;10 -->
<g id="edge13" class="edge">
<title>4445927552&#45;&gt;10</title>
<path fill="none" stroke="black" d="M365.3,-216.76C355.41,-207.14 342.75,-194.84 332.04,-184.43"/>
<polygon fill="black" stroke="black" points="334.27,-181.71 324.66,-177.25 329.39,-186.73 334.27,-181.71"/>
</g>
<!-- 11 -->
<g id="node21" class="node">
<title>11</title>
<ellipse fill="none" stroke="black" cx="382" cy="-162" rx="27" ry="18"/>
<text text-anchor="middle" x="382" y="-158.3" font-family="Times,serif" font-size="14.00">20</text>
</g>
<!-- 4445927552&#45;&gt;11 -->
<g id="edge14" class="edge">
<title>4445927552&#45;&gt;11</title>
<path fill="none" stroke="black" d="M382,-215.7C382,-207.98 382,-198.71 382,-190.11"/>
<polygon fill="black" stroke="black" points="385.5,-190.1 382,-180.1 378.5,-190.1 385.5,-190.1"/>
</g>
<!-- 12 -->
<g id="node23" class="node">
<title>12</title>
<ellipse fill="none" stroke="black" cx="454" cy="-162" rx="27" ry="18"/>
<text text-anchor="middle" x="454" y="-158.3" font-family="Times,serif" font-size="14.00">call</text>
</g>
<!-- 4446158656&#45;&gt;12 -->
<g id="edge16" class="edge">
<title>4446158656&#45;&gt;12</title>
<path fill="none" stroke="black" d="M500.54,-216.41C492.54,-207.22 482.47,-195.67 473.75,-185.66"/>
<polygon fill="black" stroke="black" points="476.31,-183.28 467.1,-178.04 471.04,-187.88 476.31,-183.28"/>
</g>
<!-- 13 -->
<g id="node24" class="node">
<title>13</title>
<ellipse fill="none" stroke="black" cx="526" cy="-162" rx="27" ry="18"/>
<text text-anchor="middle" x="526" y="-158.3" font-family="Times,serif" font-size="14.00">add</text>
</g>
<!-- 4446158656&#45;&gt;13 -->
<g id="edge17" class="edge">
<title>4446158656&#45;&gt;13</title>
<path fill="none" stroke="black" d="M517.72,-215.7C518.93,-207.98 520.39,-198.71 521.74,-190.11"/>
<polygon fill="black" stroke="black" points="525.22,-190.53 523.31,-180.1 518.3,-189.44 525.22,-190.53"/>
</g>
<!-- 4446155200 -->
<g id="node25" class="node">
<title>4446155200</title>
<ellipse fill="none" stroke="black" cx="616" cy="-162" rx="45.49" ry="18"/>
<text text-anchor="middle" x="616" y="-158.3" font-family="Times,serif" font-size="14.00">arg_exprs</text>
</g>
<!-- 4446158656&#45;&gt;4446155200 -->
<g id="edge24" class="edge">
<title>4446158656&#45;&gt;4446155200</title>
<path fill="none" stroke="black" d="M537.42,-217.46C551.73,-207.54 570.47,-194.56 586.05,-183.75"/>
<polygon fill="black" stroke="black" points="588.12,-186.58 594.34,-178.01 584.13,-180.83 588.12,-186.58"/>
</g>
<!-- 4446155776 -->
<g id="node26" class="node">
<title>4446155776</title>
<ellipse fill="none" stroke="black" cx="554" cy="-90" rx="52.79" ry="18"/>
<text text-anchor="middle" x="554" y="-86.3" font-family="Times,serif" font-size="14.00">arg_exprs&#45;0</text>
</g>
<!-- 4446155200&#45;&gt;4446155776 -->
<g id="edge20" class="edge">
<title>4446155200&#45;&gt;4446155776</title>
<path fill="none" stroke="black" d="M601.62,-144.76C593.83,-135.97 584.05,-124.93 575.38,-115.14"/>
<polygon fill="black" stroke="black" points="577.98,-112.8 568.73,-107.63 572.74,-117.44 577.98,-112.8"/>
</g>
<!-- 4446156736 -->
<g id="node29" class="node">
<title>4446156736</title>
<ellipse fill="none" stroke="black" cx="677" cy="-90" rx="52.79" ry="18"/>
<text text-anchor="middle" x="677" y="-86.3" font-family="Times,serif" font-size="14.00">arg_exprs&#45;1</text>
</g>
<!-- 4446155200&#45;&gt;4446156736 -->
<g id="edge23" class="edge">
<title>4446155200&#45;&gt;4446156736</title>
<path fill="none" stroke="black" d="M630.15,-144.76C637.74,-136.06 647.24,-125.15 655.71,-115.43"/>
<polygon fill="black" stroke="black" points="658.57,-117.47 662.51,-107.63 653.3,-112.87 658.57,-117.47"/>
</g>
<!-- 14 -->
<g id="node27" class="node">
<title>14</title>
<ellipse fill="none" stroke="black" cx="495" cy="-18" rx="27" ry="18"/>
<text text-anchor="middle" x="495" y="-14.3" font-family="Times,serif" font-size="14.00">var</text>
</g>
<!-- 4446155776&#45;&gt;14 -->
<g id="edge18" class="edge">
<title>4446155776&#45;&gt;14</title>
<path fill="none" stroke="black" d="M540.02,-72.41C532.35,-63.31 522.73,-51.9 514.35,-41.96"/>
<polygon fill="black" stroke="black" points="516.8,-39.43 507.68,-34.04 511.44,-43.94 516.8,-39.43"/>
</g>
<!-- 15 -->
<g id="node28" class="node">
<title>15</title>
<ellipse fill="none" stroke="black" cx="567" cy="-18" rx="27" ry="18"/>
<text text-anchor="middle" x="567" y="-14.3" font-family="Times,serif" font-size="14.00">a</text>
</g>
<!-- 4446155776&#45;&gt;15 -->
<g id="edge19" class="edge">
<title>4446155776&#45;&gt;15</title>
<path fill="none" stroke="black" d="M557.21,-71.7C558.65,-63.98 560.37,-54.71 561.96,-46.11"/>
<polygon fill="black" stroke="black" points="565.44,-46.58 563.82,-36.1 558.56,-45.3 565.44,-46.58"/>
</g>
<!-- 16 -->
<g id="node30" class="node">
<title>16</title>
<ellipse fill="none" stroke="black" cx="664" cy="-18" rx="27" ry="18"/>
<text text-anchor="middle" x="664" y="-14.3" font-family="Times,serif" font-size="14.00">var</text>
</g>
<!-- 4446156736&#45;&gt;16 -->
<g id="edge21" class="edge">
<title>4446156736&#45;&gt;16</title>
<path fill="none" stroke="black" d="M673.79,-71.7C672.35,-63.98 670.63,-54.71 669.04,-46.11"/>
<polygon fill="black" stroke="black" points="672.44,-45.3 667.18,-36.1 665.56,-46.58 672.44,-45.3"/>
</g>
<!-- 17 -->
<g id="node31" class="node">
<title>17</title>
<ellipse fill="none" stroke="black" cx="736" cy="-18" rx="27" ry="18"/>
<text text-anchor="middle" x="736" y="-14.3" font-family="Times,serif" font-size="14.00">b</text>
</g>
<!-- 4446156736&#45;&gt;17 -->
<g id="edge22" class="edge">
<title>4446156736&#45;&gt;17</title>
<path fill="none" stroke="black" d="M690.98,-72.41C698.65,-63.31 708.27,-51.9 716.65,-41.96"/>
<polygon fill="black" stroke="black" points="719.56,-43.94 723.32,-34.04 714.2,-39.43 719.56,-43.94"/>
</g>
<!-- 18 -->
<g id="node33" class="node">
<title>18</title>
<ellipse fill="none" stroke="black" cx="375" cy="-522" rx="27" ry="18"/>
<text text-anchor="middle" x="375" y="-518.3" font-family="Times,serif" font-size="14.00">call</text>
</g>
<!-- 4446156160&#45;&gt;18 -->
<g id="edge31" class="edge">
<title>4446156160&#45;&gt;18</title>
<path fill="none" stroke="black" d="M402.47,-576.41C398.16,-568.04 392.85,-557.71 388.05,-548.37"/>
<polygon fill="black" stroke="black" points="391.16,-546.76 383.47,-539.47 384.93,-549.96 391.16,-546.76"/>
</g>
<!-- 19 -->
<g id="node34" class="node">
<title>19</title>
<ellipse fill="none" stroke="black" cx="447" cy="-522" rx="27.1" ry="18"/>
<text text-anchor="middle" x="447" y="-518.3" font-family="Times,serif" font-size="14.00">print</text>
</g>
<!-- 4446156160&#45;&gt;19 -->
<g id="edge32" class="edge">
<title>4446156160&#45;&gt;19</title>
<path fill="none" stroke="black" d="M419.53,-576.41C423.84,-568.04 429.15,-557.71 433.95,-548.37"/>
<polygon fill="black" stroke="black" points="437.07,-549.96 438.53,-539.47 430.84,-546.76 437.07,-549.96"/>
</g>
<!-- 4446156352 -->
<g id="node35" class="node">
<title>4446156352</title>
<ellipse fill="none" stroke="black" cx="540" cy="-522" rx="45.49" ry="18"/>
<text text-anchor="middle" x="540" y="-518.3" font-family="Times,serif" font-size="14.00">arg_exprs</text>
</g>
<!-- 4446156160&#45;&gt;4446156352 -->
<g id="edge43" class="edge">
<title>4446156160&#45;&gt;4446156352</title>
<path fill="none" stroke="black" d="M433.47,-580.81C453.26,-570.07 482.41,-554.25 505.22,-541.87"/>
<polygon fill="black" stroke="black" points="507.12,-544.82 514.24,-536.98 503.78,-538.67 507.12,-544.82"/>
</g>
<!-- 4446155840 -->
<g id="node36" class="node">
<title>4446155840</title>
<ellipse fill="none" stroke="black" cx="550" cy="-450" rx="52.79" ry="18"/>
<text text-anchor="middle" x="550" y="-446.3" font-family="Times,serif" font-size="14.00">arg_exprs&#45;0</text>
</g>
<!-- 4446156352&#45;&gt;4446155840 -->
<g id="edge42" class="edge">
<title>4446156352&#45;&gt;4446155840</title>
<path fill="none" stroke="black" d="M542.47,-503.7C543.57,-495.98 544.9,-486.71 546.13,-478.11"/>
<polygon fill="black" stroke="black" points="549.61,-478.5 547.56,-468.1 542.68,-477.51 549.61,-478.5"/>
</g>
<!-- 20 -->
<g id="node37" class="node">
<title>20</title>
<ellipse fill="none" stroke="black" cx="514" cy="-378" rx="27" ry="18"/>
<text text-anchor="middle" x="514" y="-374.3" font-family="Times,serif" font-size="14.00">call</text>
</g>
<!-- 4446155840&#45;&gt;20 -->
<g id="edge33" class="edge">
<title>4446155840&#45;&gt;20</title>
<path fill="none" stroke="black" d="M541.29,-432.05C537.02,-423.77 531.8,-413.62 527.08,-404.42"/>
<polygon fill="black" stroke="black" points="530.07,-402.6 522.39,-395.31 523.85,-405.8 530.07,-402.6"/>
</g>
<!-- 21 -->
<g id="node38" class="node">
<title>21</title>
<ellipse fill="none" stroke="black" cx="586" cy="-378" rx="27" ry="18"/>
<text text-anchor="middle" x="586" y="-374.3" font-family="Times,serif" font-size="14.00">f</text>
</g>
<!-- 4446155840&#45;&gt;21 -->
<g id="edge34" class="edge">
<title>4446155840&#45;&gt;21</title>
<path fill="none" stroke="black" d="M558.71,-432.05C562.98,-423.77 568.2,-413.62 572.92,-404.42"/>
<polygon fill="black" stroke="black" points="576.15,-405.8 577.61,-395.31 569.93,-402.6 576.15,-405.8"/>
</g>
<!-- 4446156224 -->
<g id="node39" class="node">
<title>4446156224</title>
<ellipse fill="none" stroke="black" cx="676" cy="-378" rx="45.49" ry="18"/>
<text text-anchor="middle" x="676" y="-374.3" font-family="Times,serif" font-size="14.00">arg_exprs</text>
</g>
<!-- 4446155840&#45;&gt;4446156224 -->
<g id="edge41" class="edge">
<title>4446155840&#45;&gt;4446156224</title>
<path fill="none" stroke="black" d="M576.41,-434.33C595.4,-423.78 621.16,-409.46 641.73,-398.04"/>
<polygon fill="black" stroke="black" points="643.44,-401.09 650.48,-393.18 640.04,-394.97 643.44,-401.09"/>
</g>
<!-- 4446158592 -->
<g id="node40" class="node">
<title>4446158592</title>
<ellipse fill="none" stroke="black" cx="674" cy="-306" rx="52.79" ry="18"/>
<text text-anchor="middle" x="674" y="-302.3" font-family="Times,serif" font-size="14.00">arg_exprs&#45;0</text>
</g>
<!-- 4446156224&#45;&gt;4446158592 -->
<g id="edge37" class="edge">
<title>4446156224&#45;&gt;4446158592</title>
<path fill="none" stroke="black" d="M675.51,-359.7C675.29,-351.98 675.02,-342.71 674.77,-334.11"/>
<polygon fill="black" stroke="black" points="678.27,-334 674.49,-324.1 671.28,-334.2 678.27,-334"/>
</g>
<!-- 4446158784 -->
<g id="node43" class="node">
<title>4446158784</title>
<ellipse fill="none" stroke="black" cx="797" cy="-306" rx="52.79" ry="18"/>
<text text-anchor="middle" x="797" y="-302.3" font-family="Times,serif" font-size="14.00">arg_exprs&#45;1</text>
</g>
<!-- 4446156224&#45;&gt;4446158784 -->
<g id="edge40" class="edge">
<title>4446156224&#45;&gt;4446158784</title>
<path fill="none" stroke="black" d="M700.78,-362.67C718.65,-352.33 742.99,-338.25 762.72,-326.83"/>
<polygon fill="black" stroke="black" points="764.52,-329.83 771.42,-321.8 761.01,-323.78 764.52,-329.83"/>
</g>
<!-- 22 -->
<g id="node41" class="node">
<title>22</title>
<ellipse fill="none" stroke="black" cx="638" cy="-234" rx="27" ry="18"/>
<text text-anchor="middle" x="638" y="-230.3" font-family="Times,serif" font-size="14.00">int</text>
</g>
<!-- 4446158592&#45;&gt;22 -->
<g id="edge35" class="edge">
<title>4446158592&#45;&gt;22</title>
<path fill="none" stroke="black" d="M665.29,-288.05C661.02,-279.77 655.8,-269.62 651.08,-260.42"/>
<polygon fill="black" stroke="black" points="654.07,-258.6 646.39,-251.31 647.85,-261.8 654.07,-258.6"/>
</g>
<!-- 23 -->
<g id="node42" class="node">
<title>23</title>
<ellipse fill="none" stroke="black" cx="710" cy="-234" rx="27" ry="18"/>
<text text-anchor="middle" x="710" y="-230.3" font-family="Times,serif" font-size="14.00">1</text>
</g>
<!-- 4446158592&#45;&gt;23 -->
<g id="edge36" class="edge">
<title>4446158592&#45;&gt;23</title>
<path fill="none" stroke="black" d="M682.71,-288.05C686.98,-279.77 692.2,-269.62 696.92,-260.42"/>
<polygon fill="black" stroke="black" points="700.15,-261.8 701.61,-251.31 693.93,-258.6 700.15,-261.8"/>
</g>
<!-- 24 -->
<g id="node44" class="node">
<title>24</title>
<ellipse fill="none" stroke="black" cx="795" cy="-234" rx="27" ry="18"/>
<text text-anchor="middle" x="795" y="-230.3" font-family="Times,serif" font-size="14.00">int</text>
</g>
<!-- 4446158784&#45;&gt;24 -->
<g id="edge38" class="edge">
<title>4446158784&#45;&gt;24</title>
<path fill="none" stroke="black" d="M796.51,-287.7C796.29,-279.98 796.02,-270.71 795.77,-262.11"/>
<polygon fill="black" stroke="black" points="799.27,-262 795.49,-252.1 792.28,-262.2 799.27,-262"/>
</g>
<!-- 25 -->
<g id="node45" class="node">
<title>25</title>
<ellipse fill="none" stroke="black" cx="867" cy="-234" rx="27" ry="18"/>
<text text-anchor="middle" x="867" y="-230.3" font-family="Times,serif" font-size="14.00">2</text>
</g>
<!-- 4446158784&#45;&gt;25 -->
<g id="edge39" class="edge">
<title>4446158784&#45;&gt;25</title>
<path fill="none" stroke="black" d="M813.24,-288.76C822.73,-279.27 834.83,-267.17 845.15,-256.85"/>
<polygon fill="black" stroke="black" points="847.69,-259.26 852.28,-249.72 842.74,-254.31 847.69,-259.26"/>
</g>
</g>
</svg>
