<?xml version="1.0" encoding="UTF-8" standalone="no"?>
<!DOCTYPE svg PUBLIC "-//W3C//DTD SVG 1.1//EN"
 "http://www.w3.org/Graphics/SVG/1.1/DTD/svg11.dtd">
<!-- Generated by graphviz version 3.0.0 (20220226.1711)
 -->
<!-- Pages: 1 -->
<svg width="3838pt" height="620pt"
 viewBox="0.00 0.00 3837.74 620.00" xmlns="http://www.w3.org/2000/svg" xmlns:xlink="http://www.w3.org/1999/xlink">
<g id="graph0" class="graph" transform="scale(1 1) rotate(0) translate(4 616)">
<polygon fill="white" stroke="transparent" points="-4,4 -4,-616 3833.74,-616 3833.74,4 -4,4"/>
<!-- 4446933536 -->
<g id="node1" class="node">
<title>4446933536</title>
<ellipse fill="none" stroke="black" cx="402.29" cy="-594" rx="141.07" ry="18"/>
<text text-anchor="start" x="301.79" y="-590.3" font-family="Times,serif" font-size="14.00">class &#39;javalang.tree.CompilationUnit&#39;</text>
</g>
<!-- 4446933488 -->
<g id="node2" class="node">
<title>4446933488</title>
<ellipse fill="none" stroke="black" cx="402.29" cy="-522" rx="141.07" ry="18"/>
<text text-anchor="start" x="301.79" y="-518.3" font-family="Times,serif" font-size="14.00">class &#39;javalang.tree.ClassDeclaration&#39;</text>
</g>
<!-- 4446933536&#45;&gt;4446933488 -->
<g id="edge1" class="edge">
<title>4446933536&#45;&gt;4446933488</title>
<path fill="none" stroke="black" d="M402.29,-575.7C402.29,-567.98 402.29,-558.71 402.29,-550.11"/>
<polygon fill="black" stroke="black" points="405.79,-550.1 402.29,-540.1 398.79,-550.1 405.79,-550.1"/>
</g>
<!-- 1 -->
<g id="node3" class="node">
<title>1</title>
<ellipse fill="none" stroke="black" cx="217.29" cy="-450" rx="27" ry="18"/>
<text text-anchor="middle" x="217.29" y="-446.3" font-family="Times,serif" font-size="14.00">Foo</text>
</g>
<!-- 4446933488&#45;&gt;1 -->
<g id="edge2" class="edge">
<title>4446933488&#45;&gt;1</title>
<path fill="none" stroke="black" d="M353.51,-505.02C324.19,-495.07 286.28,-481.62 253.29,-468 251.47,-467.25 249.61,-466.45 247.74,-465.63"/>
<polygon fill="black" stroke="black" points="249.01,-462.37 238.45,-461.42 246.11,-468.74 249.01,-462.37"/>
</g>
<!-- 4446785344 -->
<g id="node4" class="node">
<title>4446785344</title>
<ellipse fill="none" stroke="black" cx="402.29" cy="-450" rx="139.98" ry="18"/>
<text text-anchor="start" x="302.79" y="-446.3" font-family="Times,serif" font-size="14.00">class &#39;javalang.tree.FieldDeclaration&#39;</text>
</g>
<!-- 4446933488&#45;&gt;4446785344 -->
<g id="edge3" class="edge">
<title>4446933488&#45;&gt;4446785344</title>
<path fill="none" stroke="black" d="M402.29,-503.7C402.29,-495.98 402.29,-486.71 402.29,-478.11"/>
<polygon fill="black" stroke="black" points="405.79,-478.1 402.29,-468.1 398.79,-478.1 405.79,-478.1"/>
</g>
<!-- 4446933392 -->
<g id="node5" class="node">
<title>4446933392</title>
<ellipse fill="none" stroke="black" cx="941.29" cy="-450" rx="149.47" ry="18"/>
<text text-anchor="start" x="834.29" y="-446.3" font-family="Times,serif" font-size="14.00">class &#39;javalang.tree.MethodDeclaration&#39;</text>
</g>
<!-- 4446933488&#45;&gt;4446933392 -->
<g id="edge4" class="edge">
<title>4446933488&#45;&gt;4446933392</title>
<path fill="none" stroke="black" d="M497.41,-508.65C591.49,-496.43 735.27,-477.76 833.52,-465"/>
<polygon fill="black" stroke="black" points="834.01,-468.46 843.48,-463.7 833.11,-461.52 834.01,-468.46"/>
</g>
<!-- 4446784096 -->
<g id="node6" class="node">
<title>4446784096</title>
<ellipse fill="none" stroke="black" cx="118.29" cy="-378" rx="118.08" ry="18"/>
<text text-anchor="start" x="35.29" y="-374.3" font-family="Times,serif" font-size="14.00">class &#39;javalang.tree.BasicType&#39;</text>
</g>
<!-- 4446785344&#45;&gt;4446784096 -->
<g id="edge5" class="edge">
<title>4446785344&#45;&gt;4446784096</title>
<path fill="none" stroke="black" d="M340.67,-433.81C295.58,-422.7 234.39,-407.62 187.6,-396.08"/>
<polygon fill="black" stroke="black" points="188.39,-392.67 177.85,-393.68 186.72,-399.47 188.39,-392.67"/>
</g>
<!-- 4446785488 -->
<g id="node7" class="node">
<title>4446785488</title>
<ellipse fill="none" stroke="black" cx="402.29" cy="-378" rx="147.57" ry="18"/>
<text text-anchor="start" x="296.79" y="-374.3" font-family="Times,serif" font-size="14.00">class &#39;javalang.tree.VariableDeclarator&#39;</text>
</g>
<!-- 4446785344&#45;&gt;4446785488 -->
<g id="edge6" class="edge">
<title>4446785344&#45;&gt;4446785488</title>
<path fill="none" stroke="black" d="M402.29,-431.7C402.29,-423.98 402.29,-414.71 402.29,-406.11"/>
<polygon fill="black" stroke="black" points="405.79,-406.1 402.29,-396.1 398.79,-406.1 405.79,-406.1"/>
</g>
<!-- 5 -->
<g id="node12" class="node">
<title>5</title>
<ellipse fill="none" stroke="black" cx="595.29" cy="-378" rx="27" ry="18"/>
<text text-anchor="middle" x="595.29" y="-374.3" font-family="Times,serif" font-size="14.00">foo</text>
</g>
<!-- 4446933392&#45;&gt;5 -->
<g id="edge11" class="edge">
<title>4446933392&#45;&gt;5</title>
<path fill="none" stroke="black" d="M831.98,-437.68C771.82,-429.63 696.38,-416.51 631.29,-396 629.36,-395.39 627.4,-394.7 625.45,-393.95"/>
<polygon fill="black" stroke="black" points="626.41,-390.56 615.84,-389.88 623.68,-397.01 626.41,-390.56"/>
</g>
<!-- 4446785200 -->
<g id="node13" class="node">
<title>4446785200</title>
<ellipse fill="none" stroke="black" cx="783.29" cy="-378" rx="142.97" ry="18"/>
<text text-anchor="start" x="681.29" y="-374.3" font-family="Times,serif" font-size="14.00">class &#39;javalang.tree.FormalParameter&#39;</text>
</g>
<!-- 4446933392&#45;&gt;4446785200 -->
<g id="edge12" class="edge">
<title>4446933392&#45;&gt;4446785200</title>
<path fill="none" stroke="black" d="M903.85,-432.41C881.71,-422.6 853.49,-410.1 829.91,-399.66"/>
<polygon fill="black" stroke="black" points="831.03,-396.32 820.46,-395.47 828.19,-402.72 831.03,-396.32"/>
</g>
<!-- 4446782512 -->
<g id="node14" class="node">
<title>4446782512</title>
<ellipse fill="none" stroke="black" cx="1099.29" cy="-378" rx="155.17" ry="18"/>
<text text-anchor="start" x="987.79" y="-374.3" font-family="Times,serif" font-size="14.00">class &#39;javalang.tree.StatementExpression&#39;</text>
</g>
<!-- 4446933392&#45;&gt;4446782512 -->
<g id="edge13" class="edge">
<title>4446933392&#45;&gt;4446782512</title>
<path fill="none" stroke="black" d="M978.73,-432.41C1000.79,-422.64 1028.89,-410.19 1052.41,-399.77"/>
<polygon fill="black" stroke="black" points="1054.12,-402.84 1061.84,-395.59 1051.28,-396.44 1054.12,-402.84"/>
</g>
<!-- 4446783184 -->
<g id="node15" class="node">
<title>4446783184</title>
<ellipse fill="none" stroke="black" cx="1443.29" cy="-378" rx="170.87" ry="18"/>
<text text-anchor="start" x="1319.79" y="-374.3" font-family="Times,serif" font-size="14.00">class &#39;javalang.tree.LocalVariableDeclaration&#39;</text>
</g>
<!-- 4446933392&#45;&gt;4446783184 -->
<g id="edge14" class="edge">
<title>4446933392&#45;&gt;4446783184</title>
<path fill="none" stroke="black" d="M1034.83,-435.96C1119.77,-424.11 1245.08,-406.64 1334.48,-394.17"/>
<polygon fill="black" stroke="black" points="1335.23,-397.6 1344.65,-392.75 1334.26,-390.67 1335.23,-397.6"/>
</g>
<!-- 4446933296 -->
<g id="node16" class="node">
<title>4446933296</title>
<ellipse fill="none" stroke="black" cx="2742.29" cy="-378" rx="128.88" ry="18"/>
<text text-anchor="start" x="2651.29" y="-374.3" font-family="Times,serif" font-size="14.00">class &#39;javalang.tree.ForStatement&#39;</text>
</g>
<!-- 4446933392&#45;&gt;4446933296 -->
<g id="edge15" class="edge">
<title>4446933392&#45;&gt;4446933296</title>
<path fill="none" stroke="black" d="M1081.11,-443.57C1419.56,-430.41 2279.29,-397 2609.93,-384.14"/>
<polygon fill="black" stroke="black" points="2610.17,-387.64 2620.03,-383.75 2609.9,-380.64 2610.17,-387.64"/>
</g>
<!-- 2 -->
<g id="node8" class="node">
<title>2</title>
<ellipse fill="none" stroke="black" cx="118.29" cy="-306" rx="27" ry="18"/>
<text text-anchor="middle" x="118.29" y="-302.3" font-family="Times,serif" font-size="14.00">int</text>
</g>
<!-- 4446784096&#45;&gt;2 -->
<g id="edge7" class="edge">
<title>4446784096&#45;&gt;2</title>
<path fill="none" stroke="black" d="M118.29,-359.7C118.29,-351.98 118.29,-342.71 118.29,-334.11"/>
<polygon fill="black" stroke="black" points="121.79,-334.1 118.29,-324.1 114.79,-334.1 121.79,-334.1"/>
</g>
<!-- 3 -->
<g id="node9" class="node">
<title>3</title>
<ellipse fill="none" stroke="black" cx="265.29" cy="-306" rx="27" ry="18"/>
<text text-anchor="middle" x="265.29" y="-302.3" font-family="Times,serif" font-size="14.00">y</text>
</g>
<!-- 4446785488&#45;&gt;3 -->
<g id="edge8" class="edge">
<title>4446785488&#45;&gt;3</title>
<path fill="none" stroke="black" d="M369.82,-360.41C347.11,-348.81 317.02,-333.43 294.95,-322.16"/>
<polygon fill="black" stroke="black" points="296.53,-319.03 286.03,-317.6 293.34,-325.26 296.53,-319.03"/>
</g>
<!-- 4446785296 -->
<g id="node10" class="node">
<title>4446785296</title>
<ellipse fill="none" stroke="black" cx="415.29" cy="-306" rx="104.78" ry="18"/>
<text text-anchor="start" x="342.79" y="-302.3" font-family="Times,serif" font-size="14.00">class &#39;javalang.tree.Literal&#39;</text>
</g>
<!-- 4446785488&#45;&gt;4446785296 -->
<g id="edge9" class="edge">
<title>4446785488&#45;&gt;4446785296</title>
<path fill="none" stroke="black" d="M405.5,-359.7C406.94,-351.98 408.66,-342.71 410.25,-334.11"/>
<polygon fill="black" stroke="black" points="413.73,-334.58 412.11,-324.1 406.85,-333.3 413.73,-334.58"/>
</g>
<!-- 4 -->
<g id="node11" class="node">
<title>4</title>
<ellipse fill="none" stroke="black" cx="415.29" cy="-234" rx="27" ry="18"/>
<text text-anchor="middle" x="415.29" y="-230.3" font-family="Times,serif" font-size="14.00">0</text>
</g>
<!-- 4446785296&#45;&gt;4 -->
<g id="edge10" class="edge">
<title>4446785296&#45;&gt;4</title>
<path fill="none" stroke="black" d="M415.29,-287.7C415.29,-279.98 415.29,-270.71 415.29,-262.11"/>
<polygon fill="black" stroke="black" points="418.79,-262.1 415.29,-252.1 411.79,-262.1 418.79,-262.1"/>
</g>
<!-- 4446784144 -->
<g id="node17" class="node">
<title>4446784144</title>
<ellipse fill="none" stroke="black" cx="707.29" cy="-306" rx="118.08" ry="18"/>
<text text-anchor="start" x="624.29" y="-302.3" font-family="Times,serif" font-size="14.00">class &#39;javalang.tree.BasicType&#39;</text>
</g>
<!-- 4446785200&#45;&gt;4446784144 -->
<g id="edge16" class="edge">
<title>4446785200&#45;&gt;4446784144</title>
<path fill="none" stroke="black" d="M764.89,-360.05C755.37,-351.28 743.59,-340.43 733.16,-330.83"/>
<polygon fill="black" stroke="black" points="735.24,-327.99 725.52,-323.79 730.5,-333.14 735.24,-327.99"/>
</g>
<!-- 6 -->
<g id="node18" class="node">
<title>6</title>
<ellipse fill="none" stroke="black" cx="870.29" cy="-306" rx="27" ry="18"/>
<text text-anchor="middle" x="870.29" y="-302.3" font-family="Times,serif" font-size="14.00">x</text>
</g>
<!-- 4446785200&#45;&gt;6 -->
<g id="edge17" class="edge">
<title>4446785200&#45;&gt;6</title>
<path fill="none" stroke="black" d="M804.35,-360.05C816.81,-350.03 832.65,-337.29 845.68,-326.8"/>
<polygon fill="black" stroke="black" points="848.18,-329.28 853.78,-320.29 843.79,-323.83 848.18,-329.28"/>
</g>
<!-- 4446783136 -->
<g id="node20" class="node">
<title>4446783136</title>
<ellipse fill="none" stroke="black" cx="1086.29" cy="-306" rx="146.47" ry="18"/>
<text text-anchor="start" x="981.79" y="-302.3" font-family="Times,serif" font-size="14.00">class &#39;javalang.tree.MethodInvocation&#39;</text>
</g>
<!-- 4446782512&#45;&gt;4446783136 -->
<g id="edge19" class="edge">
<title>4446782512&#45;&gt;4446783136</title>
<path fill="none" stroke="black" d="M1096.08,-359.7C1094.64,-351.98 1092.92,-342.71 1091.32,-334.11"/>
<polygon fill="black" stroke="black" points="1094.73,-333.3 1089.47,-324.1 1087.85,-334.58 1094.73,-333.3"/>
</g>
<!-- 4446782944 -->
<g id="node25" class="node">
<title>4446782944</title>
<ellipse fill="none" stroke="black" cx="1369.29" cy="-306" rx="118.08" ry="18"/>
<text text-anchor="start" x="1286.29" y="-302.3" font-family="Times,serif" font-size="14.00">class &#39;javalang.tree.BasicType&#39;</text>
</g>
<!-- 4446783184&#45;&gt;4446782944 -->
<g id="edge24" class="edge">
<title>4446783184&#45;&gt;4446782944</title>
<path fill="none" stroke="black" d="M1425.38,-360.05C1416.17,-351.35 1404.8,-340.59 1394.71,-331.04"/>
<polygon fill="black" stroke="black" points="1396.96,-328.36 1387.29,-324.03 1392.15,-333.45 1396.96,-328.36"/>
</g>
<!-- 4446783424 -->
<g id="node26" class="node">
<title>4446783424</title>
<ellipse fill="none" stroke="black" cx="1653.29" cy="-306" rx="147.57" ry="18"/>
<text text-anchor="start" x="1547.79" y="-302.3" font-family="Times,serif" font-size="14.00">class &#39;javalang.tree.VariableDeclarator&#39;</text>
</g>
<!-- 4446783184&#45;&gt;4446783424 -->
<g id="edge25" class="edge">
<title>4446783184&#45;&gt;4446783424</title>
<path fill="none" stroke="black" d="M1492.26,-360.68C1523.01,-350.43 1562.84,-337.15 1595.19,-326.37"/>
<polygon fill="black" stroke="black" points="1596.59,-329.59 1604.97,-323.11 1594.37,-322.95 1596.59,-329.59"/>
</g>
<!-- 4446783664 -->
<g id="node36" class="node">
<title>4446783664</title>
<ellipse fill="none" stroke="black" cx="2742.29" cy="-306" rx="120.48" ry="18"/>
<text text-anchor="start" x="2657.79" y="-302.3" font-family="Times,serif" font-size="14.00">class &#39;javalang.tree.ForControl&#39;</text>
</g>
<!-- 4446933296&#45;&gt;4446783664 -->
<g id="edge35" class="edge">
<title>4446933296&#45;&gt;4446783664</title>
<path fill="none" stroke="black" d="M2742.29,-359.7C2742.29,-351.98 2742.29,-342.71 2742.29,-334.11"/>
<polygon fill="black" stroke="black" points="2745.79,-334.1 2742.29,-324.1 2738.79,-334.1 2745.79,-334.1"/>
</g>
<!-- 4446933104 -->
<g id="node37" class="node">
<title>4446933104</title>
<ellipse fill="none" stroke="black" cx="3317.29" cy="-306" rx="137.58" ry="18"/>
<text text-anchor="start" x="3219.29" y="-302.3" font-family="Times,serif" font-size="14.00">class &#39;javalang.tree.BlockStatement&#39;</text>
</g>
<!-- 4446933296&#45;&gt;4446933104 -->
<g id="edge36" class="edge">
<title>4446933296&#45;&gt;4446933104</title>
<path fill="none" stroke="black" d="M2835.95,-365.6C2938.46,-353.12 3102.5,-333.15 3210.07,-320.05"/>
<polygon fill="black" stroke="black" points="3210.8,-323.49 3220.3,-318.81 3209.95,-316.54 3210.8,-323.49"/>
</g>
<!-- 7 -->
<g id="node19" class="node">
<title>7</title>
<ellipse fill="none" stroke="black" cx="707.29" cy="-234" rx="27" ry="18"/>
<text text-anchor="middle" x="707.29" y="-230.3" font-family="Times,serif" font-size="14.00">int</text>
</g>
<!-- 4446784144&#45;&gt;7 -->
<g id="edge18" class="edge">
<title>4446784144&#45;&gt;7</title>
<path fill="none" stroke="black" d="M707.29,-287.7C707.29,-279.98 707.29,-270.71 707.29,-262.11"/>
<polygon fill="black" stroke="black" points="710.79,-262.1 707.29,-252.1 703.79,-262.1 710.79,-262.1"/>
</g>
<!-- 8 -->
<g id="node21" class="node">
<title>8</title>
<ellipse fill="none" stroke="black" cx="913.29" cy="-234" rx="50.89" ry="18"/>
<text text-anchor="middle" x="913.29" y="-230.3" font-family="Times,serif" font-size="14.00">System.out</text>
</g>
<!-- 4446783136&#45;&gt;8 -->
<g id="edge20" class="edge">
<title>4446783136&#45;&gt;8</title>
<path fill="none" stroke="black" d="M1045.73,-288.59C1018.39,-277.53 982.43,-262.98 954.88,-251.83"/>
<polygon fill="black" stroke="black" points="956.1,-248.55 945.51,-248.04 953.47,-255.03 956.1,-248.55"/>
</g>
<!-- 4446782992 -->
<g id="node22" class="node">
<title>4446782992</title>
<ellipse fill="none" stroke="black" cx="1086.29" cy="-234" rx="104.78" ry="18"/>
<text text-anchor="start" x="1013.79" y="-230.3" font-family="Times,serif" font-size="14.00">class &#39;javalang.tree.Literal&#39;</text>
</g>
<!-- 4446783136&#45;&gt;4446782992 -->
<g id="edge21" class="edge">
<title>4446783136&#45;&gt;4446782992</title>
<path fill="none" stroke="black" d="M1086.29,-287.7C1086.29,-279.98 1086.29,-270.71 1086.29,-262.11"/>
<polygon fill="black" stroke="black" points="1089.79,-262.1 1086.29,-252.1 1082.79,-262.1 1089.79,-262.1"/>
</g>
<!-- 9 -->
<g id="node23" class="node">
<title>9</title>
<ellipse fill="none" stroke="black" cx="1243.29" cy="-234" rx="34.39" ry="18"/>
<text text-anchor="middle" x="1243.29" y="-230.3" font-family="Times,serif" font-size="14.00">println</text>
</g>
<!-- 4446783136&#45;&gt;9 -->
<g id="edge22" class="edge">
<title>4446783136&#45;&gt;9</title>
<path fill="none" stroke="black" d="M1123.5,-288.41C1149.23,-276.94 1183.23,-261.78 1208.43,-250.54"/>
<polygon fill="black" stroke="black" points="1209.92,-253.71 1217.63,-246.44 1207.07,-247.32 1209.92,-253.71"/>
</g>
<!-- 10 -->
<g id="node24" class="node">
<title>10</title>
<ellipse fill="none" stroke="black" cx="1086.29" cy="-162" rx="64.19" ry="18"/>
<text text-anchor="middle" x="1086.29" y="-158.3" font-family="Times,serif" font-size="14.00">&quot;Hello Clone!&quot;</text>
</g>
<!-- 4446782992&#45;&gt;10 -->
<g id="edge23" class="edge">
<title>4446782992&#45;&gt;10</title>
<path fill="none" stroke="black" d="M1086.29,-215.7C1086.29,-207.98 1086.29,-198.71 1086.29,-190.11"/>
<polygon fill="black" stroke="black" points="1089.79,-190.1 1086.29,-180.1 1082.79,-190.1 1089.79,-190.1"/>
</g>
<!-- 11 -->
<g id="node27" class="node">
<title>11</title>
<ellipse fill="none" stroke="black" cx="1369.29" cy="-234" rx="27" ry="18"/>
<text text-anchor="middle" x="1369.29" y="-230.3" font-family="Times,serif" font-size="14.00">int</text>
</g>
<!-- 4446782944&#45;&gt;11 -->
<g id="edge26" class="edge">
<title>4446782944&#45;&gt;11</title>
<path fill="none" stroke="black" d="M1369.29,-287.7C1369.29,-279.98 1369.29,-270.71 1369.29,-262.11"/>
<polygon fill="black" stroke="black" points="1372.79,-262.1 1369.29,-252.1 1365.79,-262.1 1372.79,-262.1"/>
</g>
<!-- 12 -->
<g id="node28" class="node">
<title>12</title>
<ellipse fill="none" stroke="black" cx="1468.29" cy="-234" rx="27" ry="18"/>
<text text-anchor="middle" x="1468.29" y="-230.3" font-family="Times,serif" font-size="14.00">j</text>
</g>
<!-- 4446783424&#45;&gt;12 -->
<g id="edge27" class="edge">
<title>4446783424&#45;&gt;12</title>
<path fill="none" stroke="black" d="M1604.17,-288.9C1574.9,-278.97 1537.16,-265.57 1504.29,-252 1502.47,-251.25 1500.61,-250.45 1498.74,-249.63"/>
<polygon fill="black" stroke="black" points="1500.01,-246.37 1489.45,-245.42 1497.11,-252.74 1500.01,-246.37"/>
</g>
<!-- 4446783472 -->
<g id="node29" class="node">
<title>4446783472</title>
<ellipse fill="none" stroke="black" cx="1653.29" cy="-234" rx="139.98" ry="18"/>
<text text-anchor="start" x="1553.79" y="-230.3" font-family="Times,serif" font-size="14.00">class &#39;javalang.tree.BinaryOperation&#39;</text>
</g>
<!-- 4446783424&#45;&gt;4446783472 -->
<g id="edge28" class="edge">
<title>4446783424&#45;&gt;4446783472</title>
<path fill="none" stroke="black" d="M1653.29,-287.7C1653.29,-279.98 1653.29,-270.71 1653.29,-262.11"/>
<polygon fill="black" stroke="black" points="1656.79,-262.1 1653.29,-252.1 1649.79,-262.1 1656.79,-262.1"/>
</g>
<!-- 13 -->
<g id="node30" class="node">
<title>13</title>
<ellipse fill="none" stroke="black" cx="1368.29" cy="-162" rx="27" ry="18"/>
<text text-anchor="middle" x="1368.29" y="-158.3" font-family="Times,serif" font-size="14.00">+</text>
</g>
<!-- 4446783472&#45;&gt;13 -->
<g id="edge29" class="edge">
<title>4446783472&#45;&gt;13</title>
<path fill="none" stroke="black" d="M1567.27,-219.76C1518.68,-211.03 1457.26,-197.88 1404.29,-180 1402.37,-179.35 1400.43,-178.63 1398.48,-177.86"/>
<polygon fill="black" stroke="black" points="1399.46,-174.47 1388.89,-173.73 1396.69,-180.9 1399.46,-174.47"/>
</g>
<!-- 4446783616 -->
<g id="node31" class="node">
<title>4446783616</title>
<ellipse fill="none" stroke="black" cx="1518.29" cy="-162" rx="104.78" ry="18"/>
<text text-anchor="start" x="1445.79" y="-158.3" font-family="Times,serif" font-size="14.00">class &#39;javalang.tree.Literal&#39;</text>
</g>
<!-- 4446783472&#45;&gt;4446783616 -->
<g id="edge30" class="edge">
<title>4446783472&#45;&gt;4446783616</title>
<path fill="none" stroke="black" d="M1621.3,-216.41C1602.5,-206.66 1578.57,-194.25 1558.5,-183.85"/>
<polygon fill="black" stroke="black" points="1560.08,-180.72 1549.59,-179.23 1556.85,-186.94 1560.08,-180.72"/>
</g>
<!-- 4446782896 -->
<g id="node32" class="node">
<title>4446782896</title>
<ellipse fill="none" stroke="black" cx="1788.29" cy="-162" rx="147.57" ry="18"/>
<text text-anchor="start" x="1682.79" y="-158.3" font-family="Times,serif" font-size="14.00">class &#39;javalang.tree.MemberReference&#39;</text>
</g>
<!-- 4446783472&#45;&gt;4446782896 -->
<g id="edge31" class="edge">
<title>4446783472&#45;&gt;4446782896</title>
<path fill="none" stroke="black" d="M1685.28,-216.41C1703.73,-206.85 1727.11,-194.72 1746.94,-184.44"/>
<polygon fill="black" stroke="black" points="1748.79,-187.42 1756.06,-179.71 1745.57,-181.21 1748.79,-187.42"/>
</g>
<!-- 14 -->
<g id="node33" class="node">
<title>14</title>
<ellipse fill="none" stroke="black" cx="1518.29" cy="-90" rx="27" ry="18"/>
<text text-anchor="middle" x="1518.29" y="-86.3" font-family="Times,serif" font-size="14.00">10</text>
</g>
<!-- 4446783616&#45;&gt;14 -->
<g id="edge32" class="edge">
<title>4446783616&#45;&gt;14</title>
<path fill="none" stroke="black" d="M1518.29,-143.7C1518.29,-135.98 1518.29,-126.71 1518.29,-118.11"/>
<polygon fill="black" stroke="black" points="1521.79,-118.1 1518.29,-108.1 1514.79,-118.1 1521.79,-118.1"/>
</g>
<!-- 15 -->
<g id="node34" class="node">
<title>15</title>
<ellipse fill="none" stroke="black" cx="1752.29" cy="-90" rx="27" ry="18"/>
</g>
<!-- 4446782896&#45;&gt;15 -->
<g id="edge33" class="edge">
<title>4446782896&#45;&gt;15</title>
<path fill="none" stroke="black" d="M1779.39,-143.7C1775.13,-135.4 1769.94,-125.31 1765.24,-116.19"/>
<polygon fill="black" stroke="black" points="1768.28,-114.44 1760.59,-107.14 1762.05,-117.64 1768.28,-114.44"/>
</g>
<!-- 16 -->
<g id="node35" class="node">
<title>16</title>
<ellipse fill="none" stroke="black" cx="1824.29" cy="-90" rx="27" ry="18"/>
<text text-anchor="middle" x="1824.29" y="-86.3" font-family="Times,serif" font-size="14.00">y</text>
</g>
<!-- 4446782896&#45;&gt;16 -->
<g id="edge34" class="edge">
<title>4446782896&#45;&gt;16</title>
<path fill="none" stroke="black" d="M1797.19,-143.7C1801.45,-135.4 1806.64,-125.31 1811.34,-116.19"/>
<polygon fill="black" stroke="black" points="1814.53,-117.64 1815.99,-107.14 1808.3,-114.44 1814.53,-117.64"/>
</g>
<!-- 4446782320 -->
<g id="node38" class="node">
<title>4446782320</title>
<ellipse fill="none" stroke="black" cx="2356.29" cy="-234" rx="151.37" ry="18"/>
<text text-anchor="start" x="2247.79" y="-230.3" font-family="Times,serif" font-size="14.00">class &#39;javalang.tree.VariableDeclaration&#39;</text>
</g>
<!-- 4446783664&#45;&gt;4446782320 -->
<g id="edge37" class="edge">
<title>4446783664&#45;&gt;4446782320</title>
<path fill="none" stroke="black" d="M2668.78,-291.67C2605.32,-280.16 2513.45,-263.5 2445.74,-251.22"/>
<polygon fill="black" stroke="black" points="2445.97,-247.71 2435.51,-249.37 2444.72,-254.59 2445.97,-247.71"/>
</g>
<!-- 4446933056 -->
<g id="node39" class="node">
<title>4446933056</title>
<ellipse fill="none" stroke="black" cx="2742.29" cy="-234" rx="139.98" ry="18"/>
<text text-anchor="start" x="2642.79" y="-230.3" font-family="Times,serif" font-size="14.00">class &#39;javalang.tree.BinaryOperation&#39;</text>
</g>
<!-- 4446783664&#45;&gt;4446933056 -->
<g id="edge38" class="edge">
<title>4446783664&#45;&gt;4446933056</title>
<path fill="none" stroke="black" d="M2742.29,-287.7C2742.29,-279.98 2742.29,-270.71 2742.29,-262.11"/>
<polygon fill="black" stroke="black" points="2745.79,-262.1 2742.29,-252.1 2738.79,-262.1 2745.79,-262.1"/>
</g>
<!-- 4446076736 -->
<g id="node40" class="node">
<title>4446076736</title>
<ellipse fill="none" stroke="black" cx="3285.29" cy="-234" rx="147.57" ry="18"/>
<text text-anchor="start" x="3179.79" y="-230.3" font-family="Times,serif" font-size="14.00">class &#39;javalang.tree.MemberReference&#39;</text>
</g>
<!-- 4446783664&#45;&gt;4446076736 -->
<g id="edge39" class="edge">
<title>4446783664&#45;&gt;4446076736</title>
<path fill="none" stroke="black" d="M2830.14,-293.68C2924.98,-281.45 3076.11,-261.97 3177.93,-248.84"/>
<polygon fill="black" stroke="black" points="3178.47,-252.3 3187.94,-247.55 3177.57,-245.36 3178.47,-252.3"/>
</g>
<!-- 4446933632 -->
<g id="node57" class="node">
<title>4446933632</title>
<ellipse fill="none" stroke="black" cx="3627.29" cy="-234" rx="155.17" ry="18"/>
<text text-anchor="start" x="3515.79" y="-230.3" font-family="Times,serif" font-size="14.00">class &#39;javalang.tree.StatementExpression&#39;</text>
</g>
<!-- 4446933104&#45;&gt;4446933632 -->
<g id="edge56" class="edge">
<title>4446933104&#45;&gt;4446933632</title>
<path fill="none" stroke="black" d="M3383.03,-290.15C3431.77,-279.15 3498.37,-264.11 3549.71,-252.52"/>
<polygon fill="black" stroke="black" points="3550.78,-255.86 3559.77,-250.25 3549.24,-249.04 3550.78,-255.86"/>
</g>
<!-- 4446784864 -->
<g id="node41" class="node">
<title>4446784864</title>
<ellipse fill="none" stroke="black" cx="2072.29" cy="-162" rx="118.08" ry="18"/>
<text text-anchor="start" x="1989.29" y="-158.3" font-family="Times,serif" font-size="14.00">class &#39;javalang.tree.BasicType&#39;</text>
</g>
<!-- 4446782320&#45;&gt;4446784864 -->
<g id="edge40" class="edge">
<title>4446782320&#45;&gt;4446784864</title>
<path fill="none" stroke="black" d="M2293.61,-217.55C2248.72,-206.49 2188.25,-191.58 2141.86,-180.15"/>
<polygon fill="black" stroke="black" points="2142.44,-176.69 2131.89,-177.69 2140.76,-183.48 2142.44,-176.69"/>
</g>
<!-- 4446785056 -->
<g id="node42" class="node">
<title>4446785056</title>
<ellipse fill="none" stroke="black" cx="2356.29" cy="-162" rx="147.57" ry="18"/>
<text text-anchor="start" x="2250.79" y="-158.3" font-family="Times,serif" font-size="14.00">class &#39;javalang.tree.VariableDeclarator&#39;</text>
</g>
<!-- 4446782320&#45;&gt;4446785056 -->
<g id="edge41" class="edge">
<title>4446782320&#45;&gt;4446785056</title>
<path fill="none" stroke="black" d="M2356.29,-215.7C2356.29,-207.98 2356.29,-198.71 2356.29,-190.11"/>
<polygon fill="black" stroke="black" points="2359.79,-190.1 2356.29,-180.1 2352.79,-190.1 2359.79,-190.1"/>
</g>
<!-- 20 -->
<g id="node47" class="node">
<title>20</title>
<ellipse fill="none" stroke="black" cx="2549.29" cy="-162" rx="27" ry="18"/>
<text text-anchor="middle" x="2549.29" y="-158.3" font-family="Times,serif" font-size="14.00">&lt;</text>
</g>
<!-- 4446933056&#45;&gt;20 -->
<g id="edge46" class="edge">
<title>4446933056&#45;&gt;20</title>
<path fill="none" stroke="black" d="M2690.48,-217.17C2659.61,-207.33 2619.84,-193.94 2585.29,-180 2583.46,-179.26 2581.6,-178.48 2579.72,-177.67"/>
<polygon fill="black" stroke="black" points="2580.98,-174.4 2570.43,-173.48 2578.11,-180.78 2580.98,-174.4"/>
</g>
<!-- 4446783376 -->
<g id="node48" class="node">
<title>4446783376</title>
<ellipse fill="none" stroke="black" cx="2742.29" cy="-162" rx="147.57" ry="18"/>
<text text-anchor="start" x="2636.79" y="-158.3" font-family="Times,serif" font-size="14.00">class &#39;javalang.tree.MemberReference&#39;</text>
</g>
<!-- 4446933056&#45;&gt;4446783376 -->
<g id="edge47" class="edge">
<title>4446933056&#45;&gt;4446783376</title>
<path fill="none" stroke="black" d="M2742.29,-215.7C2742.29,-207.98 2742.29,-198.71 2742.29,-190.11"/>
<polygon fill="black" stroke="black" points="2745.79,-190.1 2742.29,-180.1 2738.79,-190.1 2745.79,-190.1"/>
</g>
<!-- 4446783568 -->
<g id="node49" class="node">
<title>4446783568</title>
<ellipse fill="none" stroke="black" cx="3055.29" cy="-162" rx="147.57" ry="18"/>
<text text-anchor="start" x="2949.79" y="-158.3" font-family="Times,serif" font-size="14.00">class &#39;javalang.tree.MemberReference&#39;</text>
</g>
<!-- 4446933056&#45;&gt;4446783568 -->
<g id="edge48" class="edge">
<title>4446933056&#45;&gt;4446783568</title>
<path fill="none" stroke="black" d="M2808.67,-218.15C2858.23,-207.07 2926.09,-191.89 2978.08,-180.27"/>
<polygon fill="black" stroke="black" points="2978.93,-183.66 2987.93,-178.07 2977.4,-176.83 2978.93,-183.66"/>
</g>
<!-- 4446216624 -->
<g id="node54" class="node">
<title>4446216624</title>
<ellipse fill="none" stroke="black" cx="3275.29" cy="-162" rx="54.69" ry="18"/>
<text text-anchor="middle" x="3275.29" y="-158.3" font-family="Times,serif" font-size="14.00">4446216624</text>
</g>
<!-- 4446076736&#45;&gt;4446216624 -->
<g id="edge53" class="edge">
<title>4446076736&#45;&gt;4446216624</title>
<path fill="none" stroke="black" d="M3282.82,-215.7C3281.72,-207.98 3280.39,-198.71 3279.16,-190.11"/>
<polygon fill="black" stroke="black" points="3282.61,-189.51 3277.73,-180.1 3275.68,-190.5 3282.61,-189.51"/>
</g>
<!-- 25 -->
<g id="node55" class="node">
<title>25</title>
<ellipse fill="none" stroke="black" cx="3375.29" cy="-162" rx="27" ry="18"/>
</g>
<!-- 4446076736&#45;&gt;25 -->
<g id="edge54" class="edge">
<title>4446076736&#45;&gt;25</title>
<path fill="none" stroke="black" d="M3307.08,-216.05C3320.09,-205.94 3336.66,-193.04 3350.22,-182.5"/>
<polygon fill="black" stroke="black" points="3352.46,-185.19 3358.21,-176.29 3348.16,-179.66 3352.46,-185.19"/>
</g>
<!-- 26 -->
<g id="node56" class="node">
<title>26</title>
<ellipse fill="none" stroke="black" cx="3447.29" cy="-162" rx="27" ry="18"/>
<text text-anchor="middle" x="3447.29" y="-158.3" font-family="Times,serif" font-size="14.00">i</text>
</g>
<!-- 4446076736&#45;&gt;26 -->
<g id="edge55" class="edge">
<title>4446076736&#45;&gt;26</title>
<path fill="none" stroke="black" d="M3325.48,-216.61C3350.32,-206.35 3382.79,-192.72 3411.29,-180 3413.09,-179.2 3414.93,-178.36 3416.79,-177.51"/>
<polygon fill="black" stroke="black" points="3418.44,-180.61 3426.04,-173.22 3415.49,-174.26 3418.44,-180.61"/>
</g>
<!-- 17 -->
<g id="node43" class="node">
<title>17</title>
<ellipse fill="none" stroke="black" cx="2072.29" cy="-90" rx="27" ry="18"/>
<text text-anchor="middle" x="2072.29" y="-86.3" font-family="Times,serif" font-size="14.00">int</text>
</g>
<!-- 4446784864&#45;&gt;17 -->
<g id="edge42" class="edge">
<title>4446784864&#45;&gt;17</title>
<path fill="none" stroke="black" d="M2072.29,-143.7C2072.29,-135.98 2072.29,-126.71 2072.29,-118.11"/>
<polygon fill="black" stroke="black" points="2075.79,-118.1 2072.29,-108.1 2068.79,-118.1 2075.79,-118.1"/>
</g>
<!-- 18 -->
<g id="node44" class="node">
<title>18</title>
<ellipse fill="none" stroke="black" cx="2281.29" cy="-90" rx="27" ry="18"/>
<text text-anchor="middle" x="2281.29" y="-86.3" font-family="Times,serif" font-size="14.00">i</text>
</g>
<!-- 4446785056&#45;&gt;18 -->
<g id="edge43" class="edge">
<title>4446785056&#45;&gt;18</title>
<path fill="none" stroke="black" d="M2338.13,-144.05C2327.95,-134.55 2315.14,-122.59 2304.26,-112.44"/>
<polygon fill="black" stroke="black" points="2306.44,-109.69 2296.74,-105.42 2301.67,-114.81 2306.44,-109.69"/>
</g>
<!-- 4446783280 -->
<g id="node45" class="node">
<title>4446783280</title>
<ellipse fill="none" stroke="black" cx="2431.29" cy="-90" rx="104.78" ry="18"/>
<text text-anchor="start" x="2358.79" y="-86.3" font-family="Times,serif" font-size="14.00">class &#39;javalang.tree.Literal&#39;</text>
</g>
<!-- 4446785056&#45;&gt;4446783280 -->
<g id="edge44" class="edge">
<title>4446785056&#45;&gt;4446783280</title>
<path fill="none" stroke="black" d="M2374.44,-144.05C2383.84,-135.28 2395.47,-124.43 2405.76,-114.83"/>
<polygon fill="black" stroke="black" points="2408.38,-117.17 2413.3,-107.79 2403.6,-112.05 2408.38,-117.17"/>
</g>
<!-- 19 -->
<g id="node46" class="node">
<title>19</title>
<ellipse fill="none" stroke="black" cx="2431.29" cy="-18" rx="27" ry="18"/>
<text text-anchor="middle" x="2431.29" y="-14.3" font-family="Times,serif" font-size="14.00">0</text>
</g>
<!-- 4446783280&#45;&gt;19 -->
<g id="edge45" class="edge">
<title>4446783280&#45;&gt;19</title>
<path fill="none" stroke="black" d="M2431.29,-71.7C2431.29,-63.98 2431.29,-54.71 2431.29,-46.11"/>
<polygon fill="black" stroke="black" points="2434.79,-46.1 2431.29,-36.1 2427.79,-46.1 2434.79,-46.1"/>
</g>
<!-- 21 -->
<g id="node50" class="node">
<title>21</title>
<ellipse fill="none" stroke="black" cx="2706.29" cy="-90" rx="27" ry="18"/>
</g>
<!-- 4446783376&#45;&gt;21 -->
<g id="edge49" class="edge">
<title>4446783376&#45;&gt;21</title>
<path fill="none" stroke="black" d="M2733.39,-143.7C2729.13,-135.4 2723.94,-125.31 2719.24,-116.19"/>
<polygon fill="black" stroke="black" points="2722.28,-114.44 2714.59,-107.14 2716.05,-117.64 2722.28,-114.44"/>
</g>
<!-- 22 -->
<g id="node51" class="node">
<title>22</title>
<ellipse fill="none" stroke="black" cx="2778.29" cy="-90" rx="27" ry="18"/>
<text text-anchor="middle" x="2778.29" y="-86.3" font-family="Times,serif" font-size="14.00">i</text>
</g>
<!-- 4446783376&#45;&gt;22 -->
<g id="edge50" class="edge">
<title>4446783376&#45;&gt;22</title>
<path fill="none" stroke="black" d="M2751.19,-143.7C2755.45,-135.4 2760.64,-125.31 2765.34,-116.19"/>
<polygon fill="black" stroke="black" points="2768.53,-117.64 2769.99,-107.14 2762.3,-114.44 2768.53,-117.64"/>
</g>
<!-- 23 -->
<g id="node52" class="node">
<title>23</title>
<ellipse fill="none" stroke="black" cx="3019.29" cy="-90" rx="27" ry="18"/>
</g>
<!-- 4446783568&#45;&gt;23 -->
<g id="edge51" class="edge">
<title>4446783568&#45;&gt;23</title>
<path fill="none" stroke="black" d="M3046.39,-143.7C3042.13,-135.4 3036.94,-125.31 3032.24,-116.19"/>
<polygon fill="black" stroke="black" points="3035.28,-114.44 3027.59,-107.14 3029.05,-117.64 3035.28,-114.44"/>
</g>
<!-- 24 -->
<g id="node53" class="node">
<title>24</title>
<ellipse fill="none" stroke="black" cx="3091.29" cy="-90" rx="27" ry="18"/>
<text text-anchor="middle" x="3091.29" y="-86.3" font-family="Times,serif" font-size="14.00">x</text>
</g>
<!-- 4446783568&#45;&gt;24 -->
<g id="edge52" class="edge">
<title>4446783568&#45;&gt;24</title>
<path fill="none" stroke="black" d="M3064.19,-143.7C3068.45,-135.4 3073.64,-125.31 3078.34,-116.19"/>
<polygon fill="black" stroke="black" points="3081.53,-117.64 3082.99,-107.14 3075.3,-114.44 3081.53,-117.64"/>
</g>
<!-- 4446933584 -->
<g id="node58" class="node">
<title>4446933584</title>
<ellipse fill="none" stroke="black" cx="3638.29" cy="-162" rx="146.47" ry="18"/>
<text text-anchor="start" x="3533.79" y="-158.3" font-family="Times,serif" font-size="14.00">class &#39;javalang.tree.MethodInvocation&#39;</text>
</g>
<!-- 4446933632&#45;&gt;4446933584 -->
<g id="edge57" class="edge">
<title>4446933632&#45;&gt;4446933584</title>
<path fill="none" stroke="black" d="M3630.01,-215.7C3631.22,-207.98 3632.68,-198.71 3634.03,-190.11"/>
<polygon fill="black" stroke="black" points="3637.51,-190.53 3635.6,-180.1 3630.59,-189.44 3637.51,-190.53"/>
</g>
<!-- 27 -->
<g id="node59" class="node">
<title>27</title>
<ellipse fill="none" stroke="black" cx="3465.29" cy="-90" rx="50.89" ry="18"/>
<text text-anchor="middle" x="3465.29" y="-86.3" font-family="Times,serif" font-size="14.00">System.out</text>
</g>
<!-- 4446933584&#45;&gt;27 -->
<g id="edge58" class="edge">
<title>4446933584&#45;&gt;27</title>
<path fill="none" stroke="black" d="M3597.73,-144.59C3570.39,-133.53 3534.43,-118.98 3506.88,-107.83"/>
<polygon fill="black" stroke="black" points="3508.1,-104.55 3497.51,-104.04 3505.47,-111.03 3508.1,-104.55"/>
</g>
<!-- 4446933200 -->
<g id="node60" class="node">
<title>4446933200</title>
<ellipse fill="none" stroke="black" cx="3638.29" cy="-90" rx="104.78" ry="18"/>
<text text-anchor="start" x="3565.79" y="-86.3" font-family="Times,serif" font-size="14.00">class &#39;javalang.tree.Literal&#39;</text>
</g>
<!-- 4446933584&#45;&gt;4446933200 -->
<g id="edge59" class="edge">
<title>4446933584&#45;&gt;4446933200</title>
<path fill="none" stroke="black" d="M3638.29,-143.7C3638.29,-135.98 3638.29,-126.71 3638.29,-118.11"/>
<polygon fill="black" stroke="black" points="3641.79,-118.1 3638.29,-108.1 3634.79,-118.1 3641.79,-118.1"/>
</g>
<!-- 28 -->
<g id="node61" class="node">
<title>28</title>
<ellipse fill="none" stroke="black" cx="3795.29" cy="-90" rx="34.39" ry="18"/>
<text text-anchor="middle" x="3795.29" y="-86.3" font-family="Times,serif" font-size="14.00">println</text>
</g>
<!-- 4446933584&#45;&gt;28 -->
<g id="edge60" class="edge">
<title>4446933584&#45;&gt;28</title>
<path fill="none" stroke="black" d="M3675.5,-144.41C3701.23,-132.94 3735.23,-117.78 3760.43,-106.54"/>
<polygon fill="black" stroke="black" points="3761.92,-109.71 3769.63,-102.44 3759.07,-103.32 3761.92,-109.71"/>
</g>
<!-- 29 -->
<g id="node62" class="node">
<title>29</title>
<ellipse fill="none" stroke="black" cx="3638.29" cy="-18" rx="79.09" ry="18"/>
<text text-anchor="middle" x="3638.29" y="-14.3" font-family="Times,serif" font-size="14.00">&quot;Another iteration&quot;</text>
</g>
<!-- 4446933200&#45;&gt;29 -->
<g id="edge61" class="edge">
<title>4446933200&#45;&gt;29</title>
<path fill="none" stroke="black" d="M3638.29,-71.7C3638.29,-63.98 3638.29,-54.71 3638.29,-46.11"/>
<polygon fill="black" stroke="black" points="3641.79,-46.1 3638.29,-36.1 3634.79,-46.1 3641.79,-46.1"/>
</g>
</g>
</svg>
