<?xml version="1.0" encoding="UTF-8" standalone="no"?>
<!DOCTYPE svg PUBLIC "-//W3C//DTD SVG 1.1//EN"
 "http://www.w3.org/Graphics/SVG/1.1/DTD/svg11.dtd">
<!-- Generated by graphviz version 3.0.0 (20220226.1711)
 -->
<!-- Pages: 1 -->
<svg width="1571pt" height="404pt"
 viewBox="0.00 0.00 1570.93 404.00" xmlns="http://www.w3.org/2000/svg" xmlns:xlink="http://www.w3.org/1999/xlink">
<g id="graph0" class="graph" transform="scale(1 1) rotate(0) translate(4 400)">
<polygon fill="white" stroke="transparent" points="-4,4 -4,-400 1566.93,-400 1566.93,4 -4,4"/>
<!-- 4532441632 -->
<g id="node1" class="node">
<title>4532441632</title>
<ellipse fill="none" stroke="black" cx="469.29" cy="-378" rx="149.47" ry="18"/>
<text text-anchor="start" x="362.29" y="-374.3" font-family="Times,serif" font-size="14.00">class &#39;javalang.tree.MethodDeclaration&#39;</text>
</g>
<!-- 4532330160 -->
<g id="node2" class="node">
<title>4532330160</title>
<ellipse fill="none" stroke="black" cx="118.29" cy="-306" rx="118.08" ry="18"/>
<text text-anchor="start" x="35.29" y="-302.3" font-family="Times,serif" font-size="14.00">class &#39;javalang.tree.BasicType&#39;</text>
</g>
<!-- 4532441632&#45;&gt;4532330160 -->
<g id="edge1" class="edge">
<title>4532441632&#45;&gt;4532330160</title>
<path fill="none" stroke="black" d="M395.71,-362.33C337.56,-350.73 256.56,-334.58 197.1,-322.72"/>
<polygon fill="black" stroke="black" points="197.5,-319.23 187,-320.7 196.13,-326.09 197.5,-319.23"/>
</g>
<!-- 1 -->
<g id="node3" class="node">
<title>1</title>
<ellipse fill="none" stroke="black" cx="281.29" cy="-306" rx="27" ry="18"/>
<text text-anchor="middle" x="281.29" y="-302.3" font-family="Times,serif" font-size="14.00">sum</text>
</g>
<!-- 4532441632&#45;&gt;1 -->
<g id="edge2" class="edge">
<title>4532441632&#45;&gt;1</title>
<path fill="none" stroke="black" d="M419.16,-361C389.29,-351.11 350.79,-337.7 317.29,-324 315.47,-323.25 313.6,-322.46 311.73,-321.65"/>
<polygon fill="black" stroke="black" points="313,-318.38 302.44,-317.44 310.11,-324.76 313,-318.38"/>
</g>
<!-- 4532328864 -->
<g id="node4" class="node">
<title>4532328864</title>
<ellipse fill="none" stroke="black" cx="469.29" cy="-306" rx="142.97" ry="18"/>
<text text-anchor="start" x="367.29" y="-302.3" font-family="Times,serif" font-size="14.00">class &#39;javalang.tree.FormalParameter&#39;</text>
</g>
<!-- 4532441632&#45;&gt;4532328864 -->
<g id="edge3" class="edge">
<title>4532441632&#45;&gt;4532328864</title>
<path fill="none" stroke="black" d="M469.29,-359.7C469.29,-351.98 469.29,-342.71 469.29,-334.11"/>
<polygon fill="black" stroke="black" points="472.79,-334.1 469.29,-324.1 465.79,-334.1 472.79,-334.1"/>
</g>
<!-- 4532329872 -->
<g id="node5" class="node">
<title>4532329872</title>
<ellipse fill="none" stroke="black" cx="773.29" cy="-306" rx="142.97" ry="18"/>
<text text-anchor="start" x="671.29" y="-302.3" font-family="Times,serif" font-size="14.00">class &#39;javalang.tree.FormalParameter&#39;</text>
</g>
<!-- 4532441632&#45;&gt;4532329872 -->
<g id="edge4" class="edge">
<title>4532441632&#45;&gt;4532329872</title>
<path fill="none" stroke="black" d="M535.25,-361.81C583.22,-350.77 648.23,-335.8 698.2,-324.29"/>
<polygon fill="black" stroke="black" points="699.02,-327.69 707.98,-322.04 697.45,-320.87 699.02,-327.69"/>
</g>
<!-- 4532441344 -->
<g id="node6" class="node">
<title>4532441344</title>
<ellipse fill="none" stroke="black" cx="1074.29" cy="-306" rx="140.28" ry="18"/>
<text text-anchor="start" x="974.29" y="-302.3" font-family="Times,serif" font-size="14.00">class &#39;javalang.tree.ReturnStatement&#39;</text>
</g>
<!-- 4532441632&#45;&gt;4532441344 -->
<g id="edge5" class="edge">
<title>4532441632&#45;&gt;4532441344</title>
<path fill="none" stroke="black" d="M572.95,-365.01C681.66,-352.43 851.88,-332.73 963.28,-319.84"/>
<polygon fill="black" stroke="black" points="964,-323.28 973.53,-318.66 963.2,-316.33 964,-323.28"/>
</g>
<!-- 2 -->
<g id="node7" class="node">
<title>2</title>
<ellipse fill="none" stroke="black" cx="118.29" cy="-234" rx="27" ry="18"/>
<text text-anchor="middle" x="118.29" y="-230.3" font-family="Times,serif" font-size="14.00">int</text>
</g>
<!-- 4532330160&#45;&gt;2 -->
<g id="edge6" class="edge">
<title>4532330160&#45;&gt;2</title>
<path fill="none" stroke="black" d="M118.29,-287.7C118.29,-279.98 118.29,-270.71 118.29,-262.11"/>
<polygon fill="black" stroke="black" points="121.79,-262.1 118.29,-252.1 114.79,-262.1 121.79,-262.1"/>
</g>
<!-- 4532326800 -->
<g id="node8" class="node">
<title>4532326800</title>
<ellipse fill="none" stroke="black" cx="329.29" cy="-234" rx="118.08" ry="18"/>
<text text-anchor="start" x="246.29" y="-230.3" font-family="Times,serif" font-size="14.00">class &#39;javalang.tree.BasicType&#39;</text>
</g>
<!-- 4532328864&#45;&gt;4532326800 -->
<g id="edge7" class="edge">
<title>4532328864&#45;&gt;4532326800</title>
<path fill="none" stroke="black" d="M436.11,-288.41C416.76,-278.73 392.16,-266.43 371.44,-256.08"/>
<polygon fill="black" stroke="black" points="372.74,-252.81 362.23,-251.47 369.61,-259.07 372.74,-252.81"/>
</g>
<!-- 3 -->
<g id="node9" class="node">
<title>3</title>
<ellipse fill="none" stroke="black" cx="492.29" cy="-234" rx="27" ry="18"/>
<text text-anchor="middle" x="492.29" y="-230.3" font-family="Times,serif" font-size="14.00">a</text>
</g>
<!-- 4532328864&#45;&gt;3 -->
<g id="edge8" class="edge">
<title>4532328864&#45;&gt;3</title>
<path fill="none" stroke="black" d="M474.97,-287.7C477.54,-279.9 480.62,-270.51 483.47,-261.83"/>
<polygon fill="black" stroke="black" points="486.87,-262.7 486.67,-252.1 480.22,-260.51 486.87,-262.7"/>
</g>
<!-- 4532328672 -->
<g id="node11" class="node">
<title>4532328672</title>
<ellipse fill="none" stroke="black" cx="702.29" cy="-234" rx="118.08" ry="18"/>
<text text-anchor="start" x="619.29" y="-230.3" font-family="Times,serif" font-size="14.00">class &#39;javalang.tree.BasicType&#39;</text>
</g>
<!-- 4532329872&#45;&gt;4532328672 -->
<g id="edge10" class="edge">
<title>4532329872&#45;&gt;4532328672</title>
<path fill="none" stroke="black" d="M756.1,-288.05C747.42,-279.5 736.73,-268.96 727.18,-259.54"/>
<polygon fill="black" stroke="black" points="729.39,-256.8 719.81,-252.28 724.48,-261.79 729.39,-256.8"/>
</g>
<!-- 5 -->
<g id="node12" class="node">
<title>5</title>
<ellipse fill="none" stroke="black" cx="865.29" cy="-234" rx="27" ry="18"/>
<text text-anchor="middle" x="865.29" y="-230.3" font-family="Times,serif" font-size="14.00">b</text>
</g>
<!-- 4532329872&#45;&gt;5 -->
<g id="edge11" class="edge">
<title>4532329872&#45;&gt;5</title>
<path fill="none" stroke="black" d="M795.56,-288.05C808.95,-277.87 826.03,-264.87 839.93,-254.29"/>
<polygon fill="black" stroke="black" points="842.28,-256.9 848.12,-248.06 838.04,-251.33 842.28,-256.9"/>
</g>
<!-- 4532441440 -->
<g id="node14" class="node">
<title>4532441440</title>
<ellipse fill="none" stroke="black" cx="1074.29" cy="-234" rx="139.98" ry="18"/>
<text text-anchor="start" x="974.79" y="-230.3" font-family="Times,serif" font-size="14.00">class &#39;javalang.tree.BinaryOperation&#39;</text>
</g>
<!-- 4532441344&#45;&gt;4532441440 -->
<g id="edge13" class="edge">
<title>4532441344&#45;&gt;4532441440</title>
<path fill="none" stroke="black" d="M1074.29,-287.7C1074.29,-279.98 1074.29,-270.71 1074.29,-262.11"/>
<polygon fill="black" stroke="black" points="1077.79,-262.1 1074.29,-252.1 1070.79,-262.1 1077.79,-262.1"/>
</g>
<!-- 4 -->
<g id="node10" class="node">
<title>4</title>
<ellipse fill="none" stroke="black" cx="329.29" cy="-162" rx="27" ry="18"/>
<text text-anchor="middle" x="329.29" y="-158.3" font-family="Times,serif" font-size="14.00">int</text>
</g>
<!-- 4532326800&#45;&gt;4 -->
<g id="edge9" class="edge">
<title>4532326800&#45;&gt;4</title>
<path fill="none" stroke="black" d="M329.29,-215.7C329.29,-207.98 329.29,-198.71 329.29,-190.11"/>
<polygon fill="black" stroke="black" points="332.79,-190.1 329.29,-180.1 325.79,-190.1 332.79,-190.1"/>
</g>
<!-- 6 -->
<g id="node13" class="node">
<title>6</title>
<ellipse fill="none" stroke="black" cx="702.29" cy="-162" rx="27" ry="18"/>
<text text-anchor="middle" x="702.29" y="-158.3" font-family="Times,serif" font-size="14.00">int</text>
</g>
<!-- 4532328672&#45;&gt;6 -->
<g id="edge12" class="edge">
<title>4532328672&#45;&gt;6</title>
<path fill="none" stroke="black" d="M702.29,-215.7C702.29,-207.98 702.29,-198.71 702.29,-190.11"/>
<polygon fill="black" stroke="black" points="705.79,-190.1 702.29,-180.1 698.79,-190.1 705.79,-190.1"/>
</g>
<!-- 7 -->
<g id="node15" class="node">
<title>7</title>
<ellipse fill="none" stroke="black" cx="889.29" cy="-162" rx="27" ry="18"/>
<text text-anchor="middle" x="889.29" y="-158.3" font-family="Times,serif" font-size="14.00">+</text>
</g>
<!-- 4532441440&#45;&gt;7 -->
<g id="edge14" class="edge">
<title>4532441440&#45;&gt;7</title>
<path fill="none" stroke="black" d="M1025.51,-217.02C996.19,-207.07 958.28,-193.62 925.29,-180 923.47,-179.25 921.61,-178.45 919.74,-177.63"/>
<polygon fill="black" stroke="black" points="921.01,-174.37 910.45,-173.42 918.11,-180.74 921.01,-174.37"/>
</g>
<!-- 4532441296 -->
<g id="node16" class="node">
<title>4532441296</title>
<ellipse fill="none" stroke="black" cx="1074.29" cy="-162" rx="139.98" ry="18"/>
<text text-anchor="start" x="974.79" y="-158.3" font-family="Times,serif" font-size="14.00">class &#39;javalang.tree.BinaryOperation&#39;</text>
</g>
<!-- 4532441440&#45;&gt;4532441296 -->
<g id="edge15" class="edge">
<title>4532441440&#45;&gt;4532441296</title>
<path fill="none" stroke="black" d="M1074.29,-215.7C1074.29,-207.98 1074.29,-198.71 1074.29,-190.11"/>
<polygon fill="black" stroke="black" points="1077.79,-190.1 1074.29,-180.1 1070.79,-190.1 1077.79,-190.1"/>
</g>
<!-- 4532441248 -->
<g id="node17" class="node">
<title>4532441248</title>
<ellipse fill="none" stroke="black" cx="1458.29" cy="-162" rx="104.78" ry="18"/>
<text text-anchor="start" x="1385.79" y="-158.3" font-family="Times,serif" font-size="14.00">class &#39;javalang.tree.Literal&#39;</text>
</g>
<!-- 4532441440&#45;&gt;4532441248 -->
<g id="edge16" class="edge">
<title>4532441440&#45;&gt;4532441248</title>
<path fill="none" stroke="black" d="M1151.54,-218.92C1217.68,-206.86 1312.52,-189.57 1379.19,-177.42"/>
<polygon fill="black" stroke="black" points="1380.01,-180.83 1389.22,-175.59 1378.76,-173.94 1380.01,-180.83"/>
</g>
<!-- 8 -->
<g id="node18" class="node">
<title>8</title>
<ellipse fill="none" stroke="black" cx="820.29" cy="-90" rx="27" ry="18"/>
<text text-anchor="middle" x="820.29" y="-86.3" font-family="Times,serif" font-size="14.00">+</text>
</g>
<!-- 4532441296&#45;&gt;8 -->
<g id="edge17" class="edge">
<title>4532441296&#45;&gt;8</title>
<path fill="none" stroke="black" d="M999.54,-146.75C956.94,-137.66 902.93,-124.49 856.29,-108 854.38,-107.33 852.44,-106.58 850.5,-105.8"/>
<polygon fill="black" stroke="black" points="851.49,-102.41 840.93,-101.62 848.69,-108.83 851.49,-102.41"/>
</g>
<!-- 4532441200 -->
<g id="node19" class="node">
<title>4532441200</title>
<ellipse fill="none" stroke="black" cx="1013.29" cy="-90" rx="147.57" ry="18"/>
<text text-anchor="start" x="907.79" y="-86.3" font-family="Times,serif" font-size="14.00">class &#39;javalang.tree.MemberReference&#39;</text>
</g>
<!-- 4532441296&#45;&gt;4532441200 -->
<g id="edge18" class="edge">
<title>4532441296&#45;&gt;4532441200</title>
<path fill="none" stroke="black" d="M1059.52,-144.05C1052.14,-135.58 1043.06,-125.17 1034.91,-115.82"/>
<polygon fill="black" stroke="black" points="1037.55,-113.51 1028.34,-108.28 1032.27,-118.11 1037.55,-113.51"/>
</g>
<!-- 4532441152 -->
<g id="node20" class="node">
<title>4532441152</title>
<ellipse fill="none" stroke="black" cx="1326.29" cy="-90" rx="147.57" ry="18"/>
<text text-anchor="start" x="1220.79" y="-86.3" font-family="Times,serif" font-size="14.00">class &#39;javalang.tree.MemberReference&#39;</text>
</g>
<!-- 4532441296&#45;&gt;4532441152 -->
<g id="edge19" class="edge">
<title>4532441296&#45;&gt;4532441152</title>
<path fill="none" stroke="black" d="M1130.22,-145.46C1168.53,-134.82 1219.51,-120.66 1259.89,-109.44"/>
<polygon fill="black" stroke="black" points="1260.95,-112.78 1269.65,-106.73 1259.08,-106.04 1260.95,-112.78"/>
</g>
<!-- 13 -->
<g id="node25" class="node">
<title>13</title>
<ellipse fill="none" stroke="black" cx="1519.29" cy="-90" rx="27" ry="18"/>
<text text-anchor="middle" x="1519.29" y="-86.3" font-family="Times,serif" font-size="14.00">2</text>
</g>
<!-- 4532441248&#45;&gt;13 -->
<g id="edge24" class="edge">
<title>4532441248&#45;&gt;13</title>
<path fill="none" stroke="black" d="M1473.06,-144.05C1481.07,-134.86 1491.08,-123.38 1499.73,-113.45"/>
<polygon fill="black" stroke="black" points="1502.38,-115.73 1506.32,-105.89 1497.11,-111.13 1502.38,-115.73"/>
</g>
<!-- 9 -->
<g id="node21" class="node">
<title>9</title>
<ellipse fill="none" stroke="black" cx="977.29" cy="-18" rx="27" ry="18"/>
</g>
<!-- 4532441200&#45;&gt;9 -->
<g id="edge20" class="edge">
<title>4532441200&#45;&gt;9</title>
<path fill="none" stroke="black" d="M1004.39,-71.7C1000.13,-63.4 994.94,-53.31 990.24,-44.19"/>
<polygon fill="black" stroke="black" points="993.28,-42.44 985.59,-35.14 987.05,-45.64 993.28,-42.44"/>
</g>
<!-- 10 -->
<g id="node22" class="node">
<title>10</title>
<ellipse fill="none" stroke="black" cx="1049.29" cy="-18" rx="27" ry="18"/>
<text text-anchor="middle" x="1049.29" y="-14.3" font-family="Times,serif" font-size="14.00">a</text>
</g>
<!-- 4532441200&#45;&gt;10 -->
<g id="edge21" class="edge">
<title>4532441200&#45;&gt;10</title>
<path fill="none" stroke="black" d="M1022.19,-71.7C1026.45,-63.4 1031.64,-53.31 1036.34,-44.19"/>
<polygon fill="black" stroke="black" points="1039.53,-45.64 1040.99,-35.14 1033.3,-42.44 1039.53,-45.64"/>
</g>
<!-- 11 -->
<g id="node23" class="node">
<title>11</title>
<ellipse fill="none" stroke="black" cx="1290.29" cy="-18" rx="27" ry="18"/>
</g>
<!-- 4532441152&#45;&gt;11 -->
<g id="edge22" class="edge">
<title>4532441152&#45;&gt;11</title>
<path fill="none" stroke="black" d="M1317.39,-71.7C1313.13,-63.4 1307.94,-53.31 1303.24,-44.19"/>
<polygon fill="black" stroke="black" points="1306.28,-42.44 1298.59,-35.14 1300.05,-45.64 1306.28,-42.44"/>
</g>
<!-- 12 -->
<g id="node24" class="node">
<title>12</title>
<ellipse fill="none" stroke="black" cx="1362.29" cy="-18" rx="27" ry="18"/>
<text text-anchor="middle" x="1362.29" y="-14.3" font-family="Times,serif" font-size="14.00">b</text>
</g>
<!-- 4532441152&#45;&gt;12 -->
<g id="edge23" class="edge">
<title>4532441152&#45;&gt;12</title>
<path fill="none" stroke="black" d="M1335.19,-71.7C1339.45,-63.4 1344.64,-53.31 1349.34,-44.19"/>
<polygon fill="black" stroke="black" points="1352.53,-45.64 1353.99,-35.14 1346.3,-42.44 1352.53,-45.64"/>
</g>
</g>
</svg>
